<?xml version="1.0" encoding="utf-8"?>
<!-- Generator: Adobe Illustrator 27.8.1, SVG Export Plug-In . SVG Version: 6.00 Build 0)  -->
<svg version="1.1" id="Layer_1" xmlns="http://www.w3.org/2000/svg" xmlns:xlink="http://www.w3.org/1999/xlink" x="0px" y="0px"
	 viewBox="0 0 1920 1080" style="enable-background:new 0 0 1920 1080;" xml:space="preserve">
<path d="M1746.36-9.14c2.29,3.42,5.98,4.86,9.44,6.59c33.53,16.71,66.93,33.7,100.69,49.94c10.33,4.97,21.58,8.11,32.55,11.65
	c6.45,2.09,12.59,4.65,18.24,8.34c12.09,7.91,14.31,13.26,11.78,27.52c-1.86,10.47-4.5,20.72-8.31,30.66
	c-3.94,10.28-9.94,17.91-20.73,22.59c-16.74,7.26-19.84,16.67-13.73,34c5.19,14.71,5.63,29.87,3.15,45.04
	c-1.52,9.31-0.95,18,1.77,27.11c6.03,20.22,8.66,41.3,3.9,61.86c-5.02,21.65-2.14,43.94-6.91,65.21
	c-5.1,22.71-3.88,46.57-12.91,68.47c-0.53,1.28-1.32,2.89-0.97,4.03c1.98,6.51,3.17,11.49-6.92,11.4
	c-15.59-0.13-20.3-2.32-20.5-13.28c-0.47-26.18-0.09-52.35,3.54-78.35c0.48-3.44,1.52-6.91-0.64-11.17
	c-4.71,2.37-6.93,6.85-9.52,10.72c-17.39,25.91-39.05,47.31-66.01,63.19c-4.26,2.51-6.28,6.29-7.14,11.17
	c-1.05,6-4.05,10.93-10.97,10.88c-6.92-0.05-10.78-4.65-13.01-10.69c-2.19-5.94-0.9-11.89,0.49-17.77c1.06-4.47,3.1-8.85,3.31-13.33
	c0.44-9.55,5.37-15.51,13.94-17.83c11.07-3,18.06-10.58,24.58-19.1c9.46-12.35,19.81-24.15,28.54-36.86
	c9.24-13.46,13.74-28.9,5.52-45.9c-7.16-14.81-2.78-30.7,0.56-45.69c5.69-25.54,7.08-50.35-6.11-74.1
	c-7.48-13.47-3.01-27.72-2.99-41.64c0.01-5.23-0.77-9.65-4.42-13.6c-7.65-8.29-10.16-17.82-4.96-28.28
	c5.04-10.13,14.8-11.25,24.53-11.32c7.38-0.06,14.77,0.82,22.15,1.31c2.07,0.14,4.53-0.21,5.67,1.97c1.48,2.82-0.57,4.76-2.53,6.25
	c-4.1,3.12-6.82,6.79-3.21,11.6c5.1,6.82,2.29,18.93,15.11,20.72c23.99,3.35,26.25,1.98,29.92-22.24
	c2.87-18.96-4.15-34.53-21.12-43.36c-37.62-19.58-75.57-38.52-113.31-57.88c-5.15-2.64-8.25-2.18-10.91,3.37
	c-1.82,3.8-4.22,10.33-9.6,6.71c-4.84-3.25-0.27-8.28,1.95-12.1c1.59-2.74,3.65-5.21,5.5-7.8
	C1739.29-9.14,1742.82-9.14,1746.36-9.14z"/>
<path d="M147.89,1030.17c-0.16,23.46-0.18,23.35-23.15,26.54c-8.29,1.15-16.49,2.02-24.67-0.36c-8.75-2.54-10.77-7.51-4.64-14
	c8.53-9.03,16.21-18.3,19.95-30.44c0.65-2.1,3.12-4.77,5.12-5.13c10.76-1.96,11.75-10.41,12.94-18.63
	c4.43-30.55,11.91-59.99,27.29-87.25c9.88-17.52,11.46-37.87,15.84-57.16c3.06-13.47,6.33-26.71,14.16-38.29
	c4.47-6.61,3.47-12.3-2.3-17.19c-7.42-6.29-15.13-12.25-22.66-18.42c-6.01-4.93-11.57-4.35-17.49,0.47
	c-19.52,15.88-40.99,26.76-67.05,26c-8.91-0.26-7.09,6.82-6.43,11.75c3.14,23.23-17.72,39.89-39.15,38.1
	c-16.59-1.39-30.78-14.39-35.08-33.46c-2.88-12.75,5.37-29.26,18.22-36.51c4.24-2.39,8.87-3.07,13.6-2.81
	c23.76,1.31,46.15-7.19,69.35-10.06c11.62-1.44,22.07-8.78,26.79-21.26c2.59-6.85,8.03-10.94,14.45-13.88
	c4.91-2.25,10.08-4.04,14.76-6.7c10.09-5.75,19.15-11.08,15.3-26.49c-2.85-11.39,0.24-23.72,7.35-34.08
	c6.13-8.91,14.48-12.53,25.24-10.87c10.81,1.67,17.34,7.79,20.59,18.14c2.56,8.16,2.16,16.46,1.7,24.7
	c-0.39,6.91,2.15,9.94,8.75,12.44c22.18,8.4,35.18,25.21,40.74,48.05c0.76,3.12,0.46,7.44,2.44,9.17
	c13.35,11.74,16.5,29.09,24.71,43.6c10.06,17.77,12.66,37.71,14,57.38c1.82,26.75,7.6,51.89,20.6,75.44
	c11.2,20.3,13,43.39,18.15,65.46c2.13,9.14,3.21,18.55,13.62,22.96c2.17,0.92,4.12,4.41,4.56,7c1.84,10.68,4.67,21.01,8.63,31.1
	c1.72,4.36,0.71,8.95-3.56,11.46c-8.58,5.03-17.6,3.08-26.15-0.02c-7.68-2.78-10.45-9.43-10.79-17.22
	c-0.25-5.77-0.68-11.53-0.73-17.3c-0.16-17.89-5.85-33.6-16.25-48.28c-6.83-9.64-11.79-20.74-15.15-32.24
	c-2.54-8.71-8.01-12.13-16.8-11.92c-7.2,0.17-14.41-0.4-21.62-0.73c-7.87-0.36-11.77-4.43-11.62-12.43
	c0.17-9.09-0.85-18.08-4.2-26.55c-2.14-5.43-5.36-11.06-11.72-11.61c-7.09-0.61-9.49,5.77-11.65,11.05
	c-3.82,9.35-7.63,18.75-10.48,28.42c-2.9,9.85-9.11,15.46-18.86,13.81c-19.72-3.34-29.6,6.36-38.37,22.62
	C153.63,997.83,148.02,1010.68,147.89,1030.17z"/>
<path d="M860.93,1077.2c5.97-6.26,12.41-6.09,18.24-7.41c15.43-3.49,18.15-7.09,19.86-23.01c4.23-39.3,8.96-78.52,14.51-117.69
	c3.64-25.71,10.31-51.26,10.21-77.48c-0.06-15.28-5.43-27.81-19.41-36.25c-17.38-10.49-33.98-22.29-51.28-32.92
	c-11.14-6.85-23.01-12.63-35.69-16.08c-14.68-3.99-28.84-9.19-42.54-15.72c-22.73-10.85-46.89-15.34-71.86-16.55
	c-6.19-0.3-15.07,1.62-16.71-6.15c-1.52-7.17,5.45-12.48,11.59-15.59c10.93-5.53,23.62-6.08,34.83-11.26
	c2.98-1.38,6.19,0.88,7.84,3.71c10.93,18.76,29.27,23.75,48.78,25.66c10.85,1.06,20.84,3.85,30.6,8.47
	c17.21,8.16,36.39,9.87,54.19,16.37c22.61,8.25,45.69,15.15,67.93,24.57c12.05,5.1,24.9,5,36.9-1.55
	c29.46-16.06,61.13-27.44,92.75-37.38c18.91-5.94,35.7-18.27,56.09-19.24c13.09-0.62,24.68-4.8,35.61-11.97
	c5.04-3.3,9.77-6.37,12.13-12.1c3.6-8.76,10.24-9.79,17.74-6.17c5.73,2.77,11.37,3.59,17.67,4.03c9.89,0.7,16.64,7.66,21.72,15.78
	c2.93,4.69,0.8,8.2-4.22,9.19c-5.37,1.06-10.9,1.34-16.37,1.79c-26.79,2.23-51.82,10.23-75.32,23.13
	c-16.99,9.32-36.81,11.8-53.4,21.91c-26.15,15.94-51.78,32.99-75.08,52.65c-15.04,12.7-15.4,32.67-11.91,51.73
	c7.31,39.87,13.27,79.93,17.73,120.24c2.23,20.16,6.24,40.13,6.57,60.5c0.17,10.45,5.83,15.14,15.53,17.09
	c5.61,1.13,15.31,0.62,14.59,7.53c-0.55,5.23-10.17,1.72-15.67,2.62c-1.34,0.22-2.75,0.03-4.13,0.02
	c-23.51-0.12-23.28-0.13-24.68-23.23c-0.95-15.58-9.67-29.34-10.94-45.03c-1-12.32-3.89-24.48-5.15-36.79
	c-0.64-6.3-2.8-11.31-7.41-15.29c-2.08-1.8-3.73-6.43-7.16-3.67c-2.46,1.98-1.02,5.9,0.38,8.69c3.09,6.15,6.88,11.98,7.93,18.97
	c1.54,10.22-0.42,19.36-9.12,25.81c-7.8,5.78-23.66,5.82-31.41-0.02c-8.37-6.3-9.7-15.35-8.43-25.08
	c1.06-8.09,5.48-14.76,9.19-21.75c1.28-2.41,2.83-5.38-0.01-7.51c-3.23-2.42-4.68,0.93-6.59,2.77c-5.69,5.48-8.18,11.73-8.86,19.97
	c-1.7,20.58-5.64,40.91-11.55,60.77c-2.94,9.88-6.98,19.47-6.83,30.08c0.06,4.04-1.61,8-5.69,8.98
	C890.58,1080.75,876.49,1080.69,860.93,1077.2z"/>
<path d="M371.35,636.01c-8.36,0.39-13.21,3.46-17.08,8.23c-8.08,9.95-18.28,17.65-27.76,26.09c-3.7,3.29-7.98,8.1-13.69,3.64
	c-5.31-4.15-8.09-9.69-6.3-16.78c2.42-9.66,9.4-16.92,13.4-25.82c4.95-11,15.94-9.06,25.51-9.81c7.79-0.61,13.88-5.42,20.16-9.36
	c16.88-10.61,33.53-20.75,54.86-20.07c9.27,0.29,15.87-7.83,22.35-13.94c17.43-16.42,34.46-33.27,51.86-49.72
	c9.37-8.85,19.95-15.79,33.04-17.95c1.47-0.24,3.2-0.4,4.27-1.27c25.42-20.57,55.66-36.67,66.31-71.04
	c2.17-7.01,6.41-12.67,11.53-17.68c10-9.79,16.09-10.96,27.77-3.34c7.02,4.58,11.33,3.67,17.32-1.87
	c21.32-19.66,46.98-12.3,53.85,15.72c2.57,10.47,7.19,13.82,17.63,13.42c22.41-0.86,44.84-0.84,66.91-5.51
	c2.96-0.62,5.77-1.09,8.79-0.02c17.71,6.28,33.74,31.04,32.46,49.89c-0.51,7.48-3.69,11.93-11.44,12.57
	c-22.56,1.87-42.75,10.41-61.29,22.85c-8.8,5.9-18.01,8.66-28.44,8.53c-20.51-0.26-41.06,1.8-61.4-3.45
	c-8.12-2.1-15.37,3.08-21.52,7.84c-12.43,9.63-26.27,15.44-41.57,18.54c-14.44,2.93-27.42,9.75-40.35,16.55
	c-6.72,3.53-10.17,9.88-13.49,16.11c-13.04,24.48-30.55,45.04-52.06,62.54c-8.8,7.16-17.31,9.14-27.9,5.53
	c-13.44-4.59-27.09-8.55-40.65-12.79c-6.7-2.09-13.09-2.74-18.89,2.63c-3.09,2.86-7.22,3.82-11.39,4.26
	c-11.83,1.26-22.6,4.64-30.82,14.07c-2.37,2.71-5.88,5.57-9.69,2.07c-3.23-2.96-4.66-7.16-2.75-11.27
	C363.69,649.37,367.17,643.67,371.35,636.01z M758.36,463.59c-21.9-1.96-38.56,6.23-56.21,8.62c-7.21,0.98-7.6,5.16-2.75,9.94
	c4.25,4.19,9.45,7.84,11.01,13.83c3.09,11.85,13.13,14.39,21.81,12.62c14.44-2.95,28.99-7.16,42.19-14.21
	c9.74-5.2,11.27-12.78,6.19-22.74C774.76,460.2,763.9,464.42,758.36,463.59z M470.12,621.62c10.18,0.46,17.42-7.23,20.52-20.64
	c0.51-2.19,1.6-4.45-0.86-5.96c-1.9-1.16-3.57,0.35-5.09,1.34c-5.92,3.89-11.81,7.83-17.68,11.8c-4.15,2.8-12.95,3.24-11.68,8.35
	C456.79,622.4,465.58,619.89,470.12,621.62z"/>
<path d="M186.96,265.57c-6.23-1.49-12.33,2.4-18.36,8.16c-14.19,13.56-28.54,26.88-42.31,40.92
	c-10.39,10.59-24.84,17.15-37.37,25.66c-10.3,6.99-18.83,15.46-23.09,27.67c-3.56,10.2-4.54,20.17,0.05,30.27
	c1.53,3.36,3.73,7.04,0.22,10.21c-3.96,3.58-7.77,0.81-10.98-1.6c-5.72-4.3-10.26-9.61-12.05-16.85
	c-1.61-6.52-4.05-12.74-7.83-18.32c-5.62-8.31-3.14-14.34,5.72-17.23c8.96-2.92,15.61-8.62,21.13-15.61
	c13.08-16.6,27.43-31.86,42.21-47c11.81-12.1,18.41-29.31,27.24-44.3c1.94-3.3,0.32-6.49-1.01-9.55
	c-7.84-17.96-3.13-34.22,9.74-46.96c13.08-12.96,21.93-27.36,27.32-44.85c4.36-14.14,11.64-27.27,19.39-39.95
	c4.53-7.4,2.71-11.63-5.56-13.56c-9.91-2.32-18.77-7.03-26.9-12.91c-7.35-5.32-14.6-5.9-22.97-2.75
	c-9.35,3.51-18.98,6.32-28.59,9.09c-12.43,3.58-23.23,9.32-31.16,20.02c-3.77,5.08-8.71,9.17-15.01,11.04
	c-6.49,1.93-13.57,6.59-18.26-2.77c-4.01-8.01-0.95-20.8,5.84-25.14c1.24-0.79,2.6-1.63,4-1.89c21.99-4,40.64-15.87,59.87-26.04
	c20.22-10.69,40.39-13.11,62.11-5.72c12.58,4.27,25.35,8.04,38.83,9.08c7.52,0.58,13.73,5.2,19.8,9.57
	c5.9,4.25,12.01,7.37,19.52,3.44c7.62-4,6.47-10.63,6.07-17.42c-1.23-21.25,17.81-36.66,38.24-30.77
	c9.5,2.74,15.79,8.74,17.65,19.28c1.93,10.91,1.25,21.81-1.77,31.92c-3.14,10.53-8.24,21.08-22.84,20.16
	c-4.46-0.28-9.13,3-5.69,7.75c10.37,14.31,14.57,32.48,29.16,44.27c7.12,5.76,12.21,6.03,17.9-0.54c6.37-7.35,12-15.14,12.54-25.42
	c0.06-1.11,0.2-2.23,0.49-3.3c2.01-7.61,4.44-17.85,11.66-18.76c7.91-0.99,12.16,9.31,17.19,15.48c2.82,3.46,1.69,7.29-1.37,9.97
	c-14.86,13.04-22.69,30.99-33.21,47.06c-2.23,3.41-4.67,6.69-7.24,9.86c-8.59,10.59-11.41,10.72-21.2,1.33
	c-10.46-10.04-19.87-21.02-28.61-32.56c-4.23-5.59-8.16-6.4-13.81-1.74c-18.61,15.35-36.6,31.33-52.84,49.23
	c-5.26,5.8-4.53,8.82,3.1,11.55c16.11,5.75,31.53,13.03,44.61,24.41c13.89,12.09,15.17,19.92,6.5,35.95
	c-10.7,19.78-25.67,36.34-40.42,52.93c-18.76,21.11-15.8,31.42,0.8,53.65c2.64,3.54,6.25,6.33,9.17,9.67
	c2.57,2.94,6.83,5.83,3.87,10.39c-2.63,4.06-7.2,3.03-11.21,2.18c-3.25-0.69-6.51-1.5-9.62-2.64
	c-13.28-4.87-25.65-11.51-37.43-19.36c-8.19-5.45-9.53-10.98-2.83-19.04c21.63-26.01,34.71-56.68,46.67-87.92
	c2.09-5.45-0.42-6.72-4.81-7.09C209.26,267.32,199.29,266.56,186.96,265.57z"/>
<path d="M1653.46,723.72c-3.94,3.53,1.43,9.35-3.92,9.73c-4.64,0.33-5.42-4.94-5.77-8.65c-0.54-5.66-1.96-8.84-8.44-5.99
	c-2.29,1.01-4.93,0.52-6.66-1.72c-2.17-2.81,0.33-4.28,1.79-6.19c5.92-7.77,5.78-17.47,6.17-26.21c1.4-31.21,1.02-62.34-12.69-91.65
	c-5.89-12.59-5.09-26.76-7.56-40.17c-0.78-4.25-1.14-9.4-5.95-10.01c-6.03-0.77-5.49,5.32-6.32,9.05
	c-4.23,18.83-8.38,37.59-16.99,55.14c-3.53,7.19-1.42,15.18,1.46,22.53c2.41,6.14,4.13,11.97-2.1,17.18
	c-6.03,5.04-12.37,4.5-18.64,1.28c-6.86-3.52-5.43-9.87-4.31-15.79c3.85-20.3-1.28-39.43-7.66-58.36c-1.29-3.82-1.37-7.48-1.1-11.36
	c0.38-5.45,1.03-10.97-0.43-16.56c-4.39,0.97-3.92,4.17-4.35,6.72c-4.42,26.39-5.13,53.07-3.69,79.61
	c0.65,12.02,3.95,24.09,4.83,36.29c0.44,6.19,1.82,13.26-5.38,16.69c-7.49,3.56-15.16,1.94-22.27-1.66
	c-3.59-1.82-4.04-5.44-3.34-9.18c0.97-5.17,1.86-10.35,2.86-15.51c3.18-16.41,4.07-32.43-3.92-48.14
	c-5.01-9.85-4.49-21.07-4.98-32.14c-3.55,11.08-8.52,21.51-9.07,33.3c-1.17,25.15-5.43,50.32-0.99,75.45
	c1.5,8.49,0.22,17.06,3.45,25.76c1.97,5.3-3.67,13.77-9.11,17.27c-5.12,3.29-2.35-5.79-6.29-7.18c-1.74,2.6-3.42,5.22-5.21,7.76
	c-1.02,1.44-3.83,3.17-4,2.57c-2.64-9.15-9-1.38-12.72-3.11c-4.7-2.18-5.97-7.88-2.65-11.64c15.93-18.05,15.54-38.98,11.59-60.6
	c-3.83-20.93-3.92-41.72-0.33-62.73c1.28-7.47,0.16-15.39-0.19-23.09c-0.92-20.21,4.93-39.53,7.54-59.28
	c0.23-1.72,0.61-3.55,1.42-5.05c10.93-20.12,15.73-44.89,41.18-54.01c4.58-1.64,6.06-6.55,8.33-10.48
	c7.84-13.57,18.02-18.95,32.01-16.9c14.41,2.11,22.81,11.53,25.12,24.83c1.85,10.65,7.29,16,16.03,21.19
	c19.65,11.67,31.23,28.23,37.46,51.69c9.67,36.48,6.13,73.92,13.29,110.35c2.44,12.38,0.63,25.4-1.86,37.7
	c-3.47,17.11,3.99,29.99,13.31,42.58c3.53,4.76,9.83,10.29,4.3,15.23c-5.15,4.6-13.45,5.73-18.62-2.84
	C1657.15,725.83,1655.03,724.94,1653.46,723.72z"/>
<path d="M831.08,277.13c-1.03,13.61,0.41,26.31,10.05,37.18c3.97,4.48,5.29,10.71-0.23,14.72c-11.72,8.51-23.3,17.64-38.03,20.61
	c-4.74,0.96-10.12,1.38-13.17-3.12c-3.39-5.03,0.43-9.57,3.76-12.62c19.52-17.9,21.32-38.81,11.3-61.95
	c-8.06-18.62-1.3-35.07,6.92-51.56c7.34-14.71,6.17-17.43-8.78-23.93c-4.55-1.98-8.63-4.73-11.06-8.8
	c-5.72-9.59-14.12-11.46-24.37-10.65c-8.03,0.64-16.19,0.53-24.23-0.04c-21.26-1.5-35.06-19.98-30.9-40.9
	c2.14-10.78,6.93-20.29,15.03-27.65c10.59-9.62,22.61-15.09,37.3-9.96c15.32,5.36,26.07,15.03,28.87,31.65
	c1.34,7.96,1.62,16.09,2.64,24.1c0.46,3.6,1.33,7.19,2.41,10.66c0.68,2.19,2.5,3.81,4.97,3.64c3.17-0.22,4.3-2.6,4.36-5.39
	c0.53-23.56,6.86-46.56,6.74-70.16c-0.08-15.55,0.96-30.35,16.71-39.19c4.05-2.27,3.81-6.8,3.58-10.93
	c-0.5-8.81-0.83-17.63-1.54-26.42c-1.21-14.85,5.29-23.54,19.32-25.39c11.56-1.53,22.99,7.28,24.68,20.19
	c1.04,7.95,0.9,16.17,0.26,24.18c-0.67,8.44,2.49,12.92,10.55,15.27c17.97,5.25,27.07,18.11,29.05,36.26
	c2.07,18.92,7.41,36.84,16.95,53.2c12.22,20.98,5.57,42.1,1.76,63.3c-0.47,2.61-2.48,4.42-4.79,5.79
	c-12.79,7.6-18.8,20.28-24.23,33.2c-2.26,5.39-3.46,11.23-0.89,17.17c5.76,13.34,5.06,27.24,3.46,41.26
	c-1.64,14.31-1.64,28.32,3.02,42.46c6.42,19.49-5.16,30.78-25.33,26.07c-6.39-1.49-9.59-5.36-6.61-11.07
	c15.1-28.88,6.63-58.03-0.99-85.95c-5.54-20.29-3.33-37.3,6.15-54.84c2.09-3.87,7.3-8.81,3.43-12.6
	c-3.86-3.79-10.38-0.62-14.31,2.09c-17.82,12.28-31.36,28.94-42.15,47.32C829.3,260.24,831.48,269.44,831.08,277.13z M829.2,145.75
	c2.72,6.56-1.9,18.53,5.33,21.26c7.52,2.84,12.04-8.68,18.04-13.7c0.28-0.23,0.48-0.56,0.75-0.81c7.33-6.59,7.95-13.71,3.64-22.69
	c-4.42-9.21-13.4-15.84-14.74-26.73c-0.11-0.92-2.17-2.28-3.29-2.26c-2.81,0.06-3.01,2.72-3.55,4.79
	C832.02,118.46,831.02,131.65,829.2,145.75z"/>
<path d="M1275.02,196.7c-0.84,8.39-0.95,16.95-2.75,25.13c-1.51,6.89,0.43,11.79,4.82,16.51c18.45,19.81,17.99,43.06,9.85,66.29
	c-6,17.13-10.51,34.99-19.86,50.85c-2.05,3.48-0.9,6.43,0.76,9.49c3.04,5.65,5.58,11.63,9.14,16.92
	c18.93,28.11,22.03,61.11,29.04,92.9c2.57,11.66,7.47,22.14,13.16,32.63c9.92,18.3,16.02,38.66,30.71,54.35
	c4.18,4.46,2.34,8.16-3.77,8.99c-2.29,0.31-5.16,0.72-6.96-0.32c-15.29-8.89-29.8-19.41-36.64-36.13
	c-6.75-16.48-10.83-33.99-20-49.62c-5.85-9.98-8.99-21.12-8.69-32.92c0.26-9.97-3.12-18.52-9.69-25.89
	c-7.63-8.56-15.55-16.89-22.85-25.74c-3.85-4.66-6.78-2.8-10.17-0.1c-11.1,8.84-22.57,17.1-34.98,24.1
	c-8.21,4.63-15.78,4.8-23.77-0.19c-7.44-4.65-15.22-8.74-22.65-13.41c-25.7-16.16-54.29-23.03-83.96-26.6
	c-3.8-0.46-9.39,0.44-10.1-4.48c-0.76-5.26,4.76-6.92,8.74-8.33c9.81-3.47,20.45-4.32,29.8-9.43c2.92-1.59,6.14-0.3,8.69,1.28
	c13.78,8.55,29.39,11.68,44.8,15.27c10.21,2.37,19.21,6.37,25.41,15.19c4.28,6.09,8.42,5.68,12.74,0.09
	c10.99-14.22,25.31-26.26,26.9-46.27c0.68-8.56,6.59-15.35,12.37-21.65c22.33-24.35,14.09-57.9-17.42-69.63
	c-16.46-6.12-32.67-12.71-48.64-20.01c-8.31-3.8-14.72-8.89-19.27-16.97c-5.13-9.1-11.63-17.4-16.05-26.95
	c-4.13-8.92-5.39-18.04-2.22-27.53c1.18-3.55,2.97-6.42,7.29-4.53c3.59,1.57,4.91,4.24,3.03,8.21c-2.07,4.36-6.63,9.94,4.44,7.9
	c3.29-0.6,3.54,4.8,1.85,7.32c-4.12,6.17-1.62,10.91,2.46,15.43c20.47,22.69,45.98,33.64,76.51,32.23
	c9.79-0.45,12.37-4.74,7.46-13.21c-6.81-11.74-11.58-23.44-8.37-37.43c2.18-9.51,7.8-14.42,17.01-16.31
	c3.4-0.7,10.24,2.13,9.19-4.16c-1.02-6.1-3.29-13.61-11.51-14.94c-2.91-0.47-6.08,0.78-9.04,0.44c-2.8-0.33-8.68,1.98-5.24-5.64
	c1.75-3.86-3.23-2.74-5.4-3.13c-3.01-0.54-6.51-0.48-7.89-3.6c-1.73-3.9,1.99-6.29,3.98-8.62c6.1-7.14,14.63-7.15,21.9-0.98
	c13.5,11.45,24.05,25.5,35.01,39.2C1272.18,172.68,1275.95,183.89,1275.02,196.7z"/>
<g>
	<path d="M1637.56,959.03c-10,9.92-23.93,8.86-35.7,13.87c-4.32,1.84-8.97,3.6-13.42,1.85c-15.81-6.21-28.61-16.69-39.06-29.89
		c-4.11-5.2-1.79-10.01,3.37-13.55c6.29-4.32,12.6-8.73,20.16-2.57c3.09,2.52,4.91,5.96,6.43,9.63c4.73,11.42,12.19,13.82,22.07,6.2
		c8.12-6.26,15.36-13.67,23.03-20.52c9.16-8.17,18.74-15.28,32.1-14.11c4.35,0.38,7.55-2.05,5.24-6.46
		c-4.26-8.11-2.68-16.65-3.21-25.06c-0.09-1.42-0.15-2.84-0.14-4.26c0.04-5.23-8.03-9.05-2.28-15.39
		c6.95-7.67,15.45-12.75,25.43-14.4c9.96-1.65,19.88,0.24,29.05,4.58c14.08,6.67,18.85,16.92,15.3,32.1
		c-0.89,3.8-1.9,7.58-3.15,11.28c-2.85,8.43-0.87,13.65,6.95,19.51c25.36,19.01,47.2,41.61,65.42,67.9
		c15.19,21.91,34.91,40.09,53.38,59.25c3.87,4.02,8.11,3.37,12.72,1.59c10.76-4.16,20.89-2.11,30.61,3.43
		c3.88,2.21,6.58,5.36,7.78,9.7c1.41,5.07-0.4,8.09-5.72,6.68c-8.28-2.19-15.98-0.26-24,1.37c-9.01,1.83-17.74-0.4-25.3-5.66
		c-21.22-14.78-44.07-27.36-62.36-46.13c-4.16-4.27-9.68-5.67-15.32-6.78c-6.25-1.23-13.19-1.31-18.58-4.21
		c-14.72-7.92-24.98-0.67-34.87,8.62c-8.02,7.53-16.32,14.93-23.26,23.4c-12.15,14.82-28.88,24.06-43.89,34.69
		c-17.17,12.16-38.22,18.88-60.45,10.75c-4.13-1.51-8.39-0.92-12.61-0.05c-12.35,2.56-24.74,1.13-37.1,0.13
		c-3.59-0.29-7.38-1.18-8.96-4.83c-5.18-12.01-17.51-13.05-25.2-9.51c-22.99,10.59-45.18,4.95-67.83,1.41
		c-3.83-0.6-8.01-1.51-11.62-0.61c-21.02,5.21-34.85-7.92-49.52-18.9c-3.42-2.56-6.19-5.89-7.37-10.19
		c-1.44-5.24-0.44-10.02,3.71-13.57c4.24-3.62,8.82-2.2,12.72,0.69c8.27,6.11,16.43,12.4,24.39,18.91c3.77,3.08,7.6,4.67,12.56,4.61
		c28.91-0.32,56.96-5.93,84.76-13.23c5.87-1.54,4.64-5.82,2.85-9.27c-5.26-10.11-0.55-14.67,8.52-18.34
		c29.74-12.04,60.01-21.67,92.38-23.16C1622.69,979.81,1629.04,975.34,1637.56,959.03z"/>
	<path d="M1414.76,959.16c-0.13,16.17-14.57,30.52-30.7,30.51c-17.12,0-32.33-15.17-31.9-31.83c0.41-16.28,15.28-30.44,32.09-30.58
		C1400.4,927.13,1414.9,942.28,1414.76,959.16z"/>
</g>
</svg>
