<?xml version="1.0" encoding="utf-8"?>
<!-- Generator: Adobe Illustrator 27.8.1, SVG Export Plug-In . SVG Version: 6.00 Build 0)  -->
<svg version="1.1" id="Layer_1" xmlns="http://www.w3.org/2000/svg" xmlns:xlink="http://www.w3.org/1999/xlink" x="0px" y="0px"
	 viewBox="0 0 1920 1080" style="enable-background:new 0 0 1920 1080;" xml:space="preserve">
<g>
	<path d="M1541.38,115.54c-21.15,13.01-37.38-1.25-46.8-13.62c-7.64-10.03-12.13-25.83-15.61-39.76
		c-2.26-9.06,5.33-15.89,10.45-22.27c12.07-15.04,45.76-21.19,62.18-10.18c13.11,8.79,24.46,8.67,37.72,1.66
		c8.94-4.73,18.75-8.17,29.37-6.1c6.35,1.24,13.9,2.85,16.25,8.66c4.4,10.9-8.16,16.37-10.97,25.54c-1.77,5.78-9.12,4.28-14.54,1.63
		c-7.21-3.53-14.48-6.97-21.87-10.1c-3.71-1.57-7.91-1.25-10.57,1.91c-2.41,2.87,1.3,5.3,1.98,8c1.1,4.33,5.25,7.81,3,13.14
		c-1.57,3.71,1.51,6.16,4.4,6.14c8.88-0.09,16.46,5.06,25.89,4.26c19.17-1.61,27.13,14.14,36.64,27.04
		c19.16,25.99,36.11,53.71,45.12,84.46c5.52,18.83,11.54,35.81,26.47,50.14c-10.52,4.11-10.77,9.8-5.08,18.34
		c4.31,6.46,3.02,14.19,2.46,22.47c-2.91,43.07-5.57,86.42,27.47,122.11c21.16,22.86,41.57,46.42,57.17,73.98
		c6.62,11.7,18.22,20.77,28.29,30.24c4.03,3.79,7.84,7.62,11.27,11.91c9.03,11.29,8.39,19.58-3.3,27.59
		c-11.33,7.76-24.5,9.67-37.75,7.46c-10.65-1.77-13.29-9.18-6.24-16.46c7.77-8.02,2.27-14.12-2.1-20.03
		c-13.16-17.8-31.3-30.64-46.74-46.14c-28.25-28.36-56.48-56.87-78.72-90.49c-2.03-3.07-3.4-6.85-4.1-10.49
		c-3.4-17.67-11.98-20.03-30.15-20.57c-40.18-1.2-60.58,31.6-90.42,47.91c-3.74,2.05-4.24,6.12-4.22,10.07
		c0.1,20.49-1.52,40.49-13.25,58.4c-9.69,14.81-7.52,31.8-7.07,48.15c0.35,12.36-3.65,17.76-16.71,17.39
		c-20.76-0.58-41.57,0.12-62.35,0.48c-6.9,0.12-13.52-0.9-19.95-3.25c-5.32-1.94-11.03-4.34-10.83-10.88
		c0.22-7.12,5.82-9.55,12.25-10.54c16.55-2.54,31.52-9.45,46.46-16.65c6.46-3.12,10.27-7.86,10.9-14.48
		c1.69-17.6,8.7-34.67,5.9-52.67c-5.93-38.19,15.08-66.56,35.43-94.52c11.85-16.28,23.97-32.51,37.76-47.56
		c7.86-8.57,9.47-22.99,13.43-34.93c1.08-3.26-0.86-6.44-3.35-9.13c-6.59-7.13-12.5-14.97-19.58-21.56
		c-4.02-3.74-9.02-7.67-15.86-3.56c-5.67,3.41-11.55,0.91-16.92-1.93c-5.26-2.79-10.49-3.69-15.5,0.25
		c-26.54,20.84-56.68,16.17-86.63,12.11c-9.21-1.25-18.23-3.86-27.41-5.4c-7.98-1.34-17.04-5.41-20.99,6.75
		c-0.81,2.49-3.88,3.64-6.46,3.07c-10.31-2.31-21.72-2.92-30.47-8.02c-8.2-4.78-16.36-6.14-24.97-7.77
		c-17.12-3.24-31.86-10.12-43.05-24.47c-6.26-8.02-3.91-12.6,2.61-17.89c15.32-12.42,44.18-11.64,60.82,5.55
		c13.43,13.88,28.6,16.75,45.72,16.75c27.97,0,55.99,1.49,83.85-2.33c2.92-0.4,6.25-0.17,8.63-1.55
		c6.42-3.72,16.82-7.36,15.03-14.84c-1.42-5.92-11.04,0.03-17.03,0.18c-7.97,0.19-15.76,3.67-23.92,1.04
		c-8.59-2.77-11.18-10.07-4.84-16.28c8.17-8,19.88-10.89,27.52-20.8c3.76-4.88,14.18-2.01,21.49,1.68
		c15.46,7.82,23.66,6.51,34.65-6.53C1521.39,129.07,1533.22,125.47,1541.38,115.54z"/>
	<path d="M1606.54,1058.52c-11-0.62-22.01-1.03-32.98-1.95c-7.64-0.64-11.73-4.28-9.09-12.74c3.08-9.88-0.24-16.33-9.33-22.04
		c-10.7-6.72-18.9-16.36-25.27-27.84c-13.34-24.05-35.11-42.13-48.24-66.46c-2.8-5.2-6.04-10.16-9.12-15.2
		c-1.58-2.59-3.46-5.42-6.92-4.28c-2.72,0.89-2.77,3.96-3.02,6.52c-1.01,10.57-4.05,20.41-7.79,30.45
		c-6.62,17.81-19.48,28.49-35.56,35.94c-28.81,13.35-57.74,26.42-88.98,33.62c-17.05,3.93-29.07,16.83-42.21,27.38
		c-5.95,4.78-11.65,9.79-18.74,12.87c-8.2,3.55-15.29,3.32-21.62-4.3c-6.27-7.55-7.98-14.64-1.41-22.75
		c14.96-18.46,28.49-37.69,53.86-44.72c13.03-3.6,24.75-12.74,36.34-20.47c10.9-7.27,21.11-15.25,33.58-20.17
		c13.83-5.46,13.49-13.28,10.32-26.88c-6.06-25.98-20.71-47.79-30.21-71.98c-4.94-12.57-4.53-25.81-2.43-38.95
		c1.06-6.66,0.31-12.41-4.83-17.48c-7.32-7.22-6.64-18.41-11.43-26.31c-13.25-21.87-19.97-46.03-28.02-69.78
		c-2.37-7-2.73-13.85,3.04-20.21c4.34-4.79,4.52-9.46-0.77-15.42c-9.92-11.19-11.95-51.22-4.45-60.91
		c12.75-16.48,42.92-22.37,61.58-11.32c11.27,6.67,21.71,14.74,32.76,21.81c5.78,3.7,4.04,5.61-1.05,7.16
		c-3.16,0.96-5.66,2.44-5.19,6.06c0.53,4.05,3.7,5.73,7.34,5.67c14.2-0.21,27.71,3.85,41.1,7.44
		c46.46,12.48,93.47,23.43,137.02,44.79c4.37,2.14,8.65,3.13,13.4,3.12c5.08-0.01,11.02-1.37,15.11,0.72
		c20.13,10.33,38.06,0.52,56.11-5.49c68.73-22.88,136.3-49.16,205.65-70.24c2.43-0.74,4.93-1.21,7.37-1.9
		c9.1-2.56,13.76,2.87,16.34,10.09c2.65,7.42-2.84,10.68-8.69,13.05c-24.45,9.91-50.17,15.58-75.6,22.03
		c-50.48,12.81-101.86,22.07-151.37,38.7c-10.05,3.37-18.96,8.8-28.29,13.58c-23.46,12-47.76,25.4-75.45,10.56
		c-4.39-2.35-9.04-0.79-13.64,0.28c-21.79,5.05-42.64,14.51-65.65,13.86c-5.11-0.14-6.81,2.94-5.52,7.55
		c1.36,4.86,2.44,9.99,4.84,14.34c4.34,7.87,4.6,14.57-3.42,19.86c-8.24,5.43-5.24,10.5,0.41,15.09
		c23.96,19.47,46.07,40.54,64.02,65.98c6.72,9.52,10.28,20.3,15.61,30.29c19.43,36.44,37.04,73.84,55.97,110.55
		c8.87,17.21,19.72,33.34,31.41,48.83c2.03,2.7,4.03,5.46,5.7,8.39c4.57,8.03,3.33,12.89-7.12,12.71
		c-8.48-0.15-16.97-0.03-25.46-0.03C1606.56,1058.16,1606.55,1058.34,1606.54,1058.52z M1513.46,686.02
		c-24.8-2.61-50.93-22.53-73.04,5.41C1464.55,689.65,1489.01,687.83,1513.46,686.02z"/>
	<path d="M135.59,639.85c-1.16-7.87-1.5-15.91-12.79-9.26c-4.46,2.63-6.18-2.37-6.31-6.63c-0.33-10.87,8.77-22.27,20.03-24.53
		c13.43-2.7,27.07-1.44,40.62-1.74c9.75-0.22,19.54,0.06,29.24-0.74c10.46-0.86,19.64-2.13,25.29-14.66
		c6.18-13.69,25.99-18.37,42.83-13.85c18.92,5.08,26.43,12.6,27.35,31.39c0.48,9.78,4.59,13.07,12.87,16.9
		c52.46,24.29,101.3,54.53,145.02,92.57c13.05,11.35,21.5,25.96,25.8,42.74c2.92,11.39-11.86,38.18-26.22,43.23
		c-27.21,9.57-51.63,25.49-79.4,33.56c-2.27,0.66-4.39,1.85-9.3,3.96c33.11,10.3,59.12,28.63,86.77,43.94
		c8.98,4.97,20.03,1.1,30.11,0.2c12.66-1.13,25.29-2.54,37.96-3.47c3.73-0.27,8.24,0.02,10.02,4.03c1.81,4.07-1.32,6.85-3.98,9.82
		c-18.87,21.07-42.72,35.84-65.69,51.58c-57.4,39.33-117.77,74.08-181.08,102.4c-60.96,27.27-126.83,32.65-193.23,27.69
		c-11.44-0.85-23.92,0.94-34.4-8.22c19.2-17.85,42.45-28.45,65.01-39.73c53.08-26.53,107.28-50.62,163.56-69.75
		c15.3-5.2,16.17-5.76,11.02-24.7c-3.55-13.04-6.8-26.11-9.67-39.3c-0.53-2.45-0.53-5.54-3.64-5.95c-3.11-0.42-3.96,2.64-5.17,4.79
		c-1.03,1.85-1.84,3.82-2.87,5.68c-1.83,3.32-3.65,8.15-7.95,6.93c-5.65-1.61,0.99-6.58-1.91-9.94c-2.63,4.26-5.03,8.86-8.13,12.95
		c-2.72,3.6-6.65,5.73-11.09,2.83c-4.63-3.03-3.37-7.57-1.35-11.31c1.79-3.31,4.65-6.04,4.89-11.05
		c-9.06,0.93-8.36,12.2-16.11,14.93c-3.75-6.32,2.49-10.23,3.17-15.12c1.09-7.8,7.51-14.24,5.9-23.02
		c-0.99-5.41,4.08-5.59,7.45-6.81c12.5-4.56,22.58-11.26,25.4-25.62c1.22-6.22,7.5-8.93,11.22-13.44
		c21.55-26.2,31.24-55.53,23.52-89.53c-1-4.41-2.6-8.05-5.97-10.82c-17.63-14.51-27.64-34.53-39.47-53.37
		c-10.35-16.48-21.54-31.86-44.66-32.62c-15.08-0.5-30.13-4.43-44.99-7.74c-11.67-2.6-20.8-1.3-26.81,10.33
		c-2.28,4.42-5.84,8.18-8.82,12.24C138.3,641.03,136.94,640.44,135.59,639.85z M425.54,896.65c-30.53-14.65-58.24-25.01-86.13-34.94
		c-4.28-1.52-7.67-1.58-7.65,4.37c0.08,20.37,0.16,40.73,0.26,61.1c0.02,4.7,2.34,5.98,6.6,4.28
		C366.42,920.32,394.21,909.2,425.54,896.65z M393.59,753.55c-4.38-6.46-9.86-8.26-14.75-10.49c-26.2-11.98-25.6-11.87-27.77,13.16
		c-0.18,2.1-0.78,4.16-1.08,6.26c-1.01,7.04,0.45,11.09,8.66,7.24C370.09,764.35,381.57,759.11,393.59,753.55z"/>
	<path d="M291.53,391.6c-16.89,5.93-25.55,20.83-38.32,30.85c-20.07,15.74-25.42,40.14-37.62,60.47
		c-6.07,10.11-9.94,21.21-12.48,32.97c-3.25,15.01-12.59,19.65-26.31,14.94c-16.52-5.68-23-16.53-17.49-30.03
		c8.06-19.74,22.54-35.52,34.15-53c7.77-11.71,14.92-23.53,19.74-36.46c5.28-14.17,11.31-27.29,24.02-36.36
		c2.36-1.68,5.26-3.92,4.06-7.22c-1.27-3.48-5.01-2.51-7.85-2.55c-9.76-0.12-19.52-0.08-29.27-0.05c-8.07,0.03-9.18-3-5.81-10.21
		c9.08-19.47,20.17-38.5,17.11-61.41c-1.23-9.24-1.99-18.56-3.46-27.76c-1.58-9.82-1.77-19.42,1.86-28.84
		c1.57-4.07,2.29-8.28,0.7-12.42c-1.32-3.45-1.88-8.31-6.33-8.74c-5.02-0.49-5.39,4.61-6.56,7.99
		c-7.13,20.58-20.51,31.59-43.21,32.38c-18.63,0.65-18.58,1.9-15.88,20.92c2.92,20.56-3.81,32.91-22.86,41.88
		c-23.63,11.14-54.33,6.55-70.39-8.48c-16.42-15.37-12.86-33.6-7.96-50.85c3.95-13.87,18.4-17.42,31.34-20.74
		c17-4.36,34.58-2.05,51.8-4.97c27.32-4.63,46.6-16.79,55.18-45.07c3.78-12.47,7.71-24.86,11-37.52
		c6.3-24.27,26.48-35.39,47.06-44.37c9.81-4.28,17.25-5.48,13.13-19.32c-2.38-8,0.01-17.64,1.18-26.41
		c1.35-10.1,8.41-16.67,16.97-20.78c5.98-2.87,12.9-4.52,19.55-5.17c29.7-2.91,46.78,15.45,42.3,44.9
		c-2.68,17.61-2.61,17.4,14.17,23.1c12.31,4.18,24.52,7.78,34.91,17.09c15.57,13.95,12.63,33.15,17.24,50.17
		c1.4,5.18-0.09,11.08,0.79,16.47c2.9,17.7-2.34,32.1-15.44,44.33c-6.5,6.08-7.92,14.72-7.86,23.5c0.22,31.82,0.45,63.64,0.49,95.47
		c0.03,17.91-2.39,20.54-19.86,22.05c-6.52,0.56-11.52,2.85-13.6,9.43c-9.42,29.76-26.18,54.41-49.65,75.12
		c-9.75,8.6-15.43,19.61-7.05,33.87c3.97,6.75,6.43,14.51,10.99,21.26c8.33,12.33,4.39,20.19-10.21,20.69
		c-7.16,0.25-14.45,0.09-21.51-1c-7.86-1.21-13.3-5.83-12.97-14.63c0.25-6.83-3.65-10.45-8.49-14.47
		c-13.06-10.86-14.98-16.61-4.37-29.67c18.22-22.41,30.3-48.65,47.48-71.6C288.18,398.4,289.69,394.87,291.53,391.6z"/>
	<path d="M705.13,84.95c-6.36,0-12.73-0.01-19.09,0c-17.55,0.02-17.62,0.01-20.25,17.79c-1.37,9.23-2.25,18.62-7.29,26.77
		c-10,16.15-25.96,17.64-42.54,16.27c-14.99-1.24-22.74-11.61-28.03-24.45c-2.73-6.63-5.85-13.11-8.28-19.84
		c-1.75-4.87-5.53-5.73-9.76-6.85c-15.06-3.98-30.47-0.73-45.59-2.51c-7.13-0.84-19.62,1.55-19.59-6.21
		c0.04-9.86,12.52-6.41,19.72-7.02c12.66-1.07,25.43-0.78,38.16-0.88c10.22-0.08,16.1-5.18,16.74-15.2
		c0.42-6.59,3.96-12.05,5.23-18.02c5.18-24.3,22.95-28.44,49.74-24.13c17.64,2.84,23.56,19.8,28.24,34.55
		c6.6,20.83,5.67,21.4,27.46,20.82c24.53-0.65,49.23,0.92,73.42-5.27c5.7-1.46,11.57-1.3,17.35,1.54
		c6.16,3.02,13.08,3.23,19.93,3.22c41.58-0.05,83.16,0.02,124.74-0.06c9.33-0.02,18.64-0.28,26.74-6.19
		c5.1-3.73,10.94-1.71,15.99-0.19c27.37,8.28,55.44,6.06,83.38,6.56c8.55,0.15,12.34-2.37,12.18-11.49
		c-0.26-15.02,8.11-27.42,14.56-40.1c3.61-7.1,11.41-9.6,19.69-9.17c27.66,1.44,38.56,11.12,43.12,38.49
		c2.41,14.5,7.44,18.96,22.3,19.52c5.08,0.19,10.18,0.05,15.27,0.07c11.45,0.06,22.92-0.17,34.36,0.31
		c5.98,0.25,15.06-1.15,15.07,7.44c0.01,8.1-8.89,6.09-14.28,6.29c-15.26,0.56-30.54,0.27-45.81,0.55
		c-20.14,0.37-25.2,4.57-28.78,23.91c-6.26,33.81-31.79,36.37-57.05,29.07c-10.53-3.04-10.6-16.43-15.91-24.8
		c-0.64-1-0.52-2.47-0.82-3.71c-6.44-26.97-6.44-26.96-34.16-27.11c-11.03-0.06-22.08,0.2-33.09-0.32
		c-12.51-0.6-19.24,5.96-21.38,17.2c-4.67,24.55-10.79,48.59-20.87,71.54c-1.34,3.05-2.24,6.59-2.22,9.9
		c0.23,36.89-17.06,68.53-30.87,101.01c-9.13,21.46-9.84,43.11-4,64.47c9.03,33.09,29.38,61.54,41.15,93.61
		c2.03,5.53,3.94,5.23,9.14,3.98c16.86-4.05,53.96,12.42,62.68,27.02c6.39,10.7,7.32,22.72,5.48,34.42
		c-1.9,12.09-12.77,11.88-22.07,12.3c-8.92,0.4-13.95-3.54-15.21-13.14c-3.11-23.63-5.44-26.97-28.84-24.44
		c-32.63,3.53-52.68-13.73-70.2-36.94c-8.25-10.93-19.36-18.85-28.65-28.67c-5.49-5.8-12.12-6.25-19.63-2.18
		c-17.04,9.22-33.28,20.32-53.3,22.94c-6.32,0.83-9.26,6.41-8.39,12.43c2.02,14.06-0.25,27.96-0.61,41.92
		c-0.34,13.19,0.31,25.72,7.83,37.8c4.54,7.29,9.65,18.2,0.81,25.72c-11.79,10.02-25.84,17.39-42.09,11.88
		c-8.59-2.91-6.42-11.26-2.58-16.02c18.44-22.83,10.88-44.87,2.05-69.04c-10.33-28.28-10.35-80.79,26.01-104.45
		c9.1-5.92,16.34-14.7,24.49-22.1c5.99-5.45,6.65-13.18,6.34-20.01c-1.45-31.88-10.29-62.32-19.92-92.51
		c-5.25-16.46-13.11-32.18-15.49-49.46c-2.29-16.6-7.5-32.08-15.74-46.52c-7.07-12.39-9.75-26.06-12.95-39.65
		c-5.27-22.33-5.85-22.7-28.74-22.71C715.31,84.95,710.22,84.95,705.13,84.95z M828.23,204.13c-1.06-10.23-1.85-18.58-2.81-26.91
		c-2.32-20.07,12.56-39.3,31.12-40.15c21.03-0.96,40.85,18.41,40.41,38.73c-0.19,9.07-5.06,15.96-8.49,23.6
		c-1.66,3.71-1.94,7.41,0.66,10.8c2.08,2.72,5.22,3.55,7.89,1.68c4.78-3.35,10.94-5.58,13.48-11.15
		c14.69-32.13,29.82-64.12,40.46-97.88c4.62-14.67,1.4-18.03-14.32-18.03c-47.03-0.02-94.06,0.14-141.09,0.06
		c-6.1-0.01-11.61,1.61-17.25,3.53c-7.17,2.44-8.85,6.25-5.4,13.2c15.5,31.21,30.65,62.6,46.23,93.77
		C820.66,198.46,824.32,200.47,828.23,204.13z"/>
	<path d="M1033.66,943.42c-3.7,3.43-6.77,7.61-11.21,9.57c-9,3.99-6.46,4.14-3.04,18.81c1.12,4.81-4.29,7.51-8.48,7.75
		c-8.17,0.47-14.07,3.94-19.76,9.66c-3.83,3.84-9.97,5.99-15.09,1.7c-4.86-4.07-3.01-8.65,0.17-13.48c4.45-6.76-1.73-6.75-5.49-6.54
		c-15.22,0.82-30.45,1.78-45.61,3.35c-19.38,2-38.67,4.84-58.04,6.86c-6.07,0.63-10.94,1.46-11.46,8.83
		c-0.22,3.23-2.33,5.93-4.92,7.06c-9.79,4.28-19.76,7.91-28.45,14.6c-2.99,2.3-8.56,1.4-11.31-2.79c-2.95-4.49-0.6-7.97,3.12-10.82
		c2.18-1.67,6.37-2.62,4.25-6.39c-1.92-3.42-6.05-2.72-9.32-2.16c-17.51,3.04-34.67,2.66-51.07-4.97c-3.23-1.5-8.24-2.09-7.7-7.14
		c0.51-4.87,5.32-4.71,8.86-5.66c12.09-3.25,24.44-2.11,36.72-2.02c18.62,0.15,35.54-13.18,35.08-32.05
		c-0.69-28.19,1.17-56.7-5.64-84.59c-1.39-5.68-0.93-11.8-1.4-17.71c-0.19-2.43,0.67-5.61-2.32-6.67c-2.82-1-4.54,1.83-6.32,3.4
		c-7.43,6.52-12.6,14.7-16.63,23.66c-2.6,5.79-4.88,11.81-10.16,15.9c-3.14,2.43-5.24,8.35-10.09,5.69c-3.09-1.7-2.07-3.33-0.7-5.14
		c1.65-2.18-1.52-4.84-3.3-2.76c-2.72,3.19-2.87,7.58-2.92,12.1c-0.03,2.7,1.65,6.45-2.53,7.47c-4.1,1.01-6.36-2.02-7.66-5.23
		c-3.74-9.23-5.04-19.28,3.75-25.66c32.91-23.86,50.74-60.63,77.57-89.7c8.57-9.28,6.93-23.94,6.24-36.68
		c-0.07-1.35-1.76-3.61-2.9-3.75c-13.4-1.62-24.41-11.01-37.9-11.86c-11.29-0.71-23.12-14.79-21.11-26
		c3.56-19.83,24.54-38.44,48.64-43.12c13.5-2.62,38.55,10.63,46.13,26.13c3.48,7.11,8.39,6.26,13.54,5.98
		c25.86-1.41,51.59-2.24,76.97,4.78c32.85,9.08,64.7,21.29,93.32,39.38c22.5,14.22,34.39,36.82,32.46,64.82
		c-0.3,4.36-1.07,8.84-5.03,11.16c-14.14,8.29-25.88,20.72-42.56,24.69c-3.86,0.92-7.82,3.02-7.84,7.31
		c-0.1,18.63-5.77,38.25,10.92,53.87c4.28,4.01-1.81,19.39-10.92,34.57 M886.79,926.94c-0.01,0.16-0.04,0.31-0.09,0.46
		c-3.01,9.86,7.02,17.77,8.53,28.09c0.54,3.69,4.39,3.17,7.41,2.78c23.91-3.07,47.8-6.31,71.75-9.1c9.07-1.06,12.46-6.17,12.42-14.5
		c-0.07-12.07-2.78-22.49-11.2-32.52c-16.17-19.28-28.15-42-47.86-58.48c-1.82-1.52-3.91-4.22-3.82-6.3
		c0.69-17.52-11.25-14.47-21.62-13.35c-6.28,0.68-12.41,3.1-18.69,3.5c-7.75,0.49-10.19,4.17-10,11.39
		c0.36,13.13,0.43,26.28,0.32,39.41c-0.1,11.52-0.44,22.71,9.5,31.47C887.68,913.53,887.23,919.75,886.79,926.94z M1012.81,876.89
		c1.11,1.43,3.37,0.92,3.8-0.84c1.73-7.09,0.93-12.77,0.92-18.35c-0.06-27.7-0.15-27.75-27.31-24.4c-0.47,0.06-0.95,0.08-1.43,0.09
		c-6.59,0.09-7.22,3.17-3.65,7.83C993.99,852.76,1002.95,864.21,1012.81,876.89z M938.32,763.64c2.15-0.54,2.19-3.58,0.05-4.17
		c-7.04-1.94-13.87-3.93-20.14-7.74c-1.66-1.01-5.01-2.01-5.8-1.22c-8.02,7.98-18.17,13.36-26.92,20.52
		c-1.77,1.45-0.32,4.29,1.89,3.74C904.38,770.54,921.5,767.88,938.32,763.64z"/>
</g>
</svg>
