<?xml version="1.0" encoding="utf-8"?>
<!-- Generator: Adobe Illustrator 27.8.1, SVG Export Plug-In . SVG Version: 6.00 Build 0)  -->
<svg version="1.1" id="Layer_1" xmlns="http://www.w3.org/2000/svg" xmlns:xlink="http://www.w3.org/1999/xlink" x="0px" y="0px"
	 viewBox="0 0 1920 1080" style="enable-background:new 0 0 1920 1080;" xml:space="preserve">
<path d="M916.87,0.68c1.23,1.12,2.85,1.27,4.34,1.74c3.62,1.13,6.95,2.7,9.13,5.97c1.06,1.59,2.57,1.56,4.16,1.56
	c16.42,0.02,32.83,0.07,49.25,0.1c9.89,0.01,19.79-0.07,29.68,0.02c4,0.04,7.78-0.7,11.55-1.98c4.25-1.44,8.57-2.77,12.93-3.82
	c9.99-2.42,17.64,3.92,17.44,14.27c-0.05,2.38-0.51,4.7-1.13,6.98c-4.77,17.48-12.36,33.5-24.42,47.22
	c-5.23,5.95-11.2,11.05-17.71,15.51c-3.07,2.11-5.9,4.49-8.55,7.1c-0.55,0.54-1.3,1.08-0.86,1.99c0.46,0.95,1.37,0.59,2.1,0.49
	c2.67-0.35,5.33-0.8,8.01-1.11c2.16-0.25,2.93,0.6,2.56,2.71c-0.38,2.15-1.67,3.66-3.53,4.69c-2.18,1.21-4.51,2.07-6.97,2.46
	c-4.11,0.65-7.17-1.13-9.56-4.38c-1.67-2.27-1.84-2.27-3.62-0.18c-4.91,5.76-7.9,12.21-7.4,20.02c0.24,3.7,0.06,7.42,0.1,11.13
	c0.02,2.02,0.02,4.05,0.16,6.07c0.57,7.87,4.22,11.84,11.97,13.12c3.11,0.51,6.23,0.76,9.4,0.75c4.45-0.02,5.73,1,7.11,5.14
	c0.38,1.15,0.74,2.34,2.2,3.14c1.6-4.49,1.31-9.2,2.89-13.59c1.61,0.23,2.01,1.52,2.59,2.49c3.47,5.81,5.27,12.15,5.57,18.89
	c0.12,2.58,0.03,5.17-0.03,7.76c-0.1,3.72,0.07,7.39,0.65,11.09c1.02,6.55,1.67,13.15,2.19,19.77c0.63,7.99,3.26,15.36,7.1,22.33
	c3.59,6.52,8.03,12.48,12.32,18.53c16.87,23.77,32.33,48.45,47.12,73.55c3.14,5.34,6.17,10.71,8.36,16.53
	c5.49,14.56,5.59,29.2,0.95,43.97c-1.18,3.75-2.51,7.44-3.18,11.35c-1.37,7.92,0.11,15.21,4.45,21.92c1.86,2.88,3.39,5.81,3.19,9.4
	c-0.14,2.54-0.73,4.95-2.03,7.06c-5.28,8.55-7.87,18.1-10.66,27.6c-1.52,5.18-3,10.36-4.29,15.61c-0.53,2.17-1.21,4.37-2.23,6.35
	c-4.39,8.5-6.51,17.69-8.48,26.94c-0.87,4.07-1.79,8.13-2.79,12.16c-0.49,1.96-1,3.96-1.88,5.76c-3.72,7.57-5.49,15.67-6.77,23.92
	c-1.09,7-2.48,13.92-4.52,20.74c-3.32,11.14-4.94,22.6-5.75,34.19c-0.94,13.35-1.42,26.71-2.09,40.07
	c-0.51,10.21-1.13,20.42-1.76,30.63c-0.28,4.52,0.03,9,0.68,13.45c0.6,4.15,0.55,8.3,0.54,12.45c0,1.69,0.01,3.37,0.04,5.06
	c0.07,3.35,0.99,6.41,3.06,9.11c4.93,6.43,6.46,13.71,5.32,21.65c-0.79,5.53-0.04,11.01,0.67,16.46
	c2.33,17.83,4.75,35.65,7.23,53.47c1.61,11.58,3.15,23.17,4.35,34.8c0.56,5.47,0.81,10.98,1.02,16.49
	c0.35,9.21,0.8,18.42,2.71,27.48c1.37,6.52,3.83,12.7,5.68,19.07c2.46,8.47,3.63,17.13,4.41,25.88c1.23,13.88,1.68,27.83,3.98,41.61
	c1.6,9.54,3.74,18.97,5.69,28.44c1.19,5.78,1.2,5.74-4.51,6.18c-4.7,0.36-9.4,0.83-14.1,1.27c-2.17,0.2-2.31,0.36-1.43,2.5
	c2.41,5.85,4.3,11.85,5.22,18.11c1.23,8.35,1.83,16.73,1.26,25.2c-0.57,8.52-0.71,17.07-1.03,25.61c-17.54,0-35.09,0-52.63,0
	c-0.09-0.55-0.13-1.12-0.28-1.66c-4.47-16.02-8.91-32.05-13.47-48.05c-1.38-4.85-6.03-7.57-11.01-6.76
	c-0.99,0.16-1.96,0.49-2.95,0.7c-4.35,0.94-6.57-0.39-7.8-4.68c-0.22-0.75-0.33-1.54-0.46-2.31c-2.34-14.46-2.9-29.06-3.24-43.66
	c-0.22-9.35-1.12-18.62-2.53-27.84c-2.22-14.57-5.44-28.93-8.84-43.26c-2.52-10.6-4.69-21.3-7.75-31.77
	c-0.38-1.31-0.38-2.86-1.67-3.91c-1.52,1.51-2.15,3.12-1.75,5.03c1.13,5.33,0.38,10.51-1.18,15.63c-1.74,5.7-3,11.41-3.41,17.45
	c-1.09,16.04-1.82,32.08-2.28,48.14c-0.22,7.52-0.2,15.05-0.6,22.58c-0.6,11.14-1.84,22.16-4.23,33.06
	c-0.58,2.63-1.15,5.28-2.19,7.78c-1.23,2.96-2.5,3.73-5.7,3.67c-1.12-0.02-2.25-0.09-3.37-0.05c-2.13,0.07-3.63,1.18-4.42,3.1
	c-0.51,1.24-0.87,2.56-1.09,3.88c-0.74,4.32-1.4,8.65-2.07,12.98c-2.08,13.32-4.15,26.64-6.23,39.96c-18.67,0-37.34,0-56.01,0
	c-0.18-3.61,0.44-7.18,0.78-10.75c1.55-16.01,3.07-32.01,2.5-48.13c-0.02-0.56-0.01-1.13-0.04-1.69c-0.25-5.46-2.73-8.17-8.24-8.8
	c-3.91-0.45-7.84-0.66-11.74-1.14c-2.71-0.34-3-0.81-2.66-3.55c1.82-14.74,2.75-29.55,3.58-44.36c0.36-6.51,0.19-13.05,0.21-19.57
	c0.04-10.8-0.15-21.59,0.62-32.38c0.39-5.41,1.45-10.71,2.93-15.9c3.01-10.56,4.04-21.42,5.13-32.26c0.97-9.73,1.8-19.48,2.55-29.23
	c0.61-7.96,1.04-15.93,1.51-23.9c0.91-15.26,1.8-30.52,2.7-45.78c0.04-0.67,0.05-1.37,0.23-2.01c1.71-6.13,0.75-12.28,0.18-18.43
	c-0.33-3.58-0.67-7.16-0.92-10.75c-0.31-4.3,0.77-8.3,3.13-11.86c4.13-6.22,5.94-12.96,5.59-20.44c-0.25-5.27-0.48-10.57,0.31-15.83
	c0.5-3.36,1.36-6.61,2.98-9.62c1.23-2.28,1.39-4.63,1.05-7.19c-1.44-10.92-2.67-21.86-3.15-32.88c-0.38-8.54-1.98-16.96-3.31-25.4
	c-1.84-11.66-3.74-23.31-6.64-34.77c-3.6-14.29-9.31-27.69-16.85-40.33c-1.73-2.9-3.45-5.8-5.07-8.76
	c-3.53-6.46-6.09-13.27-7.23-20.59c-0.7-4.48-2.24-8.7-4.17-12.79c-1.92-4.07-3.84-8.14-5.84-12.16c-2.79-5.6-4.34-11.56-5.28-17.71
	c-0.7-4.54-0.01-8.66,2.9-12.41c5.95-7.66,7.53-16.28,5.81-25.8c-2.71-14.94-4.05-30.07-5.59-45.17c-0.42-4.14-0.89-8.27-1.44-12.39
	c-0.28-2.11-0.68-4.22-1.56-6.2c-4.24-9.5-3.7-19.03-0.15-28.57c3.84-10.3,9.44-19.65,15.65-28.65c7.94-11.5,17.04-22.07,26-32.75
	c11.65-13.87,22.85-28.09,33.93-42.41c2.59-3.35,2.68-6.52,0.82-9.99c-2.04-3.81-3.56-7.77-3.91-12.11
	c-0.64-8.11,1.25-15.67,5.39-22.58c2.85-4.75,7.28-5.73,12.26-3.28c2.04,1,3.75,2.46,5.53,3.84c1.83,1.42,2.32,1.19,2.6-1.2
	c0.46-3.91,0.89-7.82,1.33-11.73c0.48-4.24,0.95-8.49,1.44-12.73c0.32-2.82,0.62-3.18,3.46-3.64c4.55-0.74,9.11-1.4,13.65-2.14
	c1.1-0.18,2.19-0.5,3.26-0.83c3.02-0.92,5.23-2.84,5.91-5.93c2.07-9.35,3.56-18.81,2.51-28.42c-0.39-3.6-2.22-6.82-3.78-10.07
	c-0.62-1.29-1.55-1.48-2.77-1.14c-2.06,0.58-4.12,1.14-6.18,1.71c-2.06,0.57-4.15,0.99-6.28,1.22c-2.62,0.28-4.92-0.37-6.87-2.12
	c-1.51-1.35-2.92-2.81-4.36-4.22c-0.96-0.94-1.47-1.92-0.65-3.28c0.85-1.4,2.02-1.17,3.26-0.87c1.85,0.46,3.66,1.12,5.59,1.19
	c2.85,0.11,3.4-0.67,2.51-3.39c-0.63-1.91-2.24-2.75-3.81-3.61c-8.73-4.78-15.89-11.35-21.92-19.2c-3.5-4.56-6.51-9.44-9.17-14.54
	c-6.41-12.31-12.1-24.89-14.59-38.67c-0.38-2.1-0.91-4.18-0.69-6.35c0.47-4.6,2.32-8.41,6.21-11.1c0.64-0.44,1.19-1.02,1.77-1.53
	C907.42,0.68,912.14,0.68,916.87,0.68z M969.1,220.18c-2.59,0-5.17-0.02-7.76,0c-3.52,0.03-3.55,0.04-3.85,3.45
	c-0.49,5.49-2.82,9.88-7.52,12.91c-1.13,0.73-2.28,1.45-3.43,2.15c-3.26,2.01-6.28,4.34-9.1,6.95c-5.29,4.89-9.19,10.73-12.4,17.11
	c-7.9,15.67-16.11,31.17-24.62,46.52c-6,10.82-12.04,21.61-18.15,32.37c-4.09,7.18-5.18,14.53-1.82,22.28
	c0.54,1.24,1,2.51,1.47,3.77c2.87,7.69,5.74,15.38,8.59,23.08c0.6,1.61,1.16,3.2,3.14,3.6c3.18,0.65,4.68,2.85,5.35,5.82
	c1.41,6.27,3.71,12.26,5.56,18.4c3.16,10.47,8.22,20.21,11.84,30.49c2.18,6.19,6.23,10.56,11.26,14.31c2.55,1.9,5.26,3.35,8.52,3.79
	c2.7,0.37,5.08,1.75,7.33,3.29c0.65,0.44,1.28,0.92,1.94,1.35c0.48,0.32,1.08,0.56,1.54,0.1c0.69-0.68,0.08-1.26-0.37-1.71
	c-3.04-2.98-5.47-6.6-9.26-8.8c-1.19-0.69-2.07-1.71-2.81-2.86c-5.23-8.14-10.45-16.28-15.3-24.65c-1.78-3.08-2.65-6.35-2.55-9.98
	c0.36-12.73,1.43-25.36,4.19-37.82c2.35-10.63,5.78-20.81,12.64-29.51c4.93-6.26,11.1-10.76,18.69-13.3
	c2.61-0.87,5.08-0.95,7.36,0.82c1.76,1.37,3.66,1.56,5.73,0.9c5.24-1.66,10.44-1.28,15.58,0.42c3.63,1.2,7.19,2.61,10.83,3.75
	c1.88,0.59,3.03,1.7,3.93,3.38c2.27,4.27,4.6,8.51,7,12.71c5.75,10.1,8.91,20.82,8.31,32.55c-0.23,4.38-0.09,8.77-0.04,13.16
	c0.08,8.01-1.71,15.55-5.05,22.85c-3.68,8.02-5.99,16.49-6.44,25.36c-0.18,3.54-0.4,6.97-2.8,9.84c-0.37,0.43-0.66,0.98-0.14,1.49
	c0.47,0.46,1.05,0.25,1.58,0.07c1.52-0.54,2.7-1.6,3.9-2.61c2.71-2.27,5.77-3.4,9.34-3.08c1.34,0.12,2.7,0.11,4.04,0.01
	c2.71-0.2,4.92-1.31,6.53-3.62c1.67-2.4,3.52-4.67,5.23-7.04c2.07-2.87,3.4-6.01,3.8-9.6c0.75-6.65,2.26-13.17,6.06-18.77
	c4.46-6.57,7.77-13.67,10.62-21.02c1.87-4.83,3.7-9.74,6.66-13.99c4.16-5.98,6.23-12.63,7.71-19.62c0.61-2.89,0.47-5.56-0.59-8.25
	c-0.66-1.67-1.28-3.37-2-5.01c-5.89-13.39-10.96-27.1-15.87-40.87c-6.99-19.59-14.04-39.17-20.98-58.78
	c-2.18-6.17-5.52-11.5-10.2-16.08c-4.91-4.81-10.35-9-15.5-13.52c-1.33-1.17-2.93-2.12-4.55-2.88
	C984.93,222.42,977.67,218.59,969.1,220.18z M1004.53,83.01c1.21,0.16,1.89-0.69,2.64-1.26c7.5-5.7,13.82-12.48,18.74-20.55
	c6.04-9.89,9.86-20.66,12.67-31.82c1.05-4.17,1.23-8.45,0.96-12.73c-0.16-2.5-1.25-3.88-3.08-4.3c-4.62-1.06-8.26,1.84-8.18,6.51
	c0.01,0.56-0.03,1.13,0.03,1.68c0.27,2.45-0.9,4.06-2.91,5.24c-1.64,0.96-2.02,0.9-2.78-0.85c-0.63-1.44-0.99-3-1.99-4.26
	c-2.26-2.85-5.72-2.54-7.39,0.67c-0.68,1.31-1.12,2.71-0.74,4.22c0.44,1.74,0.81,3.51,1.36,5.21c4.2,12.9,3.55,25.44-2.66,37.6
	c-1.94,3.8-3.79,7.65-5.64,11.5C1005.14,80.85,1004.39,81.76,1004.53,83.01z M944.84,84.04c-0.25-2.15-0.97-3.31-1.52-4.52
	c-2.74-6.03-5.63-12-7.96-18.21c-3.61-9.64-4.39-19.43-1.47-29.4c0.69-2.37,1.16-4.8,1.01-7.31c-0.11-1.9-0.93-3.44-2.14-4.82
	c-0.78-0.89-1.65-1.13-2.66-0.41c-1.28,0.91-2.54,1.85-3.83,2.75c-0.78,0.55-1.44,1.75-2.55,1.12c-1-0.56-0.72-1.8-0.75-2.78
	c-0.05-1.8-0.03-3.59-0.05-5.39c-0.01-1.17-0.35-2.18-1.22-3.03c-2.58-2.51-7.4-2.56-9.73,0.16c-2.37,2.77-3.55,6.1-2.43,9.7
	c4.4,14.05,9.32,27.9,15.34,41.35C928.97,72.36,936.46,78.15,944.84,84.04z"/>
<path d="M44.48,224.77c3.38-2.38,5.34-5.64,6.19-9.67c0.35-1.64,0.91-3.25,1.5-4.83c0.59-1.56,1.14-1.67,2.5-0.68
	c1.32,0.96,2.31,2.42,4.14,2.95c0.71-1.4,0.27-2.77,0.42-4.06c0.34-3,2.07-4.36,5.07-3.94c1.98,0.28,3.61,1.23,4.95,2.67
	c1.29,1.39,2.52,2.84,3.98,4.49c1.24-1.81,0.83-3.18,0.62-4.4c-1.57-8.93-1.33-17.93-1.03-26.92c0.09-2.68,0.24-5.39,2.54-7.42
	c1.94-1.71,2.47-1.76,4.05,0.15c1.03,1.25,1.6,2.67,1.74,4.3c0.3,3.58,0.79,7.15,1,10.74c0.39,6.84,2.4,13.27,4.92,19.55
	c3.65,9.11,6.24,18.54,8.68,28.02c1.53,5.94,1.68,11.94,1.16,18.07c-0.98,11.67,0.56,23.13,4.18,34.27
	c3.93,12.1,9.03,23.75,14.09,35.41c7.7,17.75,15.44,35.47,22.42,53.52c1.79,4.62,3.25,9.35,4.52,14.13
	c1.84,6.93,5.75,12.38,11.62,16.44c1.57,1.09,3.15,2.19,4.82,3.09c7.86,4.25,14.22,10.18,19.6,17.25
	c5.39,7.08,10.54,14.31,15.21,21.88c4.04,6.54,9.5,11.32,16.51,14.39c3.94,1.72,7.01,4.44,9.25,8.09c1.06,1.72,2.05,3.49,3.02,5.27
	c3.95,7.23,9.98,11.06,18.27,11.18c4.17,0.06,8.31-0.25,12.45-0.7c1.93-0.21,2.82-1.05,3.11-2.85c0.65-4.02,0.79-7.87-2.77-10.83
	c-2.17-1.79-2.7-4.4-2.94-6.98c-1.89-19.78-1.02-39.36,5.15-58.4c4.45-13.72,10.24-26.89,17.39-39.45c2.2-3.87,5.11-6.79,8.99-8.84
	c0.8-0.42,1.6-0.82,2.37-1.29c7.9-4.78,15.94-4.64,24.61-1.83c10.89,3.54,20.08,9.34,28.03,17.46c9.09,9.29,14.72,27.78,7.36,42.65
	c-2.39,4.82-3.73,9.97-3.35,15.33c0.75,10.75-3.7,19.18-11.09,26.45c-5.77,5.67-10.34,12.13-13.22,19.75
	c-3.46,9.15-3.48,18.45-1.45,27.89c0.48,2.21,2.01,3.41,3.57,4.71c13.08,10.89,26.99,20.59,41.7,29.16
	c4.96,2.89,9.71,6.09,13.46,10.58c4.5,5.39,7.14,11.66,8.94,18.35c2.37,8.81,3.5,17.87,5.19,26.82c3.4,18.01,6.7,36.04,10.03,54.06
	c0.18,0.99,0.25,2.02,0.51,2.99c1.01,3.76,1.33,7.4-0.27,11.17c-1.11,2.62-0.83,5.53-0.28,8.33c0.59,2.99,1.38,5.93,2.57,8.73
	c1.91,4.53,2.76,9.29,2.96,14.13c0.47,11.24,1.51,22.43,2.32,33.64c1.03,14.13,1.81,28.26,2.12,42.44
	c0.18,7.98,0.35,15.97,0.28,23.95c-0.24,27.98-3.13,55.65-9.52,82.93c-1.82,7.77-3.38,15.61-4.91,23.44
	c-1.31,6.7-4.94,11.72-10.57,15.4c-1.98,1.29-3.96,2.62-5.59,4.33c-3.85,4.01-8.8,6.17-13.7,8.43c-1.47,0.68-2.73,0.72-3.96-0.58
	c-1.21-1.26-0.73-2.42-0.14-3.7c1.28-2.75,2.49-5.54,3.78-8.29c1.72-3.7,4-7,6.84-9.96c5.23-5.46,9.29-11.68,10.28-19.34
	c1.06-8.14,0.67-16.2-3.31-23.66c-2.26-4.24-2.66-4.24-5.59-0.66c-2.42,2.96-4.76,5.99-7.18,8.94c-2.28,2.78-4.48,3.5-7.4,2.53
	c-2.67-0.89-3.77-3.29-2.64-5.9c0.35-0.82,0.87-1.58,1.4-2.3c5.15-7.11,10.36-14.17,16.58-20.4c0.16-0.16,0.3-0.33,0.47-0.48
	c8.76-7.81,10.83-17.77,9.16-28.88c-2.27-15.13-5.57-30.07-8.86-45c-1.91-8.67-4.32-17.24-5.77-26.01c-1.39-8.45-2.05-16.96-2-25.53
	c0.04-6.64,0.08-13.27,0.11-19.91c0-1.01,0-2.03-0.06-3.04c-0.08-1.3-0.83-1.83-2.05-1.47c-2.26,0.67-4.51,1.4-6.74,2.16
	c-1.17,0.4-2.3,0.88-3.56,0.97c-3.04,0.21-4.93-0.86-6.13-3.68c-0.48-1.13-0.8-2.34-1.08-3.54c-3.36-14.13-5.79-28.42-7.46-42.84
	c-0.22-1.9-0.46-3.79-0.71-5.69c-0.09-0.65-0.1-1.37-0.88-1.64c-0.69-0.02-0.98,0.5-1.31,0.94c-5.91,7.65-11.94,15.22-17.69,22.99
	c-6.09,8.22-10.65,17.23-12.29,27.46c-1.25,7.74-0.99,15.46,0.88,23.1c3.54,14.43,5.93,29.08,8.36,43.72
	c0.48,2.86,0.5,5.73-0.86,8.25c-3.08,5.71-2.51,11.68-1.91,17.74c0.91,9.17,1.71,18.36,2.47,27.54c0.87,10.42,1.66,20.84,2.45,31.26
	c0.31,4.15,0.57,8.3,0.8,12.45c0.75,13.24,1.45,26.49,2.23,39.73c0.87,14.7,1.73,29.4,2.72,44.09c1.3,19.4,2.96,38.78,5.14,58.11
	c0.77,6.81,1.39,13.64,2.02,20.47c0.18,2.01,0.19,4.05,0.18,6.07c-0.01,2.89-0.34,3.2-3.32,3.41c-1.23,0.09-2.47,0.12-3.71,0.12
	c-1.72-0.01-2.44,0.86-2.37,2.52c0.03,0.9,0,1.8,0,2.7c0,13.61,0.01,27.22-0.01,40.84c0,1.46-0.12,2.92-0.19,4.37
	c-20.92,0-41.84,0-62.75,0c1.03-7.73,0.96-15.49,0.38-23.23c-0.42-5.62-1.85-11.08-3.91-16.34c-0.85-2.16-1.97-4.19-4.39-4.75
	c-3.79-0.88-5.01-3.41-4.98-6.95c0.07-7.44-0.73-14.82-1.58-22.18c-2.4-20.76-5.17-41.47-7.47-62.25
	c-1.68-15.21-2.58-30.45-3.15-45.72c-0.2-5.39-0.46-10.78-0.68-16.17c-0.05-1.37-0.26-2.71-0.95-3.89
	c-1.37-2.34-3.93-2.42-5.41-0.19c-0.89,1.33-1.35,2.82-1.54,4.42c-1.09,9.26-2.2,18.52-3.3,27.78c-1.28,10.82-2.06,21.7-3.81,32.47
	c-1.18,7.24-1.47,14.51-0.43,21.83c0.52,3.66,0.79,7.37,0.88,11.09c0.23,10.19-1.01,20.19-3.64,30.02
	c-1.72,6.44-2.8,12.95-2.41,19.66c0.11,1.79,0.07,3.61-0.13,5.39c-0.57,4.84-2.93,7.62-7.66,8.65c-3.31,0.72-3.89,0.74-3.49,5.08
	c0.38,4.15,0.16,8.3,0.07,12.46c-0.18,7.66-1.48,15.21-1.78,22.85c-21.14,0-42.29,0-63.43,0c-0.37-10.9-1.52-21.75-2.28-32.63
	c-0.2-2.89-1.74-5.07-4.18-6.58c-2.7-1.67-5.58-2.84-8.76-3.34c-2.79-0.44-2.99-0.78-2.64-3.56c0.76-6.02,1.6-12.04,2.38-18.06
	c2.39-18.39,4.88-36.77,7.11-55.19c2.33-19.19,4.54-38.4,6.33-57.65c1.49-16,3.17-31.99,4.44-48.01c1.15-14.45,2.31-28.91,2.98-43.4
	c0.25-5.39,0.75-10.76,1.05-16.15c0.32-5.95,0.58-11.9,0.77-17.86c0.06-2.03-0.2-2.12-2.14-1.46c-2.89,0.98-3.59,0.63-4.85-2.15
	c-1.3-2.87-0.96-5.78-0.05-8.58c1.58-4.87,1.92-9.91,2.45-14.94c0.58-5.47,1.02-10.95,2.2-16.36c2.75-12.52,5.66-25,8.18-37.57
	c1.84-9.18,3.27-18.35,2.98-27.76c-0.27-8.67,0.75-17.29,1.8-25.88c1.85-15.07,5.07-29.93,6.67-45.03
	c0.96-9.06,1.39-18.17,1.01-27.28c-0.14-3.43-1.07-6.68-3.32-9.38c-1.73-2.08-2.49-4.45-2.78-7.1
	c-1.21-11.16-5.07-21.38-11.05-30.85c-4.39-6.94-10.09-12.91-14.33-19.97c-2.31-3.85-5.57-7-9.34-9.61c-2.91-2.01-3.4-3.74-2.32-7
	c1.27-3.83,2.33-7.73,3.98-11.46c2.8-6.32,3.4-12.99,2.27-19.82c-1.27-7.66-4.36-14.63-8.08-21.35c-3.6-6.49-7.27-12.94-10.85-19.45
	c-7.23-13.16-10.97-27.55-14.33-42.02c-6.84-29.47-13.98-58.86-21.01-88.28c-0.42-1.77-1.04-3.42-2.16-4.9
	c-5.68-7.53-9.65-15.95-12.84-24.77c-2.71-7.51-5.31-15.06-7.98-22.58c-0.41-1.16-0.71-2.39-1.77-3.19
	C44.48,227.92,44.48,226.35,44.48,224.77z"/>
<path d="M1566.86,1080.68c-0.17-1.79,0.82-3.24,1.42-4.79c2.17-5.55,4.65-10.98,6.39-16.69c2.4-7.9,3.38-16.05,4.19-24.22
	c0.38-3.8,0.5-7.64,1.03-11.42c0.33-2.35-0.36-4.17-1.74-5.92c-1.82-2.31-4.39-3.44-6.98-4.56c-5.01-2.16-5.96-4.01-4.5-9.19
	c1.44-5.11,1.56-10.44,2.69-15.61c8.04-36.92,13.94-74.26,21.62-111.25c2.47-11.9,5.85-23.57,8.89-35.33
	c1.28-4.94,1.82-9.95,1.84-15.02c0.09-17.89-0.07-35.78,0.31-53.66c0.25-12.02,0.86-24.04,1.64-36.04
	c0.72-11.1,1.15-22.23,1.67-33.35c0.48-10.25-1.48-20.16-4.46-29.89c-11.47-37.53-22.64-75.16-36.52-111.91
	c-1.08-2.86-1.67-5.76-1.76-8.86c-0.2-6.44-1.62-12.71-3.67-18.81c-1.98-5.86-4.09-11.67-6.2-17.49c-2.42-6.67-4.58-13.4-5.79-20.42
	c-0.98-5.7-3.15-11.02-5.71-16.17c-4.32-8.67-7.93-17.64-11.59-26.59c-2.67-6.54-3.62-13.38-4.15-20.39
	c-1.33-17.57,2.47-34.44,6.47-51.3c2.49-10.5,5.4-20.91,7.37-31.53c0.86-4.64,1.55-9.31,2.4-13.96c0.34-1.88,0.82-3.74,1.36-5.57
	c1.42-4.78,4.27-8.55,8.88-10.46c5.82-2.4,9.73-6.71,13.1-11.73c1-1.49,2.02-2.98,3-4.49c4.03-6.16,9.98-9.2,17.01-10.47
	c2.99-0.54,5.23,0.95,7.16,2.97c2.9,3.03,4.48,6.79,4.96,10.88c0.8,6.68-0.03,13.06-4.77,18.34c-0.9,1-1.23,2.1-1.1,3.4
	c0.09,0.9,0.19,1.79,0.22,2.69c0.19,5.18-1.86,8.54-6.61,10.69c-1.63,0.74-3.36,1.28-5.07,1.85c-2.77,0.91-4.1,2.69-4.33,5.7
	c-0.47,6.29-0.39,12.59-0.38,18.88c0.03,15.64-0.35,31.26-0.82,46.89c-0.11,3.71-0.12,7.41,0.54,11.1c1.26,6.96,4.2,13.13,9.1,18.13
	c5.34,5.46,9.47,11.69,13.09,18.33c3.24,5.93,6.8,11.65,10.78,17.11c3.18,4.36,6.15,8.86,8.89,13.53
	c5.66,9.64,14.67,14.21,25.23,16.33c1.15,0.23,2.15,0.15,2.16-1.27c0.03-3.31,0.37-6.65-0.2-9.92c-0.63-0.03-0.83,0.24-0.98,0.53
	c-0.58,1.06-0.93,2.45-2.56,2.24c-1.32-0.17-1.75-1.32-2.17-2.36c-2.9-7.16-7.13-13.49-11.91-19.51c-3.32-4.19-5.8-8.84-6.64-14.21
	c-0.47-3.02-0.28-6.07-0.16-9.1c0.25-5.95,0.57-11.89,1.74-17.77c0.88-4.44,2.79-8.28,5.77-11.64c3.21-3.62,6.4-7.25,9.62-10.86
	c3.28-3.68,7.06-6.6,12.02-7.66c0.66-0.14,1.28-0.27,1.82-0.76c5.84-5.24,12.81-8.62,19.75-12.08c4.61-2.3,9.04-1.85,13.63,0.11
	c6.16,2.63,10.47,7.24,14.21,12.56c1.23,1.75,2.42,3.52,3.73,5.21c1.97,2.53,4.47,3.89,7.82,3.91c4.63,0.04,6.61,1.75,6.32,6.34
	c-0.53,8.37,1.53,16.28,3.22,24.31c1.87,8.89,2.5,17.81,0.39,26.77c-0.65,2.74-1.53,5.41-2.59,8.02c-1.28,3.12-3.29,5.77-6.27,7.27
	c-3.66,1.84-5.1,4.99-5.8,8.59c-0.95,4.87-1.07,9.83-0.91,14.79c0.07,2.1,0.79,2.5,2.46,1.33c2.66-1.88,5.4-3.71,7.79-5.9
	c7.92-7.29,17.45-11,27.83-12.7c12.32-2.02,24.6-4.09,36.65-7.48c7.82-2.21,14.54-6.49,21.51-10.36c1.76-0.98,0.99-2.2,0.32-3.42
	c-3.52-6.4-7.04-12.81-10.56-19.22c-8.34-15.18-16.69-30.35-25.03-45.53c-1.73-3.16-1.72-3.26-5.11-2.74
	c-4.74,0.73-9.18-0.27-13.44-2.2c-5.97-2.7-11.14-6.77-16.74-10.09c-0.9-0.53-1.5-1.41-1.78-2.39c-0.8-2.86-2.28-5.65-1.14-8.77
	c0.36-0.98-0.43-1.4-1-1.91c-1.42-1.28-2.92-2.48-4.23-3.86c-3.11-3.26-3.23-6.02,0.42-8.5c7.81-5.32,14.87-11.64,22.87-16.7
	c0.19-0.12,0.38-0.24,0.58-0.35c4.29-2.4,6.77-2.11,10.31,1.28c3.5,3.35,6.47,7.18,9.69,10.79c4.64,5.2,9.26,10.42,13.87,15.65
	c1.24,1.41,2.5,2.22,4.63,2.08c4.13-0.28,7,2.1,9.02,5.48c2.6,4.36,5.67,8.37,8.91,12.26c7.91,9.51,15.85,19,22.98,29.13
	c8.55,12.13,17.14,24.25,25.7,36.38c2.71,3.84,4.5,8.03,4.78,12.78c0.03,0.55,0.27,1.08,0.41,1.62c0,2.7,0,5.4,0,8.1
	c-0.15,0.77-0.34,1.53-0.45,2.3c-1.67,11.37-6.64,20.66-16.75,26.72c-3.87,2.32-7.57,4.86-11.05,7.72
	c-5.56,4.58-10.74,9.57-15.94,14.54c-7.98,7.64-16.28,14.87-26.52,19.45c-1.44,0.64-2.64,1.7-3.81,2.77
	c-4.16,3.82-7,8.49-8.73,13.82c-2.57,7.92-4.67,15.97-6.36,24.12c-2.19,10.58-3.62,21.27-4.97,31.98
	c-1.74,13.83-3.49,27.65-5.17,41.48c-1.33,10.93-2.63,21.87-3.82,32.82c-0.61,5.58-1.41,11.15-1.53,16.78
	c-0.25,11.78,1.53,23.3,4.29,34.71c4.31,17.81,8.61,35.62,12.96,53.43c1.13,4.61,1.78,9.22,1.64,14c-0.3,9.81,0.87,19.53,2.4,29.2
	c1.78,11.21,3.82,22.38,5.66,33.58c1.89,11.54,2.93,23.19,4.23,34.81c1.68,14.97,3.44,29.92,5.17,44.88
	c1.9,16.41,3.6,32.84,5.91,49.21c0.73,5.18-0.69,7.49-5.59,9.27c-2.64,0.96-5.33,1.83-7.87,3.01c-5.75,2.66-7.43,5.95-6.41,12.2
	c0.23,1.44,0.59,2.87,1.03,4.26c1.3,4.19,2.64,8.36,4.02,12.52c2.47,7.47,4.98,14.93,7.48,22.39c-21.37,0-42.74,0-64.1,0
	c-0.51-5.48-1.01-10.97-1.55-16.45c-0.44-4.47-0.86-8.95-1.4-13.42c-0.49-4.09-1.85-5.12-5.74-4.77c-2.01,0.18-4.04,0.37-6.05,0.32
	c-3.68-0.09-5.52-1.63-6.45-5.23c-0.28-1.08-0.44-2.21-0.51-3.32c-0.85-13.01-1.47-26.03-2.58-39.03
	c-0.92-10.76-2.18-21.48-3.95-32.12c-2.23-13.42-4.63-26.81-7.01-40.21c-0.26-1.46,0.18-3.85-1.45-4.06
	c-1.61-0.21-1.92,2.2-2.55,3.56c-10.84,23.6-18.93,48.12-23.99,73.6c-1.36,6.83-2.36,13.74-3.58,20.6
	c-0.93,5.27-3.45,9.45-8.36,11.98c-3.32,1.71-6.13,4.16-9.09,6.4c-1.78,1.34-2.85,3.08-3.34,5.28c-1.23,5.49-2.67,10.92-3.85,16.42
	c-1.46,6.81-3.4,13.52-4.38,20.44C1606,1080.68,1586.43,1080.68,1566.86,1080.68z"/>
</svg>
