<?xml version="1.0" encoding="utf-8"?>
<!-- Generator: Adobe Illustrator 27.8.1, SVG Export Plug-In . SVG Version: 6.00 Build 0)  -->
<svg version="1.1" id="Layer_1" xmlns="http://www.w3.org/2000/svg" xmlns:xlink="http://www.w3.org/1999/xlink" x="0px" y="0px"
	 viewBox="0 0 14400 14400" style="enable-background:new 0 0 14400 14400;" xml:space="preserve">
<g>
	<path d="M7795.45,7740.23c-3.35-2.28-7.35-3.05-10.96-4.76c-2.54-1.2-4.94-2.61-7.23-4.16c-3.29-2.23-3.65-8.3-0.58-12.96
		c1.35-2.05,2.11-3.97,1.92-6.38c-0.12-1.52,0.53-2.86,1.44-4.03c2.76-3.57,4.95-7.47,6.4-11.74c1.52-4.49,4.69-7.04,9.25-7.69
		c2.32-0.33,2.95-1.5,3.23-3.57c1.66-12.07,1.36-24.2,1.43-36.33c0.02-3.08-0.65-6.32,1.81-9.01c0.76-0.83,0-2.09-0.2-3.15
		c-1.39-7.25-4.18-14.21-5.33-21.45c-1.45-9.1-1.2-18.33,1.35-27.37c0.92-3.26,1.4-6.64,1.94-9.99c1.21-7.5,4.62-14.24,7.27-21.24
		c1.77-4.68,0.79-7.83-3.18-10.76c-4.86-3.6-9.68-7.26-14.62-10.74c-2.65-1.86-3.19-1.31-3.95,1.83c-1.98,8.23-3.7,16.57-6.51,24.53
		c-2.37,6.72-7.54,11.84-13.35,15.91c-2.35,1.65-2.88,3.33-2.53,5.76c0.79,5.47,0.31,10.96-0.46,16.32
		c-2.48,17.44-12.56,27.61-30.23,31.17c-6.07,1.22-12.18,2.1-18.38,2.33c-7.15,0.26-13.65,3.2-20.34,5.26
		c-10.65,3.28-21.61,4.39-32.65,4.74c-8.61,0.27-17.23,0.09-25.84,0.15c-7.25,0.05-7.53,0.15-9.45,7.11
		c-1.39,5.05-5.59,5.83-9.83,6.96c1.47,1.9,3.77,3.55,2.3,6.05c-1.49,2.54-4.3,2.83-7.03,2.96c-1.57,0.07-3.54-1.61-4.62,0.46
		c-1.26,2.43-2.5,4.99-0.87,7.92c2.16,3.88,3.34,8.03,2.75,12.58c-1.64,12.64-10.51,17.08-21.9,15.38
		c-11.75-1.75-22.39-6.18-29.05-16.59c-5.09-7.96-8.36-16.49-3.62-26.23c2.45-5.02,2.15-10.59-1.5-15.13
		c-2.63-3.27-3.99-6.88-4.8-10.81c-1.28-6.24-1.47-12.57-0.36-18.81c1.95-11.02,10.7-18,21.31-20.17c1.9-0.39,3.22,0.75,4.41,2.01
		c1.24,1.33,2.37,2.9,4.35,3.07c5.23,0.46,10.17,2.19,15.25,3.28c2.73,0.59,5.58,0.51,6.96,3.67c0.44,1.02,1.67,0.86,2.63,0.71
		c8.63-1.35,16.85-3.91,25.14-6.81c12.91-4.51,24.2-13.31,38.33-14.51c3.5-0.3,6.98-0.78,10.47-1.23c0.98-0.13,2-0.56,2.27-1.58
		c0.41-1.52-0.96-1.37-1.82-1.59c-1.47-0.37-1.47-1.58-1.35-2.61c1.15-9.83-2.01-18.89-4.86-28.01c-2.99-9.58-6.08-19.11-7.83-29.06
		c-0.71-4.04-4.95-6.43-7.35-9.75c-0.92-1.27-1.97-2.45-2.62-3.88c-2.83-6.24-7.16-11.45-11.19-16.91
		c-3.28-4.46-6.04-9.42-7.62-14.78c-3.67-12.45-6.61-25.05-5.95-38.21c0.2-4.02,0.58-7.81,2.35-11.59
		c2.5-5.35,4.46-10.95,6.86-16.38c5.08-11.51,10.66-22.78,16.1-34.11c6.43-13.4,13.28-26.62,20.49-39.62
		c2.92-5.27,5.15-10.93,8.78-15.84c2.82-3.8,2.36-8.59,2.87-12.99c1.76-15.42,5.07-30.56,8.24-45.72c0.8-3.84,2.31-7.61,3.33-11.47
		c0.26-0.96,0.6-1.93,1.52-2.39c5.65-2.82,10.27-7.2,15.71-10.35c6.42-3.72,13.26-6.52,20.24-8.99c4.86-1.72,9.17-4.39,13.03-7.73
		c5-4.32,10.86-7.25,16.52-10.53c5.33-3.09,11.32-2.23,17.06-2.74c2.89-0.26,5.85,0.18,8.73-0.12c6.56-0.69,12.41,0.97,17.9,4.51
		c4.02,2.59,7.92,1.22,11.64-0.95c1.67-0.98,3.24-2.18,5.38-1.78c1.83,0.34,2.19-1.12,2.7-2.33c4.69-11.02,9.09-22.17,14.16-33
		c3.31-7.08,6.5-14.34,11.62-20.45c6.03-7.2,13.77-9.41,22.82-7.98c1.43,0.23,3.32,1.66,4.25-0.15c0.81-1.58-1.11-2.71-2.01-3.94
		c-0.2-0.28-0.31-0.62-0.6-1.22c2.26-0.17,3.99,0.96,5.46,1.9c5.29,3.36,11.19,3.89,17.12,3.95c5.01,0.05,9,1.52,11.77,5.82
		c0.66,1.02,1.48,2.19,2.79,2.13c6.6-0.31,10.49,4.46,15.01,7.96c3.82,2.96,7.47,6.15,11.1,9.34c3.83,3.36,6.6,7.19,4.6,12.71
		c-0.2,0.56-0.42,1.23-0.3,1.78c1.23,5.49,0.59,9.7-5.98,11.29c-2.52,0.61-3.93,3.05-3.56,6.06c0.22,1.8-0.75,3.06-2.09,4.34
		c-3.24,3.11-5.51,6.54-3.56,11.54c1.66,4.26,0.04,8.52-1.9,12.25c-3,5.78-6.36,11.39-10.45,16.54c-2.63,3.31-5.5,6.06-9.64,7.32
		c-1.14,0.34-2.23,0.97-3.23,1.63c-4.28,2.84-8.94,4.2-14.1,4.02c-2.78-0.1-5.58-0.07-8.31,0.73c-1.37,0.4-2.57,0.93-2.57,2.59
		c0,1.39,0.87,2.34,2.1,2.69c10.32,2.94,18.55,9.21,26.31,16.29c5.12,4.67,9.72,9.87,13.44,15.63c3.06,4.75,7.82,7.12,11.88,10.47
		c1.12,0.92,2.42,1.66,3.24,2.87c3.19,4.77,7.87,5.82,13.11,5.09c8.17-1.14,15.69-0.16,22.1,5.6c5.38,4.84,12.37,4.16,18.83,5.45
		c8.52,1.7,17.18,0.97,25.68,2.24c4.13,0.61,6.72-1.66,9.15-4.08c10.45-10.43,21.23-20.53,30.61-31.99c1.94-2.37,2.5-4.92,2.74-7.68
		c0.87-10.27,1.72-20.61,3.95-30.63c1.92-8.64,2.45-17.56,5.08-25.98c3.25-10.39,6.93-20.71,15.48-28.26
		c10.37-9.17,22.66-11.16,35.74-8.85c15.44,2.74,26.01,11.95,32.76,25.97c2.31,4.8,4.92,9.45,6.43,14.58
		c3.22,10.96,2.15,21.06-5.3,30.35c-9.89,12.34-23.51,18.19-37.8,23.27c-12.87,4.58-26.62,5.22-39.6,9.23
		c-2.43,0.75-4.84,1.58-7.3,2.23c-5.19,1.36-8.84,4.91-12.21,8.73c-7.12,8.07-14.05,16.31-21.14,24.41
		c-1.88,2.15-1.91,3.69,0.26,5.76c3.76,3.58,4.07,4.63-0.38,7.46c-5.34,3.41-6.95,8.1-7.73,13.69c-0.11,0.79-0.54,1.94-1.13,2.18
		c-5.63,2.31-10.08,8.04-17.15,6.17c-3.02-0.8-4.83,0.33-6.17,2.95c-1.38,2.71-3.19,5.12-5.28,7.35c-1.25,1.33-2.19,1.4-3.75,0.56
		c-3.86-2.07-5.81-5.71-8.08-9.15c-0.72-1.09-0.02-1.49,0.54-2.1c1.38-1.53,2.81-3.03,4.08-4.64c0.61-0.78,2-1.49,1.35-2.63
		c-0.56-0.98-1.95-0.81-3.04-0.78c-10.67,0.24-21.31,1.12-32,0.72c-7.54-0.28-14.88-1.03-22-4.06c-7.02-2.99-14.66-4.18-22.09-5.94
		c-2.41-0.57-4.48,0.9-6.58,1.7c-5.9,2.24-11.01,2-15.4-3.26c-1.9-2.28-4.84-3.09-7.86-3.28c-6.04-0.37-12.12-0.34-17.96-2.37
		c-2.37-0.83-3.96,0.37-4.79,2.65c-4.81,13.35-14.72,23.1-23.62,33.6c-4.86,5.73-8.85,11.97-11.14,19.35
		c-3.03,9.77-8.23,18.47-14.89,26.29c-2.43,2.85-4.51,6-7.39,8.46c-1.46,1.25-1.54,2.38,0.44,3.2c0.11,0.05,0.25,0.1,0.3,0.19
		c2.98,5.29,9.2,5.94,13.47,9.4c1.57,1.27,2.77,2.76,3.52,4.54c2.81,6.74,6.46,12.94,10.94,18.72c2.07,2.67,3.14,5.96,4.55,9.04
		c1.69,3.67,4.18,7.07,6.82,10.16c7.65,8.93,14.57,18.37,20.76,28.35c2.6,4.19,2.99,8.89,2.98,13.68c-0.02,5.83-0.22,11.6-1.5,17.35
		c-0.87,3.91-3.02,7.11-4.77,10.53c-2.67,5.21-3.9,10.67-3.58,16.5c0.11,1.94,0.04,3.88,0.12,5.82c0.57,14.04-1.84,27.72-4.86,41.34
		c-0.74,3.36-2.35,6.32-3.7,9.41c-5.16,11.85-6.43,24.4-6.71,37.16c-0.06,2.75,1.2,3.62,3.51,4.01c5.79,0.98,8,3.34,8.87,9.37
		c0.1,0.72,0.1,1.45,0.12,2.18c0.13,4.84,0.19,4.96,4.32,2.56c5.77-3.34,12.83-0.73,11.65,7.11c-0.34,2.26,0.24,4.64-0.89,6.79
		c-0.71,1.35,0.27,1.95,1.05,2.72c4.85,4.8,10.46,8.14,17.27,9.4c5.45,1.01,10.34,3.49,14.8,6.67c5.63,4.02,5.2,10.8-0.73,14.74
		c-4.21,2.8-8.89,4.4-13.84,5.24c-1.22,0.21-2.39,0.4-3.32,1.28c-10.68,0-21.36,0-32.04,0c-3.51-1.25-7.2-2.14-10.47-3.84
		c-3.98-2.07-7.9-2.14-11.92-0.88c-4.48,1.4-8.86,3.14-13.29,4.72C7809.53,7740.23,7802.49,7740.23,7795.45,7740.23z"/>
	<path d="M6240.23,7526.12c3.94-5.99,9.47-10.5,15.3-14.26c8.18-5.27,11.64-12.47,13.05-21.77c0.97-6.38,0.42-12.9,1.78-19.05
		c2.44-10.96,2.41-22.08,3.44-33.12c0.36-3.86,0.82-7.73,0.89-11.6c0.1-5.75,1.9-11.19,2.72-16.8c1.41-9.59,6.53-17.62,11.66-25.56
		c2.63-4.06,4.78-8.39,7.53-12.41c4.43-6.47,8.2-13.4,12.22-20.15c0.41-0.68,1.13-1.51,0.41-2.3c-0.67-0.72-1.61-0.28-2.4-0.02
		c-5.05,1.66-9.87,0.49-14.51-1.45c-3.78-1.58-4.11-3.41-1.61-6.62c1.98-2.54,4.07-4.61,7.76-4.62c2.92-0.01,4.18-2.61,3.18-5.98
		c-2.09-7.02-2.13-13.87-0.08-21.02c1.32-4.6,1.19-9.76-0.17-14.42c-1.73-5.96-0.59-11.24,2.36-16.31c0.84-1.45,1.3-2.8,1.26-4.42
		c-0.49-20.28,0.9-40.5,2.15-60.71c0.33-5.31,1.21-10.51,6.05-14.4c4.64-3.73,4.64-9.41,3.14-14.68c-0.77-2.69-0.85-4.64,1.22-6.53
		c1.34-1.22,1.67-2.79,1.82-4.58c0.58-6.92-1.01-12.46-6.05-18.04c-8.39-9.28-14.08-20.39-16.99-32.87
		c-1.42-6.07-2.98-11.97-2.15-18.21c1.34-9.98,5.97-18.28,13.27-25.1c1.3-1.22,2.21-2.56,2.75-4.19c0.88-2.68,0.25-4.66-2.5-5.94
		c-12.72-5.93-23.37-14.53-32.28-25.33c-4.13-5-4.35-18.16-0.41-24.36c4.77-7.51,10.3-14.35,17.41-19.77
		c8.04-6.12,16.99-9.3,27.18-7.43c5.15,0.95,6.65,3.66,4.94,8.67c-0.67,1.97,0.12,2.42,1.61,2.68c2.13,0.38,4.34,1.14,5.08,3.11
		c1.63,4.34,5.29,4.73,8.96,5.44c8.76,1.69,8.97,1.95,9.5,10.69c0.09,1.47,5.28,5.11,6.6,4.6c0.63-0.25,0.87-0.84,0.87-1.47
		c0.08-7.19,4.57-12.54,8.29-17.86c8.08-11.6,15.76-23.2,17.94-37.57c0.45-2.98,1.41-5.84,3-8.51c1.55-2.59,1.64-5.54,1.26-8.49
		c-1.76-13.88-1.84-27.77,3.22-40.94c5.44-14.2,7.22-29.38,12.58-43.55c1.17-3.09,0.75-6.51,2.18-9.53
		c0.34-0.72,0.06-1.43-0.37-2.06c-3.39-4.9-4.6-10.95-8.37-15.65c-0.98-1.22-2.26-2.58-1.41-4.22c0.98-1.9,2.8-0.86,4.25-0.57
		c1.57,0.31,2.34,0.48,2.18-1.76c-0.51-7.26-0.75-14.53-0.97-21.81c-0.06-1.99-0.84-3.2-2.34-4.56c-3.67-3.32-6.99-6.97-9.5-11.36
		c-4.64-8.09-6.45-16.61-4.96-25.83c1.67-10.25,6.76-18.72,14.6-25.18c15.27-12.58,32.77-15.07,51.34-9.15
		c10.79,3.44,19.28,10.13,25.31,20.05c5.69,9.36,7.31,19.18,4.77,29.62c-3.15,12.94-11.61,21.73-23.02,27.96
		c-7.38,4.03-15.41,5.73-23.69,6.39c-2.1,0.17-3.26,1.04-4.17,2.85c-1.64,3.23-3.08,6.57-5.33,9.49c-1.64,2.12-0.38,4.5,0.35,6.61
		c2.35,6.76,2.85,13.35-0.38,20.05c-1.37,2.85-1.41,6.14-1.37,9.29c0.12,9.1,0.31,18.2,0.59,27.29c0.45,14.94-0.59,29.83-1.55,44.71
		c-0.23,3.62-1.02,7.12-3.4,10.18c-1.51,1.94-1.65,4.53-1.5,6.99c0.48,8.02-0.42,15.6-5.13,22.58c-1.74,2.58-2.23,6.14-2.86,9.33
		c-1.34,6.84-4.05,13.17-6.7,19.53c-0.7,1.68-1.49,3.33-2.79,4.66c-3.64,3.72-5.04,8.17-4.33,13.31c1.68,12.19,1.45,24.45,1.25,36.7
		c-0.05,2.89,0.85,4.91,2.89,7.03c3.98,4.13,6.36,9.49,8.42,14.69c6.29,15.86,9.48,32.4,10.97,49.45
		c0.68,7.75,1.52,15.47,0.82,23.13c-0.99,10.83-2.9,21.57-4.42,32.34c-0.8,5.7-0.7,10.89,4.34,15.2c2.89,2.47,3.87,6.51,3.12,10.42
		c-1.85,9.56-0.52,19.1-0.15,28.65c0.53,13.59,0.58,27.18-0.06,40.76c-0.33,7.02-0.1,14.15-1.76,20.99
		c-2.69,11.14-4.29,22.57-8.63,33.3c-1.31,3.25-2,6.74-3.09,10.08c-0.74,2.27-1.82,4.31-3.23,6.37c-2.14,3.13-1.6,7.24-1.7,10.94
		c-0.27,10.55-0.15,21.11-0.37,31.67c-0.14,7.03,0,14.3-3.5,20.61c-2.74,4.94-4.3,10.24-6.47,15.35c-3.45,8.14-4.54,16.8-6.43,25.29
		c-2.46,11.06-4.35,22.25-8.02,33.02c-1.05,3.09-1.73,6.3,0.85,9.29c1.05,1.21,0.74,3.12,0.31,4.59c-1.51,5.1-2.91,10.29-7.17,14.02
		c-1.61,1.41-2.32,3.41-3,5.34c-3.31,9.39-5.64,18.99-6.35,28.96c-0.37,5.32-0.93,10.63-1.61,15.92c-0.57,4.42-2.73,8.29-5.24,11.84
		c-2.68,3.81-7.74,4.21-12.53,1.87c-4.58-2.24-7.71-6.01-10.36-9.98c-4-5.99-8.14-12.12-7.6-19.95c0.19-2.7,0.78-5.08,2.44-7.4
		c6.76-9.42,6.1-16.14-2.06-24.51c-4.93-5.06-5.81-16.82-1.44-22.42c2.23-2.87,5.59-4.16,9.07-4.95c4.25-0.97,8.5-2.06,12.8-2.68
		c2.84-0.41,4.01-1.83,4.33-4.42c0.75-6.14,1.45-12.28,1.53-18.47c0.04-3.18,0.98-6.01,1.96-9.04c2-6.21,2.17-12.79,0.64-19.34
		c-0.98-4.22-2.49-8.66-1.99-12.79c0.63-5.25,0.92-10.59,2.02-15.81c1.3-6.16,2.7-12.2,5.52-17.97c2.54-5.19,3.28-11.08,4.59-16.74
		c1.66-7.17-0.54-13.9-0.44-20.83c0.06-4.39-3.74-6.54-6.45-9.19c-1.12-1.09-1.88,0.18-2.67,0.91c-8.57,7.92-14.78,17.4-19.53,28.05
		c-1.89,4.25-4.91,8.06-7.79,11.78c-2.06,2.66-3.43,5.56-4.46,8.66c-1.91,5.73-3.74,11.5-5.46,17.29
		c-3.03,10.23-6.97,20.09-11.6,29.69c-0.79,1.63-1.31,3.39-1.84,5.13c-3.36,10.96-7.43,21.78-9.78,32.96
		c-1.6,7.61-2.33,15.77,0.93,23.54c1.39,3.32,0.68,6.95,0.4,10.45c-0.55,6.97-2.94,13.65-2.64,20.8c0.37,8.89,3.57,16.65,7.77,24.21
		c2.12,3.83,4.6,7.36,7.37,10.76c2.96,3.63,1.82,6.33-2.78,7.26c-9.2,1.87-18.11,0.75-26.58-3.31c-6.13-2.94-11.91-6.41-16.92-11.14
		c-3.1-2.93-5.04-6.22-4.89-10.49c0.12-3.63-0.83-6.84-3.72-9.04c-5.44-4.13-9.21-9.88-14.28-14.35
		C6240.23,7530.49,6240.23,7528.31,6240.23,7526.12z"/>
	<path d="M7581.26,7098.6c11.19-1.71,22.94,0.39,33.42-6.26c3.57-2.27,8.03-3.58,12.57-2.08c5.39,1.79,6.82,7.52,2.72,11.46
		c-9.59,9.23-20.32,16.75-32.71,21.84c-5.85,2.4-11.18,5.72-15.8,10.14c-7.5,7.18-22.97,8.5-31.23,2.63
		c-4.21-2.99-5.13-7.89-6.09-12.42c-1.07-5.02-2.9-9.33-6.4-13.15c-3.1-3.38-5.67-7.22-8.52-10.84c-6.8-8.65-13.37-17.5-20.55-25.82
		c-3.84-4.45-8.67-8.06-13.2-11.87c-4.05-3.41-6.93-7.82-9.88-12.02c-3.73-5.31-7.42-10.74-10.02-16.82
		c-2.19-5.11-4.89-9.99-5.72-15.59c-0.24-1.63-1.51-2.24-2.81-3.02c-4.94-2.97-10.47-4.23-15.82-6.09c-8-2.78-15.76-6.23-23.58-9.5
		c-16.1-6.73-32.53-12.61-48.86-18.74c-16-6-31.92-12.21-47.45-19.35c-8.02-3.69-14.91-2.35-21.87,2.96
		c-10.19,7.78-20.97,14.77-31.26,22.42c-9.61,7.14-18.89,14.72-28.33,22.09c-6.58,5.14-13.17,10.27-19.76,15.39
		c-1.78,1.38-3.86,2.05-6.1,2.06c-2.5,0.01-4.24,1.11-4.99,3.45c-1.36,4.21-4.14,6.43-8.58,6.37c-7.87-0.12-12.6,5.17-17.06,10.36
		c-8.8,10.23-19.5,18.1-30.65,25.37c-12.87,8.38-26.76,15.15-39.19,24.25c-3.64,2.66-7.66,5.12-9.44,9.75
		c-0.8,2.07-2.71,3.37-4.33,4.82c-1.95,1.76-4.23,3.26-3.94,6.49c0.1,1.14-1.1,1.75-2.01,2.4c-3.68,2.62-6.91,5.45-8.33,10.14
		c-1.14,3.77-3.97,4.97-7.81,4.07c-8.54-1.99-16.55-5.46-24.47-9.16c-1.68-0.79-3.15-2-4.15-3.47c-1.26-1.85-2.15-4.19,0.5-5.64
		c6.37-3.48,12.88-6.7,18.78-11c1.23-0.9,2.88-1.42,4.4-1.65c2.8-0.42,4.46-1.4,5.68-4.38c1.4-3.42,5.47-4.64,8.56-6.4
		c6.11-3.48,11.28-8.05,15.54-13.43c7.3-9.2,14.58-18.42,22.78-26.81c14.23-14.56,29.3-28.14,47.38-37.96
		c4.25-2.31,8.21-5.15,12.42-7.55c1.57-0.9,1.36-1.98,1.22-3.36c-0.49-4.83,0.51-6.4,5.17-7.6c2.07-0.53,3.56-1.59,4.43-3.41
		c1.25-2.62,3.33-4.05,6-4.87c4.83-1.49,7.9-5.18,10.36-9.2c2.52-4.11,4.46-8.56,6.82-12.79c5.72-10.26,11.42-20.49,19.24-29.35
		c1.73-1.96,1.97-4.64,3.6-6.69c3.04-3.84,5.73-7.92,9.91-10.78c2.1-1.44,2.79-4.06,2.33-6.54c-0.76-4.16,0.13-7.64,3.14-10.65
		c1.54-1.54,2.12-3.28,0.06-4.97c-1.62-1.34-1.38-2.69-0.41-4.46c2.46-4.47,4.63-8.85,10.05-10.83c4.11-1.5,6.82-5.33,9.95-8.34
		c1.39-1.34,2.35-3.25,2.16-5.26c-0.83-8.91,4.88-14.86,9.41-21.37c5.15-7.39,9.4-15.1,10.44-24.36c0.67-5.97,0.07-11.86,0.04-17.78
		c-0.01-2.28-0.64-3-3.01-2.25c-21.84,6.87-44.39,7.55-66.97,7c-7.45-0.18-14.16-4.07-20.79-7.3
		c-15.31-7.47-28.85-17.69-42.48-27.76c-1.41-1.04-1.55-2.34-1.56-3.82c-0.02-1.82,0.17-3.77-0.97-5.28
		c-2.86-3.78-2.73-8.07-2.72-12.49c0.01-6.18-0.36-12.36-0.65-18.54c-0.26-5.53,1.8-9.38,7.39-10.97c1.14-0.32,2.29-0.9,3.2-1.64
		c3.08-2.53,4.7-2.34,6,1.29c0.92,2.58,1.52,4.88,4.86,5.48c1.72,0.31,2.2,2.16,0.69,3.73c-0.5,0.52-1.15,0.92-1.57,1.49
		c-0.61,0.84-0.7,1.88-0.14,2.74c0.63,0.96,1.5,0.31,2.29,0.08c1.51-0.44,3.02-0.89,4.55-1.23c1.29-0.29,2.45,0.04,3.12,1.28
		c0.72,1.34,0.05,2.41-1,3.14c-1.43,0.99-2.62,1.71-1.73,3.96c0.49,1.24-1.13,2.19-2.41,2.76c-6.13,2.7-5.38,5.42-0.37,9.04
		c9.71,7.01,20.59,11.76,32.02,15.22c6.93,2.1,13.55,5.42,21.03,5.4c12.36-0.04,24.69,0.29,35.9-6.6c3.63-2.24,8.17-2.96,12.2-4.6
		c14.81-6.01,30.07-10.78,45.06-16.29c3.4-1.25,7.05-1.77,10.5-2.91c3.85-1.28,7.31,0.38,11.49,1.02c-6.01-3.6-2.57-8.18-1.98-12.42
		c0.56-3.96,1.15-7.91,1.76-11.86c0.73-4.72,2.51-6.58,7.09-7.15c1.66-0.2,2.75-0.97,3.35-2.39c1.84-4.32,5.29-7.5,7.96-11.22
		c2.01-2.81,4.96-4.37,8.38-4.52c10.92-0.48,21.7-2.29,32.55-3.37c13.44-1.35,23.67,5.03,28.73,17.77
		c5.32,13.38,3.51,26.09-3.08,38.47c-1.14,2.14-3.22,4.5-2.94,6.49c0.4,2.81,4.1,1.35,6.17,2.45c9.53,5.08,20.48,6.77,29.9,11.69
		c6.07,3.17,11.13,3.2,17.57,2.72c8.76-0.65,17.95-0.55,26.56,2.71c0.34,0.13,0.8,0.37,1.04,0.24c4.24-2.33,8.62-0.12,12.85-0.47
		c10.67-0.89,21.41-2.02,31.92-0.01c21.46,4.11,43.04,1.46,64.56,2.23c3.71,0.13,5.85-3.17,8.67-4.91c2.9-1.79,5.87-3.42,8.97-4.76
		c2.8-1.21,5.75-1.95,8.85-1.04c0.65,0.19,1.63,0.71,1.51-0.6c-0.28-3.12,2.12-2.85,3.9-3.04c6.23-0.66,10.28,1.48,12.85,7.1
		c1.66,3.62,3.84,5.18,8.05,5c9.44-0.4,18.92,0.21,28.36-0.82c1.8-0.2,3.59-0.4,6.1-0.68c-1.95-1.29-3.44-1.01-4.89-0.83
		c-12.09,1.54-20.63-6.64-19.37-18.56c0.68-6.4,0.62-6.28-5.25-8.97c-16.3-7.46-32.54-15.06-48.84-22.54
		c-18.28-8.39-36.63-16.62-54.87-25.08c-18.46-8.57-36.84-17.33-55.23-26.04c-4.78-2.26-9.66-4.39-13.62-8.3
		c2.63,1.14,5.31,2.19,7.89,3.44c18.45,8.89,37.13,17.26,55.9,25.46c16.21,7.08,32.32,14.38,48.5,21.51
		c18.51,8.15,37.06,16.21,55.6,24.32c3,1.31,6.05,2.52,8.94,4.04c2.59,1.36,4.36,1.02,6.26-1.3c6.38-7.8,25.6-5.79,29.07,2.17
		c0.43,0.99,1.22,1.85,1.14,2.99c-0.14,2.13,1.51,3.02,2.61,4.44c4.95,6.4,11.73,5.72,18.22,4.52c7.5-1.39,14.81-1.55,22.36-0.52
		c6.35,0.86,13.29,1.6,19.14-0.62c8.31-3.15,18.01-3.09,24.83-10.08c1.63-1.67,1.97-2.58,0.55-4.69c-6.7-10-12.27-20.57-14.18-32.66
		c-1.33-8.42,0.8-15.89,6.61-22.16c4.02-4.35,9.68-5.2,15.06-6.65c6.87-1.85,13.81-3.32,19.96-7.38c7.17-4.73,15.78-4.26,23.89-5.35
		c1.83-0.25,3.63,1.15,5.17,2.4c5.91,4.81,11.84,9.59,17.75,14.39c1.23,1,2.39,2.08,2.55,3.82c0.81,8.92,2.37,17.83,0.64,26.81
		c-0.27,1.4-0.53,2.81,1.07,3.42c6.75,2.6,10.84,8.41,15.76,13.15c9.53,9.15,17.8,19.44,25.73,29.98
		c3.86,5.14,6.68,10.58,6.35,17.62c-0.8,17.21-1.35,34.44-0.65,51.67c0.29,7.16,1.7,14.04,4.97,20.66
		c3.63,7.36,3.36,15.47,2.25,23.48c-0.08,0.58-0.26,1.37-0.67,1.65c-4.34,2.99-2.99,7.37-3.09,11.52
		c-0.21,9.36-1.76,18.56-4.05,27.62c-0.3,1.2-0.39,1.96,0.34,2.95c0.93,1.26,1.78,2.62,2.46,4.03c1.81,3.74,0.93,7.14-2.81,8.9
		c-2.96,1.4-2.14,2.61-0.56,4.26c2.35,2.45,4.61,4.97,7.73,6.54c0.96,0.48,1.79,1.26,2.58,2.01c1.11,1.06,2.71,2.06,1.79,3.93
		c-0.86,1.74-2.5,1.45-4.15,1.26c-1.65-0.19-3.14-1.27-5.24-0.85c2.6,11.16,2.34,22.61,4.56,33.78c0.98,4.95,0.74,10.14,1.1,15.22
		c0.29,4.07,1.85,7.1,5.58,9.53c5.38,3.51,9.55,8.35,9.67,15.36c0.04,2.55,1.38,3.58,3.51,4.39c5.9,2.23,12.14,3.27,18.01,5.69
		c8.71,3.6,16.66,8.25,23.64,14.6c11.37,10.34,22.59,20.85,34.3,30.8c7.08,6.01,14.17,12.11,22.06,17.12
		c1.12,0.71,2.16,1.74,3.58,1.59c3.96-0.41,6.59,2.06,9.3,4.26c2.06,1.67,3.91,3.58,6.04,5.21c3.81,2.92,3.58,11.11-0.82,15.09
		c-4.46,4.03-6.72,8.98-8.46,14.5c-3.38,10.72-12.23,14.85-22.07,17.27c-6.97,1.72-13.99,0.81-20.82-1.29
		c-4.64-1.43-5.62-3.94-3.39-8.3c0.17-0.32,0.28-0.72,0.54-0.94c5.71-4.88,7.8-11.42,8.62-18.57c0.05-0.47,0.33-0.91,0.42-1.38
		c0.99-5.25-0.02-6.27-4.99-4.39c-4.66,1.76-8.73,1.68-12.1-2.42c-1.13-1.37-2.84-2.66-2-4.71c0.8-1.95,2.86-2.03,4.64-2.35
		c2.8-0.51,5.56,0.23,8.33,0.38c3.77,0.21,4.26-0.49,2.66-4.06c-2.12-4.71-6.3-7.59-9.95-10.9c-11.1-10.04-25.1-14.89-38.32-21.12
		c-6.46-3.05-12.94-6.08-19.24-9.44c-8.56-4.57-18.03-6.35-27.15-9.17c-8.21-2.53-14.82-7.41-21.44-12.59
		c-8.36-6.54-11.04-16.15-14.92-25.24c-5.22-12.24-9.9-24.66-14.45-37.17c-3.71-10.19-8.57-19.94-14.85-28.94
		c-1.86-2.67-3.48-2.92-5.96-1.54c-6.99,3.88-14.06,7.63-20.96,11.65c-13.6,7.92-26.95,16.29-40.75,23.84
		c-5.1,2.79-9.47,5.61-11.82,11.04c-0.33,0.76-0.87,1.69-1.54,1.98c-6.48,2.72-3.85,7.42-2.24,11.44c4.75,11.9,6.2,24.15,4.15,36.72
		c-2.59,15.87-0.19,31.41,2.54,46.96c0.37,2.12,1.35,4.12,1.91,6.21c0.41,1.57,1.39,2.39,2.79,3.09c6.95,3.48,12.8,14.58,11.86,22.2
		c-0.39,3.12-2.26,5.11-4.49,7.15c-4.32,3.94-9.27,6.23-15.01,6.62c-23.56,1.61-47.06,4.75-70.76,3.48c-2.2-0.12-5.11,1.34-6.4-1.8
		c-1.1-2.67,0.79-8.99,2.85-10.73c3.42-2.89,7.56-4.38,11.67-5.77c8.1-2.74,15.42-7.01,22.76-11.24c2.39-1.38,4.5-3.06,5.77-5.81
		c1.16-2.52,3.02-4.72,5.82-5.75c1.9-0.7,2.42-2.12,2.33-4.02c-0.32-7.29-1.34-14.39-3.97-21.29c-1.94-5.08-2.55-10.74-4.9-15.58
		c-3.71-7.62-5-15.91-7.52-23.83c-2.14-6.75-2.86-14.01-3.64-21.11c-0.59-5.34-2.4-9.96-5.19-14.48
		c-4.73-7.68-2.76-21.75,2.89-28.75c4.93-6.11,9.81-12.27,14.84-18.31c11.23-13.47,22.29-27.09,35.15-39.07
		c7.87-7.34,15.91-14.48,24.31-21.23c2.33-1.87,5.39-2.69,7.21-5.37c0.84-1.23,2.48-0.59,3.76-0.24c1.6,0.44,2.66,0.17,2.56-1.79
		c-0.41-7.85,1.87-15.01,5.25-21.99c1.84-3.8,1.25-4.41-2.99-4.03c-8.48,0.76-16.94,0.95-25.42-0.02c-1.94-0.22-3.53-0.72-4.52-2.52
		c-0.61-1.11-1.72-1.62-2.72-2.31c-3.37-2.32-6.95-4.6-10.42-6.4c-4.1-2.12-9.2-4.15-14.4-2.15c-2.12,0.82-3.99,0.99-3.63-2.24
		c0.14-1.29,0.3-2.78-1.5-2.53c-1.64,0.22-4.17-1.79-4.85,1.25c-0.58,2.57-1.72,1.83-3.02,0.9c-2.51-1.8-4.18-4.02-3.42-7.38
		c0.15-0.68,0.16-1.45,0.02-2.14c-1.22-5.85,1.38-10.41,7.05-12.42c1.27-0.45,2.4-0.1,3.54,0.28c8.29,2.79,16.35,5.93,22.98,12.05
		c3.46,3.2,8.1,3.17,12.44,2.01c5.67-1.51,11.42-2.24,17.25-2.4c3.83-0.11,7.35-1.45,10.97-2.43c1.4-0.38,1.78-1.45,1.78-2.8
		c0.01-4.27-0.72-8.34-2.24-12.4c-2.29-6.12-4.21-12.39-4.32-19.06c-0.07-4.12-0.36-8.24-0.43-12.36c-0.04-2.58-1.13-3.15-3.46-2.38
		c-4.97,1.64-9.73,3.72-14.17,6.48c-4.8,2.99-9.64,5.75-15.66,4.04c-0.56-0.16-1.37-0.25-1.78,0.04c-6.91,4.7-13.56,0.95-20.19-0.7
		c-14.93-3.72-29.86-7.47-44.69-11.57c-7.15-1.98-13.99-0.26-20.88,0.69c-9.96,1.37-19.84,3.26-29.76,4.93
		c-2.62,0.44-4.39,1.27-5.32,4.42c-1.38,4.66-3.01,9.59-8.38,11.64c-3.34,1.28-4,0.91-4.18-2.75c-0.04-0.85,0.02-1.71-0.13-2.54
		c-0.22-1.17-0.92-1.42-1.76-0.53c-0.66,0.7-1.22,1.51-1.77,2.31c-2.47,3.63-5.49,5.11-9.96,3.47c-3.59-1.32-7.3-0.81-11.08,0.03
		c-11.54,2.56-22.99,5.66-34.97,5.74c-4.09,0.03-8.27,0.5-12.03,2.4c-2.13,1.08-3.94-0.29-5.86-0.28
		c-3.62,0.01-7.24,0.52-10.85,0.94c-11.32,1.31-22.67,2.32-34.06,2.7c-24.25,0.8-48.51,0.76-72.77,0.8c-1.7,0-3.42,0.34-5.08,0.14
		c-4.52-0.54-7.27,1.96-9.41,5.34c-4.54,7.16-9.55,13.99-14.83,20.6c-5.2,6.51-10.67,12.81-16.18,19.06
		c-2.89,3.28-4.81,7.19-7.54,10.61c-8.92,11.18-18.62,21.6-28.68,31.73c-0.6,0.6-1.2,1.21-1.86,1.74c-3.86,3.05-3.75,4.26-0.19,7.96
		c9.06,9.4,20.54,15.27,31.48,21.95c10.43,6.37,20.99,12.6,30.54,20.26c11.52,9.23,23.24,18.12,35.73,26.03
		c3.77,2.38,6.07,5.72,7.52,10.74c2.11,7.29,4.67,14.87,10.09,20.98c6.58,7.41,12.14,15.63,17.43,24.04
		c5.11,8.13,8.7,16.98,13.11,25.44c6.96,13.35,15.59,25.59,26.85,35.77c1.5,1.36,3.56,3.65,5.03,3.03c1.83-0.77,0.6-3.67,0.75-5.64
		c0.21-2.76-0.87-6,3.89-6.09c1.67-0.03,1.38-2.35,1.65-3.69c0.73-3.61,1.62-7.04,4.6-9.61c3.71-3.21,9.25-1.73,10.21,3.11
		c1.59,8.01,0.66,15.49-5.97,21.29c-0.81,0.7-1.46,1.58-2.19,2.38C7581.04,7098,7581.15,7098.3,7581.26,7098.6z M8041.88,7109.54
		c-4.25-0.87-7.91-1.32-11.63-1.18c-0.58,0.02-1.32-0.14-1.61,0.52c-0.37,0.85,0.38,1.3,0.88,1.78
		C8032.63,7113.61,8036.32,7113.39,8041.88,7109.54z"/>
	<path d="M6699.37,7235.11c1.27,8.21,2.31,15.12,1.45,22.21c-0.25,2.1,0.78,4.59,1.83,6.57c2.44,4.63,3.23,9.61,3.77,14.67
		c0.26,2.45,1.51,4.29,3.05,6.04c5.92,6.74,13.35,11.97,19.08,18.9c5.22,6.32,10.04,12.8,9.27,21.71c-0.19,2.17,0.03,4.37-0.09,6.55
		c-0.39,6.96,2.24,12.31,8.16,16.1c2.03,1.3,3.54,3.03,4.58,5.43c2.08,4.82,6.98,7.24,10.37,11.01c4.06,4.52,7.86,9.17,10.86,14.43
		c1.97,3.46,3.55,7.17,5.69,10.51c4.54,7.08,11.12,11.82,19.03,14.31c9.93,3.14,20.09,5.47,29.56,10.03
		c6.06,2.92,11.14,7.24,16.71,10.85c11.98,7.76,23.97,15.52,36.41,22.54c1.09,0.61,2.29,2.11,3.59-0.07
		c0.56-0.93,1.82-0.3,2.66,0.14c1.18,0.61,2.29,1.36,3.42,2.07c2.64,1.67,5.1,2.36,8.44,1.15c8.28-2.98,16.93-4.17,25.74-3.05
		c5.6,0.71,6.91,2.88,6.44,8.43c-0.73,8.47-0.9,17.03,2.6,25.01c3.37,7.67,2.55,15.4,1.36,23.23c-0.86,5.68-2.99,10.95-5.58,16.04
		c-0.77,1.52-1.61,3.15-3.63,3.14c-1.98-0.01-2.98-1.5-3.72-3.07c-1.9-4.05-3.83-8.09-5.54-12.22c-3.04-7.33-6.63-14.27-12.78-19.52
		c-4.58-3.91-9.81-6.62-15.76-7.82c-4.06-0.82-5.14-3.02-2.34-6c2.97-3.16,1.64-4.1-1.39-5.89c-12.55-7.46-25.27-14.75-39.69-17.57
		c-16.74-3.28-32.09-9.97-47.42-16.99c-4.15-1.9-8.7-2.03-13.17-2.29c-4.72-0.28-9.45-0.5-14.08-1.51c-3.4-0.74-6.38-2.36-8.6-5.08
		c-5.1-6.24-11.6-10.93-17.68-16.09c-2.03-1.72-4.13-3.35-6.24-4.97c-4.92-3.78-10.91-4.66-16.72-5.58
		c-4.53-0.72-8.13-2.93-11.78-5.3c-10.35-6.72-20.59-13.62-31.2-19.94c-2.96-1.76-4.89-0.73-6.57,1.35
		c-3.66,4.53-8.45,7.53-13.33,10.46c-1.28,0.77-2.7,1.2-4.16,1.16c-10.34-0.3-19.44,3.66-28.27,8.35
		c-5.77,3.07-11.84,5.59-17.16,9.48c-0.97,0.71-2.48,1.46-1.52,2.81c2.5,3.51,2.46,7.59,2.73,11.5c0.73,10.87,2.06,21.88-0.97,32.54
		c-3.52,12.37-4.2,25.06-4.9,37.71c-0.42,7.56,0.91,15.21,4.96,22.03c1.37,2.31,4.61,2.6,5.39,5.61c1.95,7.5,3.63,15.02,3.27,22.82
		c-0.11,2.49-1.44,4.05-4.13,4.17c-0.72,0.03-1.43,0.34-2.15,0.35c-20.25,0.26-40.54,0.71-60.69-1.52
		c-9.74-1.08-18.38-5.81-26.11-11.95c-1.85-1.47-2.42-3.31-1.96-5.48c0.43-2.07,2.35-2.41,3.96-2.65c3.59-0.53,7.21-0.98,10.83-1.1
		c5.7-0.19,11.59,0.56,17.03-0.98c7.73-2.19,15.26-4.48,20.05-12.65c2.4-4.09,4.81-8.51,7.78-12.39c2.49-3.25,2.72-7.19,3.52-10.95
		c2.67-12.49,1.16-24.37-3.95-36.18c-3.01-6.98-3.33-14.92-3.81-22.51c-0.57-9.05-2.27-17.74-5.77-26.04
		c-2.63-6.24-1.27-10.7,3.77-15.4c5.89-5.49,10.7-12.13,15.92-18.33c1.17-1.39,2.08-2.94,1.87-4.96c-0.08-0.75,0.28-1.76,0.8-2.33
		c6.23-6.92,12.46-13.66,20.82-18.38c7-3.96,13.17-9.41,19.69-14.23c0.91-0.67,1.26-1.74,1.62-2.79c1.36-4,2.1-8.21,4.33-11.92
		c0.63-1.06,0.77-2.43-0.14-3.44c-2.17-2.39-2.71-5.45-3.23-8.38c-0.77-4.3-3.55-7.03-6.46-9.79c-1.32-1.25-2.16-0.71-2.75,0.67
		c-2.02,4.76-6.18,6.39-10.73,7.75c-12.96,3.87-26.08,6.61-39.66,6.54c-3.05-0.02-6,0.32-8.96,1.16c-7.33,2.09-14.67,0.58-22-0.32
		c-3.75-0.46-4.36-3.76-5.17-6.27c-1.04-3.19-3.06-6.51-0.35-10.19c1.34-1.82-0.42-5.41,3.48-6.13c6.57-1.22,12.98-4.57,19.81-1.21
		c2.49,1.23,5.25,2.17,7.01,4.42c1.88,2.4,4,2.39,6.75,1.89c7.52-1.38,13.62-5.52,19.86-9.47c1.61-1.02,2.05-2.14,1.23-3.94
		c-4.01-8.8-8.58-17.43-11.11-26.76c-2.27-8.37-8.41-15.06-9.59-23.81c-0.49-3.61-1.33-7.15-0.58-10.81
		c0.5-2.46-0.09-4.76-2.12-6.19c-2.38-1.67-3.88-4.07-5.39-6.31c-1.52-2.26-2.76-4.41-5.54-5.3c-1.19-0.38-1.33-1.62-1.04-2.79
		c0.29-1.18,0.43-2.42,0.92-3.51c1.66-3.72,0.86-6.5-2.32-9.16c-3.03-2.54-3.01-6.44-2.94-10.1c0.2-10.69,7.01-16.81,15.3-21.77
		c2.48-1.48,5.37-2.28,7.86-3.75c8.69-5.12,23.16-0.25,29.49,8.23c4.92,6.59,6.01,13.9,6.32,21.53c0.37,9.14,0.71,9.47,8.78,5.08
		c0.64-0.35,1.3-0.69,1.85-1.15c2.88-2.42,5.44-3.68,9.31-1c3.14,2.18,7.53,1.34,11.36,1.91c9.24,1.37,18.43,2.9,27.42,5.49
		c4.2,1.21,7.83,3.42,10.96,6.23c6.72,6.03,14.67,9.78,22.8,13.3c6.89,2.99,14.27,5.17,20.56,9.12c5.18,3.25,9.23,8.55,11.2,14.65
		c1.15,3.55-1.85,5.6-4.59,6.97c-4.57,2.28-9.46,3.62-14.52,4.51C6714.34,7240.07,6707.03,7239.55,6699.37,7235.11z"/>
	<path d="M7011.83,6817.35c4.3,0.83,8.36-0.62,12.55-0.96c0.6-0.05,1.2-0.3,1.79-0.29c1.48,0.03,3.67-0.84,4.02,1.2
		c0.33,1.91-1.86,2.21-3.34,2.62c-5.02,1.38-10.07,2.68-15.09,4.09c-0.98,0.27-2.56,0.39-2.41,1.75c0.16,1.52,1.73,0.93,2.71,0.97
		c4.72,0.22,9.45,0.31,14.17,0.57c1.24,0.07,3.01,0.04,2.99,1.91c-0.02,1.83-1.81,1.74-3.03,1.95c-4.94,0.83-9.93,0.28-14.89,0.45
		c-1.43,0.05-3.19-0.27-3.82,1.39c-0.69,1.81,1.17,2.53,2.23,3.3c1.76,1.26,3.79,2.14,5.65,3.26c1.01,0.61,2.46,1.3,2.02,2.67
		c-0.51,1.57-2.06,0.87-3.16,0.62c-3.22-0.71-6.34-1.93-9.05-3.69c-3.63-2.37-7.44-2.16-11.48-2.35
		c-16.47-0.76-31.74,4.99-47.47,8.23c-2.38,0.49-4.74,1.06-7.13,1.42c-5.68,0.87-10.48,2.51-14.89,7.07
		c-5.57,5.76-12.84,9.83-20.01,13.67c-3.52,1.89-3.78,2.68-1.18,5.67c2.37,2.73,5.01,5.23,7.38,7.96c3.21,3.71,8.17,3.96,12.09,6.33
		c8.53,5.16,16.68,10.79,23.71,17.84c8.01,8.03,15.79,16.3,23.48,24.63c6.27,6.79,6.01,13.84,0.14,21.37
		c-2.96,3.8-5.94,7.62-9.08,11.3c-11.31,13.24-24.02,24.8-38.5,34.52c-9.35,6.27-18.14,13.36-25.74,21.7
		c-2.79,3.06-4.52,7.12-6.61,10.8c-1.31,2.31-1.52,4.66-0.27,7.25c2.93,6.05,4.67,12.7,10.37,17.17c3.02,2.37,6.31,4.02,9.74,5.55
		c1.11,0.49,2.26,0.91,3.3,1.5c2.04,1.17,3.37,2.85,2.96,5.35c-0.39,2.4-1.91,3.86-4.25,4.46c-5.79,1.49-11.35,0.1-16.79-1.62
		c-10.47-3.31-19.47-9.1-27.28-16.79c-4.25-4.18-9.69-6.36-15.02-8.68c-2.51-1.09-4.59-2.68-6.65-4.38c-2.14-1.77-2-3.56-0.19-5.58
		c3.45-3.87,7.49-7.25,9.89-12c0.56-1.12,1.49-2,2.78-2.16c3.37-0.4,5.72-2.67,8.01-4.71c11.39-10.14,22.26-20.84,31.69-32.86
		c2.66-3.4,4.78-7.32,6.62-11.24c4.36-9.28,10.8-16.81,18.63-23.27c0.49-0.4,1.09-0.98,0.71-1.5c-1.61-2.2-4.08-3.33-6.39-4.57
		c-1.68-0.9-2.28,0.82-3.09,1.77c-5.19,6.19-7.4,6.24-13.93,1.45c-6.57-4.81-13.9-8.39-21.54-11.2
		c-7.99-2.94-15.65-6.53-22.98-10.82c-1.56-0.91-2.21-0.95-3.4,0.69c-4.48,6.15-9.27,12.07-13.86,18.15
		c-1.91,2.54-2.88,5.59-4.04,8.52c-1.94,4.88-4.7,7.98-10.67,8.81c-7.88,1.1-15.12,4.3-20.73,10.75
		c-4.66,5.36-10.14,10.02-15.43,14.8c-1.64,1.49-3.26,2.99-4.28,4.89c-3.1,5.79-8.03,9.39-13.99,11.49
		c-8.66,3.04-16.32,7.94-24.21,12.39c-12.02,6.78-24.15,13.37-35.64,21.06c-7.54,5.05-14.96,10.26-22.12,15.83
		c-5.83,4.53-11.42,9.33-16.76,14.45c-2.99,2.88-5.51,6.14-8.03,9.33c-6.53,8.23-12.62,16.82-18.76,25.36
		c-2.46,3.42-3.42,7.52-3.98,11.61c-0.46,3.32-1.81,6.24-2.97,9.29c-1.09,2.85-3.23,3.6-5.85,2.78c-3.54-1.11-6.66-3.01-8.42-6.47
		c-4.71-9.28-6.91-18.77-2.6-28.91c4.1-9.64,6.17-19.83,7.93-30.11c0.68-3.95,1.92-7.7,4.82-10.78c1.95-2.07,4.06-2.97,6.81-2.42
		c3.33,0.67,6.74,1.09,9.95,2.12c3.79,1.21,6.94,0.33,9.79-2.05c6.61-5.49,13.28-10.92,19.68-16.65
		c8.29-7.41,16.31-15.13,24.54-22.61c2.73-2.48,3.69-5.94,5.59-8.87c4.48-6.9,11.9-9.26,18.74-12.52c7-3.33,14.33-6.05,21.01-9.92
		c8.63-4.99,13.34-13.31,15.42-22.82c2.91-13.29,9.83-24.54,16.54-36.05c4.49-7.69,8.24-15.87,10.56-24.61
		c5.22-19.65,16.98-34.14,34.77-43.89c10-5.48,19.2-12.2,28.26-19.1c7.61-5.79,15.27-11.49,22.49-17.8
		c5.57-4.87,10.58-10.28,15.8-15.48c4.54-4.52,8.83-9.29,13.53-13.66c1.58-1.48,3.42-2.26,5.34-2.97c2.05-0.75,2.68-1.67,1.11-3.65
		c-4.42-5.6-8.77-11.25-12.67-17.24c-1.53-2.35-4.26-2.17-6.57-2.47c-8.53-1.1-17.09-2-25.64-2.98c-2.51-0.29-5.08-0.26-7.08-2.31
		c-0.49-0.5-1.57-0.53-2.39-0.58c-8.59-0.5-17.19-0.87-25.78-1.45c-3.4-0.23-5.7,1.96-8.22,3.43c-5.3,3.09-10.69,5.7-16.88,6.3
		c-3.19,0.31-5.69,1.83-7.87,4.09c-0.65,0.68-1.11,2.23-2.54,1.24c-1.28-0.88-2.03-2.07-1.44-3.75c0.63-1.77,1.58-3.35,3.24-4.25
		c2.44-1.33,4.58-3.2,7.29-4.06c0.89-0.28,2.12-0.68,2.08-1.76c-0.06-1.45-1.56-1.32-2.55-1.5c-4.05-0.71-8.13-1.31-12.19-1.95
		c-1.19-0.19-2.41-0.31-3.57-0.64c-1.32-0.36-3.33-0.37-3.16-2.25c0.14-1.59,1.97-2.16,3.37-2.29c3.13-0.3,6.29-0.27,9.43-0.43
		c1.04-0.05,2.55,0.22,2.72-1.14c0.19-1.5-1.44-1.4-2.41-1.59c-4.08-0.8-8.23-0.18-12.34-0.46c-2.2-0.15-5.58,0.41-5.68-2.46
		c-0.13-3.47,3.57-2.6,5.69-2.69c4.35-0.17,8.72,0.23,13.08,0.36c1.03,0.03,2.48,0.38,2.68-1.1c0.2-1.45-1.31-1.7-2.28-1.83
		c-2.93-0.39-5.88-1.85-8.85-0.01c-1.11,0.69-2.43,1.68-3.32-0.21c-0.72-1.54-0.1-2.91,1.21-3.81c2.1-1.43,4.64-1.28,7.01-1.62
		c2.02-0.29,3.68-0.38,5.22-2.41c2.38-3.13,8.54-1.47,9.55,2.43c0.57,2.22,1.79,2.99,3.73,3.83c13.52,5.85,28.01,6.49,42.15,5.82
		c14.73-0.71,29.23,0.85,43.84,1.14c9.62,0.19,17.74,3.86,25.15,9.93c7.86,6.44,16.43,12.27,22.95,19.96
		c5.29,6.24,12.44,8,18.86,11.59c1.67,0.94,2.78,0.67,3.91-1.03c4.53-6.89,10.83-11.69,18.46-14.62c6.64-2.56,13.04-0.51,18.98,2.31
		c11.88,5.66,15.91,18.69,9.9,30.66c-0.81,1.62-1.4,3.36-2.15,5.02c-2.86,6.36-7.88,9.72-14.75,10.1c-2.49,0.14-3.82,0.99-4.32,3.4
		c-0.46,2.22-1.21,3.94-4.18,2.68c-1.19-0.5-3.31-0.66-3.46,1.4c-0.16,2.11,1.69,2.25,3.37,2.29c7.69,0.2,14.32-3.12,21.07-6.14
		c1.43-0.64,2.94-1.15,4.47-1.52c1.3-0.32,2.86-0.51,3.42,1.12c0.54,1.59-0.72,2.5-1.96,3.06
		C7018.52,6814.56,7015.16,6815.93,7011.83,6817.35z M6972.06,6817.07c0,0,0-0.01,0-0.01c-1.81,0-3.63-0.13-5.43,0.02
		c-5.7,0.48-10.76,2.5-14.86,6.59c-0.64,0.64-1.55,1.4-0.94,2.49c0.5,0.88,1.5,0.68,2.31,0.62c5.53-0.41,11.1-1.51,16.57-1.14
		c5.59,0.39,7.52-3.09,9.82-6.75c0.76-1.21,0.44-1.8-0.95-1.82C6976.41,6817.05,6974.24,6817.07,6972.06,6817.07z"/>
	<path d="M7326.38,7305c-2.48-1.21-5.17-1.75-7.85-2.37c-4.28-1-5.69-2.69-5.94-7c-0.06-1.08,0.12-2.22-0.78-3.08
		c-1.44-1.37-1.17-2.45,0.43-3.49c1.83-1.19,1.75-2.41-0.08-3.6c-1.88-1.22-2.26-2.46-0.06-3.82c0.43-0.27,0.94-1.08,0.82-1.47
		c-1.17-3.81,1.46-5.81,3.63-8.1c1.78-1.87,3.09-4.01,3.23-6.73c0.57-10.83,6.79-16.88,16.53-20.63
		c13.74-5.29,27.21-5.59,40.55,0.81c10.65,5.11,18.71,14.68,16.29,27.03c-1.25,6.35-5.76,10.2-9.74,14.5
		c-5.56,6.01-12.99,9.64-19.22,14.81c-3.57,2.96-3.76,7.11-3.79,11.27c-0.01,1.2,1.07,1.85,1.97,2.46c3.09,2.12,6.32,4.06,9.27,6.35
		c8.87,6.88,14.12,15.86,14.76,27.18c0.22,3.85,1.55,6.92,3.9,9.89c2.69,3.4,4.92,7.17,7.33,10.78c2.76,4.12,5.96,7.95,8.41,12.28
		c0.84,1.49,2.07,1.83,3.65,1.82c8.01-0.04,16.02-0.07,24.03,0.01c1.96,0.02,3.08-0.95,4.22-2.33c3.5-4.27,7.71-7.67,12.72-10.07
		c2.58-1.24,5.27-1.82,8.1-1.6c0.88,0.07,2.14-0.1,2.37,1.18c0.19,1.06-0.9,1.33-1.57,1.75c-1.85,1.15-3.78,2.18-5.62,3.36
		c-0.68,0.44-1.62,1.17-1.2,2.02c0.58,1.18,1.75,0.53,2.53,0.12c3.66-1.94,7.34-3.8,11.52-4.28c1.8-0.21,3.64-0.37,5.44-0.25
		c2.29,0.15,3.55,1.24,1.95,3.55c-0.63,0.9-0.97,1.32-0.13,2.4c2.6,3.36,2.51,3.42-0.99,6.08c3.25,3.76,3.12,4.02-3.51,6.77
		c2.25,4.12,1.84,4.76-3.05,5.69c-3.86,0.73-7.76,0.83-11.61,0.53c-10.23-0.79-19.96,1-29.55,4.51c-5.81,2.12-11.9,3.4-18.09,3.89
		c-6.62,0.53-12.15-1.76-15.18-7.78c-4.21-8.33-8.95-16.36-13.87-24.23c-3.47-5.55-5.83-11.69-9.67-17.01
		c-1.45-2-2.37-2.58-3.89-0.21c-5.9,9.2-13.78,16.98-18.09,27.39c-2.89,6.99-6.34,13.83-9.43,20.78c-1.75,3.93-2.12,7.58,1.48,11.6
		c6.69,7.45,13.6,14.78,19.39,23c3.4,4.82,4.99,10.47,6.52,16.08c0.75,2.75-0.27,5.53-1.84,7.57c-3.88,5.05-1.04,9.41,0.97,13.81
		c0.64,1.4,1.48,2.75,2.06,4.21c5,12.58,10.12,25.12,15.18,37.69c3.23,8.04,7.39,15.9,13.25,22.39c4.19,4.63,9.19,8.61,14.19,12.4
		c8.64,6.54,16.33,13.98,22.92,22.55c11.5,14.95,22.96,29.92,34.48,44.86c5.96,7.73,13.8,13.53,20.81,20.2
		c1.62,1.54,3,3.18,3.84,5.22c2.07,4.95,0.15,9.38-4.98,10.91c-8.5,2.54-17.36,3.35-26.03,5.12c-6.67,1.36-13.24,2.99-19.59,5.4
		c-10.73,4.07-20.73,1.01-30.67-2.91c-0.7-0.28-1.49-0.66-1.36-1.48c0.16-1.02,1.19-0.99,2.01-1.18
		c11.18-2.55,21.77-6.18,29.76-15.12c2.71-3.04,6.44-5.11,8.27-9.04c0.64-1.37,0.57-2.28,0.05-3.67
		c-2.32-6.19-7.44-10.1-11.74-14.62c-5.24-5.51-10.91-10.62-16.5-15.79c-10.2-9.45-20.28-19.01-30.78-28.14
		c-9.02-7.86-17.72-16.12-26.25-24.51c-3.53-3.47-5.56-8.18-7.6-12.71c-1.54-3.42-3.24-6.69-5.27-9.89
		c-4.99-7.86-12.44-13.5-17.9-20.93c-3.08-4.18-5.96-8.51-9.21-12.57c-1.05-1.32-1.8-2.8-3.77-3.12c-2.12-0.34-2.01-2.22-1.92-3.76
		c0.16-2.61-0.55-3.19-3.08-2.08c-10.31,4.53-20.62,9.1-31.08,13.29c-15.89,6.38-32.45,10.67-48.94,15.14
		c-4.87,1.32-9.37,3.31-13.35,6.35c-2.46,1.87-3.29,4.75-3.55,7.72c-0.54,6.04-0.73,12.11-1.54,18.11
		c-1.01,7.58-3.46,14.79-6.78,21.69c-0.84,1.74-1.55,3.55-2.28,5.34c-3.84,9.4-8.27,18.61-11.08,28.36
		c-2.36,8.19-3.26,16.66,1.44,24.63c0.98,1.67,1.84,3.42,2.65,5.18c1.98,4.29,0.36,8.01-4.16,9.44c-5.9,1.86-12.15,2.15-18.03,4.2
		c-10.47,3.64-21.26,5.75-32.36,6.32c-2.94,0.15-5.8-0.3-8.7-0.41c-0.47-0.02-1.06-0.13-1.36-0.43c-3.94-3.95-9.29-6.05-13.13-10.12
		c-1.62-1.72-0.79-3,1.02-3.54c2.07-0.62,4.26-0.99,6.43-1.17c11.67-0.97,20.83-7.14,29.86-13.87c9.34-6.95,13.62-16.39,16.08-27.45
		c3.67-16.51,3.45-33.48,6.61-49.98c1.94-10.1,2.37-20.18,2.27-30.33c-0.08-8.24,3.91-13.64,11.15-16.61
		c21.9-8.97,42.46-20.61,63.4-31.49c7.09-3.68,14.2-7.34,21.36-10.89c2.73-1.35,4.46-2.83,3.83-6.34c-0.43-2.38,0.38-4.84,2.51-6.5
		c2.46-1.92,3-4.48,1.9-7.18c-7.42-18.21-4.92-37.06-2.86-55.63c0.93-8.43,3.82-16.86,7.74-24.8c3.1-6.29,6.13-12.62,9.44-18.81
		c0.85-1.6,1.74-3.21,2.82-4.66c0.81-1.09,1.94-2.06,1.26-3.49c-0.59-1.24-2.05-1.22-3.21-1.31c-7.61-0.56-15.24-1.04-22.85-1.56
		c-15.47-1.07-30.98-1.64-46.4-3.51c-5.81-0.7-10.38-3.99-15.09-6.85c-9.11-5.52-17.85-11.65-27.01-17.07
		c-8.19-4.85-16.3-9.85-26.5-10.02c-4.7-0.08-9.3-2.42-14.28-1.99c-4.07,0.36-7.84,1.21-11.2,3.7c-2.79,2.07-4.33,1.61-5.42-1.64
		c-0.77-2.28-1.38-4.7-1.49-7.08c-0.1-2.23,1.03-4.48-2.73-4.84c-1.72-0.16-0.84-1.94-0.1-2.89c6.4-8.23,18.01-11.41,27.79-7.37
		c13.78,5.69,27.3,11.94,40.86,18.14c14.76,6.75,29.59,13.36,44.7,19.32c4.08,1.61,8.37,1.42,12.55,1.76
		c11.35,0.93,22.74,1.58,34.12,1.99c6.91,0.25,13.64-2.13,20.6-2.03c5.17,0.07,10.35,0.01,15.52,0.01
		C7326.27,7305.98,7326.33,7305.49,7326.38,7305z"/>
	<path d="M6979.03,7214.88c-0.08-11.61,6.09-19.98,14.84-26.4c12.02-8.82,25.68-10.61,39.77-6.25
		c21.73,6.73,30.69,30.13,20.42,49.25c-9.81,18.27-32.09,25.45-51.18,17.51c-10.65-4.43-17.92-12.12-22.25-22.63
		C6979.17,7222.76,6978.97,7218.81,6979.03,7214.88z"/>
</g>
</svg>
