<?xml version="1.0" encoding="utf-8"?>
<!-- Generator: Adobe Illustrator 27.8.1, SVG Export Plug-In . SVG Version: 6.00 Build 0)  -->
<svg version="1.1" id="Layer_1" xmlns="http://www.w3.org/2000/svg" xmlns:xlink="http://www.w3.org/1999/xlink" x="0px" y="0px"
	 viewBox="0 0 1920 1080" style="enable-background:new 0 0 1920 1080;" xml:space="preserve">
<style type="text/css">
	.st0{opacity:0.5;}
</style>
<path class="st0" d="M1613.69,792.38c-16.46-11.62-23.87-26.88-18.84-46.88c1.84-7.32,2.29-14.69,2.6-22.19
	c0.6-14.45,7.83-22.75,21.65-24.3c5.87-0.66,9.96-3.08,14.05-6.87c10.12-9.38,18.33-20.39,27.04-30.97
	c15.11-18.33,30.72-36.1,50.78-49.32c7.35-4.85,12.03-11.63,12.49-20.48c1.84-35.33,11.66-70.57-0.66-106.05
	c-4-11.51-0.2-23.97,2.78-35.66c2.21-8.67,0.63-15.83-4-23.57c-24.04-40.27-43.31-69.18-55.72-114.14
	c-0.53-1.92-0.11-3.98,1.08-5.57c13.39-18.01-11.74-29.22-15.95-37.78c-6.7-13.61-2.26-28.64,9.58-37.84
	c12.41-9.64,28.54-10.5,40.36-0.88c30.9,25.13,0.45,50.93,36.47,48.74c28.23-1.72,138.02-20.77,143.34-60.28
	c0.77-5.69,3.01-11.02,5.44-16.23c3.38-7.25-10.07-16.04-18.2-24.12c-40.07-39.82-80.57-79.2-120.89-118.78
	c-11.57-11.36-23.26-22.61-34.46-34.33c-5.08-5.32-9.91-6.91-16.38-3.05c-2.11,1.26-4.58,1.94-6.94,2.71
	c-5.95,1.94-10.56-0.48-14.36-4.84c-3.38-3.88-3.68-8.37-1.31-12.76c2.87-5.32,7.79-7.36,13.62-6.82c9.28,0.85,16,6.49,22.26,12.7
	c36.29,36.03,72.29,72.35,108.9,108.06c19.9,19.41,40.77,37.81,61.24,56.62c6.79,6.24,16.42,6.94,23.69,13.08
	c22.04,18.61,23.02,36.68-2.24,56.22c-21.62,16.72-47.55,27.05-69.8,43.28c-14.23,10.37-34.7,13.95-39.81,32.01
	c-0.33,1.17,5.61,9.14,4.72,9.52c-17.53,7.67-5.75,17.88-3.05,27.96c5.3,19.82,21.5,34.8,23.78,55.89
	c1.67,15.49,7.1,29.01,17.51,41.53c10.95,13.17,14.22,30.68,19,47.07c19.37,66.38,29.76,134.51,39.78,202.72
	c0.6,4.09,1.34,8.28,2.83,12.1c5.08,13.07,5.34,23.56-9.89,30.81c-9.25,4.4-3.21,12.3-0.16,18.21c2.67,5.17,7.58,10.24,3.75,15.93
	c-4.37,6.5-12.13,6.72-19.24,5.89c-20.2-2.37-25.61-9.43-26.5-29.79c-1.64-37.32-6.45-74.22-16.49-110.36
	c-2.2-7.92-3.51-16.52-2.98-24.66c0.95-14.61-3.9-26.59-11.88-38.32c-6.18-9.09-10.88-19.2-16.33-29.03
	c-4.42,2.92-4.94,6.79-5.99,10.24c-16.76,55-50.92,99.46-86.54,142.99c-8.15,9.96-17.5,18.94-25.59,28.95
	c-6.04,7.47-11.17,7.71-18.75,1.98c-11.38-8.6-13-7.39-21.14,4.55c-8.81,12.94-10.82,27.9-14.44,42.41
	C1619.55,790.23,1618.07,790.78,1613.69,792.38z"/>
<path class="st0" d="M996.1,502.33c3.78,4.94,3.23,10.01,1.49,15.58c-8.83,28.19-23.61,54.25-35.34,81.4
	c-7.98,18.48-15.95,36.96-24.08,55.38c-3.47,7.87-5.37,12.77,8.6,10.69c24.9-3.69,25.04-2.92,21.24-25.79
	c-3.04-18.29,4.78-29.81,23.52-34.63c21.73-5.59,39.71,1.25,47.11,17.82c0.94,2.11,1.91,4.73,3.8,5.88
	c9.9,6.04,10.67,10.7-1.84,14.25c-1.12,0.32-2.97,1.67-2.84,1.99c3.31,7.97,1.82,15.68-0.62,23.59
	c-3.58,11.62,8.97,11.54,15.19,15.46c14.16,8.92,19.3,18.51,15.84,33.93c-4.62,20.63-11.05,40.73-22.31,59.38
	c-4.6,7.62-2.14,15.08,1.53,22.35c14.64,29.04,34.18,55.8,49.1,84.63c8.66,16.74,21.72,30.5,33.14,45.22
	c12.89,16.61,19.53,35.36,28.54,53.29c10.63,21.16,17.18,43.91,33.91,62.59c7.37,8.23,5.83,19.57,3.75,29.41
	c-1.95,9.24-11.58,7.72-19.21,7.35c-7.66-0.36-12.28-4-11.02-11.38c3.05-17.89-4.96-32.8-15.61-46.81
	c-35.13-46.22-77.02-87.47-117.92-129.43c-4.53-4.64-10.01-8.59-15.38-12.49c-13.19-9.59-16.73-9.44-27.16,2.99
	c-18.26,21.74-33.46,45.01-45.98,70.02c-6.48,12.95-18.71,23.42-30.91,33.12c-19.59,15.58-33.75,33.5-35.23,58.56
	c-0.92,15.5-8.49,19.15-24.13,16.29c-8.36-1.53-11.94-5.86-10.5-13.28c0.58-3.01,1.29-6.6,3.43-8.68
	c16.28-15.79,19.13-36.05,23.7-55.78c4.38-18.91,16.29-34.92,24.81-52.24c12.35-25.13,23.72-50.71,30.05-77.66
	c2.36-10.03,7.52-18.92,10.42-28.64c1.44-4.84,2.68-8.95-2.34-12.56c-8.3-5.96-8.64-13.79-6.37-22.25c0.61-2.26,0.87-4.59,1.26-6.9
	c6.09-36.23,4.26-32.19-27.58-42.53c-8.25-2.68-11.2-6.65-7.99-13.98c3.54-8.1-1.24-7.2-7.43-6.09c-17.32,3.12-34.74,6.83-51.97-0.5
	c0-2.34,0-4.67,0-7.01c7.29-8.67,13.85-19.21,25.43-22.58c18.94-5.52,36.25-14.21,54.84-20.14c7.68-2.45,12.22-5.9,14.46-13.07
	c12.99-41.46,26.19-82.87,39.69-124.2c3.62-11.08,5.38-22.89,13.37-32.55C985.73,502.33,990.92,502.33,996.1,502.33z"/>
<path class="st0" d="M1513.31,118.54c-16.16,21.73-19.92,22.28-49.11,6.66c-3.46-1.85-6.08-6.47-10.79-2.72
	c-4.3,3.42-2.53,7.74-0.84,11.4c4.44,9.63-0.44,17.08-5.01,24.75c-3.19,5.36-6.61,10.62-9.34,16.22
	c-6.09,12.5-11.82,25.18-17.82,38.05c30.64,1.78,47.23-18.39,64.38-42.52c2.96,10.26,4.07,17.1,13.99,17.72
	c8.2,0.51,10.61,8.54,10.01,16.83c-0.66,9.07-0.57,18.93-11.99,20.84c-39.04,6.55-73.28,29.82-113.46,32.27
	c-3.58,0.22-7.12,1.51-10.61,2.53c-18.86,5.52-18.96,7.24-6.1,21.42c11.87,13.09,23.31,26.71,33.55,41.09
	c11.26,15.82,9.3,27.96-4.87,41.26c-3.19,3-5.14,5.93-6.14,10.3c-6.21,27.03-16.33,52.47-30.65,76.34
	c-10.76,17.93-8.57,27.4,7.06,42.3c8.28,7.89,15.75,16.6,26.68,21.24c4.27,1.81,8.92,4.77,7.46,10.4c-1.35,5.2-6.61,6.69-11.23,6.96
	c-6.7,0.39-13.52,0.16-20.19-0.64c-19.63-2.35-37.88-10.81-57.8-12.61c-12.55-1.13-16.41-9.87-11.3-21.61
	c2.69-6.19,5.41-12.46,8.97-18.16c11.07-17.76,15.88-37.56,16.14-57.87c0.27-20.83,2.94-40.5,13.99-58.36
	c7.5-12.11,3.74-19.68-9.03-23.27c-9.15-2.58-19.07-11.53-27.71-4.45c-7.69,6.29,0.29,16.63,0.73,25.17
	c0.51,9.8,3.61,19.44,4.66,29.25c2.91,27.08-16.02,46.07-43.22,44.27c-3.98-0.26-8.24,1.04-12.12,2.36
	c-26.09,8.87-52.25,17.6-78.12,27.08c-16.84,6.17-18.28,10.92-13,28.61c2.94,9.84,8.66,17.6,15.22,25.11
	c3.44,3.93,6.58,8.63,3.47,14.15c-2.69,4.78-7.82,5.13-12.46,4.54c-17.61-2.25-35.39-4.42-47.57-19.79
	c-5.34-6.74-13.28-9.93-19.96-14.83c-13.72-10.08-14.46-16.47-3.41-29.44c5.5-6.45,12.3-11.61,19.92-14.83
	c23.73-10.04,44.2-25.24,65.29-39.57c15.49-10.52,31.25-20.53,50.2-24.39c14.79-3.02,9.32-12.11,4.44-19.98
	c-17.88-28.85-32.98-59.15-46.33-90.28c-15.14-35.31-8.63-58.7,22.16-81.73c30.53-22.83,56.45-50.86,85.53-75.29
	c27.06-22.74,55.83-42.08,92.95-43.21c8.58-0.26,11.71-4.44,11.37-12.91c-0.25-6.18,0.76-12.48,1.76-18.64
	c2.72-16.74,11.36-28.73,28.02-34.2c35.46-11.65,71.28,4.59,75.97,35.38c1.59,10.45,4.95,23.01-13.21,25.56
	c-9.13,1.28-9.36,11.78-0.91,17.24c6.53,4.22,13.56,7.69,20.36,11.49C1513.31,110.2,1513.31,114.37,1513.31,118.54z"/>
<path class="st0" d="M625.64,289c14.56-18.79,28.12-38.18,37.93-60.26c16.29-36.69,23.93-75.56,30.85-114.69
	c1.81-10.22,4.04-20.33,8.58-29.75c0.84-1.75,1.59-4.14,3.91-3.89c3.32,0.35,2.56,3.36,2.83,5.6c0.41,3.39-2.2,8.1,1.62,9.87
	c4.34,2.02,6.68-3.19,9.84-5.27c3.32-2.18,6.25-4.93,9.48-7.26c1.45-1.04,3.66-2.93,4.68-0.11c0.46,1.28-1.43,3.41-2.28,5.2
	c1.93,1.01,2.39-1.15,3.53-1.81c2.79-1.63,5.34-6.76,8.75-2.55c2.79,3.45-1.33,6.43-3.65,9c-2.13,2.36-4.56,4.45-6.79,6.72
	c-14.48,14.67-25.11,29.88-23.79,52.94c1.75,30.57-12.42,58.87-17.85,88.47c-3.99,21.73-4.17,44.09-11.66,65.36
	c-2.98,8.46-0.24,17.44,3.33,25.61c15.24,34.88,18.76,73.28,32.55,108.59c0.84,2.14,1.74,5.24,0.83,6.93
	c-6.11,11.34,1.16,19.02,7.15,26.7c26.08,33.45,32.73,72.32,32.16,113.3c-10.69,13.5-9.12,31.02-14.78,46.35
	c-11.42,30.9-31.22,56.28-48.42,83.41c-6.24,9.84-4.54,16.57,3.74,23.67c8.27,7.09,17.29,12.67,27.16,17.12
	c4.45,2,8.78,4.88,7.92,10.65c-0.97,6.52-6.68,8.11-11.77,7.84c-23.39-1.26-46.77-2.92-70.12-4.87c-7.03-0.59-10.07-5.37-9.82-12.55
	c0.34-9.88,2.43-19.7,9.17-26.58c14-14.31,20.63-32,25.78-50.49c4.01-14.39,9.48-28.03,18.47-39.88c7.49-9.87,9.1-21.08,5.73-31.76
	c-6.66-21.12-16.98-40.82-26.79-61.05c-5.77,3.79-4.29,8.57-4.29,12.62c0.01,15.26-4.05,29.95-5.87,44.95
	c-0.67,5.56-3.77,10.89-9.23,11.28c-32.1,2.3-47.82,28.95-69.73,46.32c-8.1,6.42-14.94,14.46-23.19,20.64
	c-27.33,20.51-39.39,49.86-48.34,81.23c-2,7.01-2.26,15.81-13.04,15.64c-9.99-0.16-26.25-13.16-24.27-22.74
	c3.87-18.77,2.13-41.48,22.61-52.49c16.22-8.71,24.98-22.47,32.5-37.99c9.07-18.73,21.72-34.19,40.23-44.47
	c5.21-2.89,9.89-6.73,11-13.38c6.46-38.82,15.97-77.2,16.46-116.87c0.11-8.49-1.46-16.48-4.51-24.46
	c-10.07-26.42-19.83-52.97-29.42-79.58c-2.23-6.19-5.07-10.05-12.38-10.6c-9.08-0.69-18.02-2.92-27.06-4.23
	c-9.76-1.42-19.38-1.72-27.07-10.15c-4.74-5.2-13.26-4.72-20.13-6.59c-20.89-5.69-21.89-6.92-20.17-28.82
	c1.68-21.47,5.51-42.64,9.83-63.69c1.4-6.81,1.42-13.28,0.36-20.09c-2.14-13.8,3.4-22.71,15.92-28.61
	c22.73-10.7,40.34-26.26,48.24-51.28c3.42-10.83,6.3-22.02,12.97-31.85c-1.21,10.53,0.23,20.7,2.32,30.77
	c2.92,14.09,13.8,21.56,28.14,19.6c22.09-3.02,38.61-27.77,33.67-49.62c-4.19-18.56-24.27-30.9-42.08-23.87
	c-1.75,0.69-3.64,1.06-6.29,1.81c11.59-14.19,33.73-12.07,46.12,3.54c17.05,21.48,9.34,54.4-15.77,67.42
	c-8.66,4.49-18.09,6.19-27.59,7.02c-25.81,2.25-46.02,15.04-62.12,34.2c-7.84,9.33-5.8,22.67-8.44,34.07
	c-4.6,19.82-3.56,40.36-3.1,60.71c0.18,7.8,2.63,10.28,10.73,9.63c20.39-1.66,40.26-4.7,58.54-14.61c1.71-0.93,3.72-1.37,5.65-1.79
	c3.25-0.72,8.19,2.8,9.56-1.74c1.54-5.14-4.32-5.76-7.48-7.63c-22.68-13.46-26.66-36.02-9.67-56.21c3.58-4.25,7.55-8.22,11.69-11.94
	c3.93-3.54,9.28-7.1,14.04-4.93c11.3,5.15,25.3,9.34,31.88,18.49c6.44,8.96,15.25,21.36,8.67,35.39
	C623.13,286.09,623.37,287.81,625.64,289z"/>
<path class="st0" d="M151.08,355.25c-8.85,20.25-19.53,36.56-21.97,56.97c-2.34,19.57-3.9,19.89-23.76,22.2
	c-8.29,0.96-11.66,3.58-12.05,12.14c-0.43,9.49-4.28,18.31-8.59,26.86c-15.58,30.93-26.73,63.07-26.5,98.34
	c0.05,8.06-18.18,22.2-30.34,23.95c-3.86,0.55-7.92,0.53-11.79,0.01c-10.31-1.38-12.96-6.17-8.36-15.49
	c2.07-4.19,4.88-8.19,8.07-11.6c6.15-6.55,10.86-13.38,10.29-22.97c-0.23-3.96,0.68-9.18,3.83-10.81
	c13.4-6.91,12.5-20.07,14.32-31.62c4.22-26.85,6.52-54.03,14.71-80.14c3.98-12.67,3.52-25.51,2.53-38.58
	c-2.3-30.4,3.11-60.63,2.56-91.08c-0.22-12.3-7.37-17.59-16.36-26.71c0.27,8.61,4.79,11.02,7.24,14.64c4.08,6,4.54,8.4-3.84,13.49
	c-12.42,7.55-15.11-2.51-17.41-7.55c-11.24-24.67-25.03-47.98-37.05-72.21c-2.93-5.92-2.02-12.32,0.18-18.48
	c5.61-15.65,11.94-31,21.41-44.73c7.62-11.05,15.47-21.84,20.82-34.31c1.79-4.17,4.92-8.72,8.7-10.93
	c14.83-8.63,25.99-21.83,40.1-31.19c8.42-5.59,10.02-10.01,2.75-18.53C75.52,39.28,86.73,4.89,108.21,0.59
	c11.81-2.36,20.86,2.56,27.81,11.62c8.34,10.88,10.56,23.68,9.71,36.99c-0.59,9.16,1.66,13.73,11.91,10.63
	c9.69-2.92,17.84-0.11,24.03,8.07c5.75,7.59,13.53,10.23,22.85,9.89c28.81-1.06,57.53,1.06,86.28,2.36
	c31.42,1.42,61.33,33.87,59.98,65.6c-0.09,2.08-1.11,5.28-2.42,4.33c-9.38-6.81-7.29,2.22-8.36,5.98
	c-5.38,18.87-24.17,32.21-41.86,29.47c-18.96-2.94-33.3-20.42-32.33-39.41c0.97-19.06,15.94-33.41,36.46-35.24
	c2.65-0.24,7.67,2,7.34-3c-0.37-5.53-5.08-7.97-10.39-7.09c-13.59,2.26-27.25,4.33-40.61,7.6c-24.1,5.91-48.12,7.94-72.53,2.19
	c-10.2-2.4-13.51,2.11-14.48,12.44c-3.1,32.86,0.91,65.4,2.78,98.03c0.47,8.23,5.68,14.83,10.6,20.6
	c12.55,14.69,19.21,32.28,27.65,49.19c8.17,16.39,16.07,32.49,17.55,50.85c1.54,19.12,9.59,36.55,13.47,54.7
	c4.51,21.1,9.22,42.65,10.91,64.44c0.95,12.19,0.98,24.5,2.81,36.55c3.47,22.88,14.17,41.96,33.11,55.77
	c4.63,3.38,6.86,7.38,6.7,12.94c-0.16,5.51-3.54,8.52-8.15,10.56c-12.09,5.35-24.7,8.02-37.95,7.58
	c-8.09-0.27-12.36-3.81-12.12-12.44c0.35-12.62-0.5-25.29,1.64-37.81c0.76-4.45,0.32-8.55-1.25-12.74
	c-7.2-19.2-14.28-38.45-21.43-57.67c-0.82-2.22-2.62-4.41-2.55-6.57c0.79-25.99-17.31-41.09-32.59-58.04
	C171.21,386.15,159.89,372.98,151.08,355.25z M62.33,274.12c15.66-40.01,19.87-78.92-2.81-118.78
	c-9.59,15.91-21.64,28.17-33.75,40.37c-2.36,2.37-2.96,5.37-3.05,8.65c-0.52,19.72,7.09,36.41,21.11,49.39
	C50.47,259.9,57.3,265.56,62.33,274.12z"/>
<path class="st0" d="M275.07,937.25c14.29,24.11,23.77,49.41,30.89,75.84c2.03,7.54,8.84,12.15,16.36,14.62
	c10.41,3.43,16.46,9.77,15.27,21.42c-0.13,1.23,0.26,2.51,0.29,3.76c0.11,4.13,7.34,8.28,1.18,12.02
	c-4.65,2.83-9.49-1.15-14.07-3.18c-30.9-13.64-47.94-40.77-65.49-67.35c-11.69-17.7-24.92-36.44-42.47-45.76
	c-25.1-13.33-36.17-39.58-59.09-53.71c-3.86-2.38-6.91-6.01-12.86-6.3c-1,6.61,2.98,10.94,6.42,15.3
	c9.09,11.52,16.03,23.6,12.75,39.19c-0.48,2.29-0.28,5.31,0.86,7.27c10.34,17.87,16.72,37.62,24.37,56.51
	c8.68,21.45,26.18,39.3,26.52,64.36c0.11,7.86-0.06,8.78-8.48,7.21c-17.63-3.29-26.69-13.3-30.85-29.95
	c-2.18-8.74-7.94-15.26-15.56-20.62c-19.1-13.44-31.69-32.08-40.5-53.51c-1.24-3.02-2.81-7.05-5.34-8.22
	c-17.96-8.31-24.21-26.13-34.07-40.97c-16.17-24.34-28.71-49.66-31.64-79.88c-1.29-13.34-8.14-26.14-4.32-40.38
	c1.14-4.23-0.62-6.4-6.13-6.6c-28.97-1.06-49.13-38.28-33.88-62.46c10.78-17.09,23.46-32.83,37.22-47.63
	c14.98-16.11,35.23-20.34,55.57-24.18c18.8-3.55,18.89-3.46,16.53-21.95c-1.19-9.38,0.27-18.5,2.73-27.43
	c0.97-3.53,2.95-7.15,5.44-9.83c13.49-14.53,29.67-7.06,44.99-4.73c12.48,1.9,20.27,9.43,22.71,22.12
	c0.82,4.27,1.46,9.14-1.56,12.11c-8.02,7.86-8.34,18.96-13.05,28.12c-3.6,7.01-1.21,11.14,5.48,13.72
	c48.86,18.83,53.13,61.77,55.19,104.82c1.02,21.28,1.4,42.85-1.92,64.21c-1.03,6.6,2.51,12.3,7.7,16.47
	c11.45,9.2,16.16,20.94,14.62,35.56c-1.07,10.17,3.19,17.3,12.35,22.68c52.17,30.64,104.33,61.32,156.01,92.78
	c21.21,12.91,40.93,12.64,61.18-0.99c6.61-4.45,13.38-8.9,21.21-10.9c7.04-1.8,14-1.13,16.89,6.68c2.6,7.05-2.72,11.2-8.11,13.74
	c-17.92,8.44-36.65,14.9-56.23,17.88c-11.96,1.82-21.8-5.46-31.5-11.15c-40.59-23.82-80.97-47.99-121.46-71.98
	C296.55,949.64,285.79,943.48,275.07,937.25z"/>
</svg>
