<?xml version="1.0" encoding="utf-8"?>
<!-- Generator: Adobe Illustrator 27.8.1, SVG Export Plug-In . SVG Version: 6.00 Build 0)  -->
<svg version="1.1" id="Layer_1" xmlns="http://www.w3.org/2000/svg" xmlns:xlink="http://www.w3.org/1999/xlink" x="0px" y="0px"
	 viewBox="0 0 1920 1080" style="enable-background:new 0 0 1920 1080;" xml:space="preserve">
<style type="text/css">
	.st0{opacity:0.5;}
</style>
<path class="st0" d="M1575.42,1167.16c-4.38-2.19-8.85-4.21-13.11-6.61c-7.1-4-8.48-8.37-5.04-15.8c1.11-2.4,2.02-4.71,1.75-7.39
	c-0.13-1.32,0.14-2.69,0.99-3.67c3.4-3.91,4.96-8.69,6.65-13.44c1.52-4.29,4.26-7.39,8.95-8.21c2.42-0.42,2.48-2.2,2.73-4.04
	c1.81-12.84,1.42-25.76,1.51-38.66c0.02-3.15-0.64-6.47,1.89-9.21c0.83-0.89,0.09-2.23-0.17-3.35c-1.62-7.04-3.64-14.02-4.76-21.14
	c-2.39-15.18-0.03-30.1,3.4-44.89c1.52-6.55,3.51-12.97,6.18-19.14c1.86-4.31,0.87-7.94-2.36-10.87
	c-4.68-4.25-9.58-8.25-14.49-12.24c-2.48-2.02-3.74-0.87-3.93,1.96c-0.59,8.72-3.89,16.82-5.78,25.24
	c-1.61,7.17-6.48,12.6-12.04,17.16c-2.67,2.19-3.27,4.52-2.94,7.74c0.74,7.24,0.11,14.46-1.34,21.56
	c-3.45,16.93-14.61,25.75-30.97,28.86c-4.43,0.84-8.9,1.44-13.42,1.75c-4.12,0.28-8.21,0.93-12.04,2.63
	c-12.84,5.7-26.43,7.78-40.34,8.07c-7.87,0.16-15.75,0-23.63,0.12c-5.8,0.09-6.69,0.77-7.86,6.34c-1.07,5.09-4.22,7.74-9.29,8.41
	c0.85,2.56,3.47,4.47,1.56,7.06c-2,2.72-4.84,3-8,2.4c-2.55-0.48-5.11,3.99-4.25,7.39c0.31,1.23,0.99,2.38,1.53,3.55
	c1.77,3.83,2.7,7.79,2,12.04c-2.16,13.16-10.23,18.55-23.31,15.57c-17.48-3.98-29.17-17.14-30.62-34.49
	c-0.26-3.15,0.14-6.2,1.52-9.05c3.05-6.35,2.5-12.29-1.12-18.36c-7.85-13.15-6.97-33.55,1.58-43.97c3.6-4.38,8.37-6.74,13.69-8.27
	c2.04-0.59,3.22,0.49,4.26,1.86c2.01,2.66,4.67,3.62,7.93,4.15c4.81,0.77,9.5,2.27,14.23,3.49c0.48,0.12,1.15,0.37,1.32,0.75
	c2.22,4.86,6.14,3.07,9.59,2.33c6.57-1.4,12.66-4.3,18.96-6.46c7.79-2.67,13.91-8.07,21.42-10.95c6.17-2.37,12.36-4.48,19.03-4.9
	c1.92-0.12,3.83-0.56,5.71-1c0.86-0.2,1.74-0.74,1.81-1.79c0.07-1.05-0.82-1.2-1.58-1.28c-1.52-0.16-1.99-1.18-1.86-2.44
	c1.81-17.19-5.94-32.55-9.24-48.76c-0.82-4.04-2.15-7.97-2.53-12.12c-0.18-2-1.29-3.63-2.54-5.13c-0.91-1.09-2.09-2.02-2.76-3.23
	c-10.5-18.96-24.04-36.46-26.07-59.3c-1.38-15.48-1.47-30.3,4.7-45.18c12.66-30.54,25.57-60.97,40.28-90.58
	c5.05-10.17,7.87-20.5,9.01-31.66c1.8-17.6,5.03-34.98,9.28-52.17c0.59-2.39,1.88-3.96,3.77-5.55c10.68-8.99,22.6-15.76,35.53-20.89
	c2.79-1.11,5.08-3.04,7.24-5.11c5.44-5.23,11.72-9.27,18.17-13.12c4.99-2.98,10.57-1.85,15.88-2.5c2.54-0.32,5.17,0.1,7.74-0.11
	c5.88-0.49,11.2,0.59,15.99,4.29c3.59,2.76,7.42,2.51,11.13-0.1c1.79-1.26,3.55-2.43,6-2.29c2.03,0.11,2.13-1.96,2.62-3.34
	c4.73-13.4,9.86-26.64,15.39-39.72c2.37-5.6,4.98-11.08,8.51-16.05c5.34-7.51,12.55-10.36,21.59-8.73c1.43,0.26,3.23,1.61,4.24-0.05
	c0.96-1.57-0.85-2.72-1.75-3.92c-0.3-0.4-0.59-0.81-1.15-1.58c2.27-0.41,3.74,0.71,5.05,1.66c4.86,3.51,10.44,4.49,16.15,4.42
	c4.88-0.06,8.54,1.59,11.15,5.61c1.29,1.98,2.87,3.17,5.38,3.12c1.87-0.04,3.48,0.95,4.88,2.13c6.72,5.66,13.1,11.68,19.17,18.03
	c3.11,3.25,4.21,7.02,2.85,11.4c-0.6,1.92-0.29,3.79,0.02,5.73c0.4,2.49-0.48,6.72-1.8,6.46c-3.48-0.68-3.99,2.45-6.09,3.25
	c-0.7,0.27-1.64,1.44-1.54,2.05c0.89,5.29-3.13,8.5-5.25,12.43c-1.1,2.04-1.55,3.81-0.7,5.81c1.51,3.58,1.05,7.1-0.04,10.61
	c-2.97,9.5-7.37,18.57-14.45,25.34c-5.79,5.53-12.97,10.2-21.86,10.15c-2.31-0.01-4.66,0.1-6.94,0.48
	c-1.62,0.26-3.44,0.82-3.51,2.99c-0.05,1.84,1.3,2.74,2.81,3.3c13.79,5.14,24.06,14.94,31.71,26.84
	c6.09,9.48,14.8,16.03,22.04,24.16c2.65,2.98,6.37,2.73,9.79,2.18c8.24-1.32,15.25,0.66,21.33,6.48c3.26,3.12,7.42,4.15,11.98,4.7
	c8.95,1.07,17.87,2.29,26.88,2.84c4.23,0.26,7.48-0.23,10.61-3.66c9.57-10.5,18.82-21.27,27.88-32.21c4.54-5.49,3.9-12.1,4.73-18.39
	c2.67-20.07,4.52-40.28,10.08-59.85c1.81-6.36,4.77-12.21,8.37-17.81c10.99-17.06,36.51-19.38,51.67-8.41
	c6.91,5,12.52,11.18,15.88,19.15c2.91,6.9,6.59,13.63,8.32,20.82c2.25,9.33,1.05,18.75-4.29,27.19
	c-6.18,9.79-14.86,16.73-25.08,21.87c-12.45,6.26-25.68,10.04-39.38,12.32c-1.52,0.25-3.02,0.67-4.53,1.01
	c-11.87,2.68-21.72,8.08-28.53,18.8c-4.69,7.39-10.45,14.1-15.88,21c-1.66,2.11-1.83,3.52,0.22,5.55c3.55,3.51,3.63,6.19-0.65,8.78
	c-5.1,3.09-5.39,8.04-6.7,12.72c-0.34,1.24-0.2,2.96-1.31,3.5c-5.19,2.57-9.03,8.56-16,6.69c-2.8-0.75-4.29,0.25-5.56,2.66
	c-1.44,2.73-3.27,5.26-4.9,7.89c-1.21,1.95-2.62,2.28-4.44,0.77c-2.92-2.43-5.18-5.35-6.91-8.74c-1.14-2.24,0.5-3.26,1.54-4.67
	c1.4-1.91,4.64-3.64,3.61-5.86c-1.05-2.25-4.51-1.16-6.83-0.96c-8.76,0.73-17.53,0.84-26.3,0.69c-7.28-0.13-14.28-1.27-21.01-4.46
	c-6.42-3.04-13.52-4.23-20.34-6.19c-1.92-0.55-3.48,0.68-5.12,1.36c-7.79,3.22-9.81,2.84-15.74-3.03c-2.2-2.17-4.78-3.34-7.94-3.49
	c-5.4-0.26-10.85-0.36-16.01-2.35c-2.28-0.88-3.92,0.12-4.6,2.22c-4.52,13.84-13.74,24.73-22.39,35.98
	c-5.25,6.83-8.96,14.36-11.37,22.69c-3.65,12.6-10.52,23.52-18.94,33.47c-1.89,2.23-2.95,3.43,0.06,6.27
	c2.8,2.64,5.16,5.12,8.92,6.6c3.82,1.51,5.85,5.37,7.17,9.24c1.68,4.93,3.85,9.66,6.91,13.81c4.18,5.66,6.1,12.41,9.59,18.4
	c5.85,10.06,13.2,19.09,19.32,28.99c9.97,16.11,8.83,32.54,2.1,48.94c-3.23,7.85-5.22,15.47-4.85,23.94
	c0.8,18.56-0.01,37.14-6.98,54.54c-5.39,13.44-6.22,27.23-6.76,41.27c-0.08,2.09,0.05,4.33,2.63,4.29c6.87-0.11,7.42,5.24,8.87,9.8
	c0.69,2.19-0.86,5.39,0.83,6.6c1.63,1.16,3.58-1.74,5.7-2.31c4.98-1.34,8.2,0.82,8.33,5.97c0.06,2.32,0.34,4.77-0.25,6.95
	c-1.17,4.31,0.99,6.8,3.95,9.17c3.87,3.1,7.98,5.54,12.92,6.7c5.86,1.37,11.11,4.15,15.39,8.5c3.33,3.39,3.63,5.93,1.31,10.11
	c-2.87,5.15-7.84,7.22-13.07,8.97c-2.17,0.73-4.67,0.5-6.53,2.16c-10.07,0-20.14,0-30.21,0c-4.46-1.89-8.9-3.83-13.39-5.63
	c-1.56-0.62-3.33-0.54-4.93-0.1c-5.17,1.43-10.2,3.26-14.99,5.72C1588.85,1167.16,1582.14,1167.16,1575.42,1167.16z"/>
<path class="st0" d="M2.49,1007.73c4.6-7.82,11.46-13.59,18.46-18.93c7.87-6,10.01-14.28,11.21-23.17c0.63-4.66,1.07-9.4,1.02-14.09
	c-0.12-11.74,3.62-22.98,3.8-34.75c0.19-12.54,1.96-25.06,2.91-37.59c0.9-11.93,4.84-22.85,10.47-33.29
	c7.74-14.35,15.4-28.74,23.06-43.13c0.58-1.09,1.84-2.35,1.06-3.5c-0.9-1.34-2.41-0.14-3.54,0.14c-5.36,1.36-10.19-0.22-14.86-2.55
	c-2.89-1.44-3.44-3.83-1.58-6.4c2.25-3.11,4.44-6.37,9.05-6.34c2.38,0.01,3.09-1.89,2.97-3.92c-0.23-3.85-0.49-7.71-1.02-11.52
	c-0.46-3.3-0.45-6.53,0.08-9.81c1.44-8.95,1.39-17.9,0.48-26.92c-0.6-5.95-0.66-12.06,3.51-17.19c0.95-1.18,0.71-2.74,0.68-4.16
	c-0.57-24.05,1.27-48.01,2.48-72c0.15-3,0.57-5.98,0.71-8.97c0.09-1.96,1.35-3.07,2.62-4.22c6.67-6.03,8.21-13.37,5.39-21.72
	c-0.73-2.15-0.31-3.83,1.06-5.55c4.2-5.3,4.41-16.9,0.11-22.28c-11.46-14.36-19.35-30.34-22.48-48.52
	c-2.8-16.23-0.97-31.37,10.77-44.07c0.87-0.94,1.61-2.01,2.34-3.07c4.38-6.32,3.6-8.94-3.04-12.85
	c-11.59-6.82-21.61-15.57-29.44-26.52c-6.47-9.04-6.65-19.09-2.3-28.99c5.1-11.62,13.08-21.11,23.42-28.51
	c5.9-4.22,12.68-5.99,19.84-5.78c7.93,0.23,10.53,3.75,8.73,11.44c-0.46,1.96,0.58,2.21,1.86,2.56c2.29,0.62,4.67,1.67,5.46,3.81
	c1.81,4.88,5.95,5.62,10.1,6.54c7.66,1.69,8.84,3.11,9,10.99c0.06,2.98,3.5,6.75,6.31,6.89c1.07,0.05,1.53-0.65,1.63-1.59
	c1.23-12.24,8.94-21.54,14.82-31.55c5.36-9.13,9.4-18.51,11.34-28.94c1.01-5.45,2.84-10.78,4.57-16.07c1.01-3.09,1.31-6.13,0.9-9.29
	c-2.17-16.81-1.12-33.3,4.01-49.58c3.65-11.57,6.94-23.26,8.6-35.37c1.12-8.2,5.72-15.59,6.09-24.04c0.07-1.57,0.5-3.16-0.2-4.64
	c-2.78-5.94-5.56-11.88-8.47-17.76c-0.87-1.75-2.88-3.35-1.46-5.37c1.36-1.95,3.42-0.28,5.18-0.15c0.4,0.03,0.81,0,1.4,0
	c-0.46-9.68-1.42-19.2-1.2-28.75c0.06-2.51-1.61-3.85-3.08-5.38c-26.89-28.11-15.47-73.04,21.57-84.84
	c29.08-9.27,60.99,10.93,65.27,41.31c4.07,28.87-16.08,55.08-45.03,58.37c-4.89,0.56-8.08,2.12-10.44,7
	c-3.09,6.39-5.27,12.19-3.03,19.49c2.08,6.78,1,13.77-0.93,20.71c-2.52,9.07-1.62,18.47-1.15,27.74
	c1.01,20.03,0.36,40.02-0.83,60.02c-0.45,7.48-1.37,14.73-4.59,21.63c-1.8,3.85-0.92,8.2-0.84,12.32
	c0.11,5.41-0.87,10.42-3.32,15.31c-4.2,8.39-5.57,17.69-7.89,26.67c-1.88,7.26-4.59,14.18-8.85,20.35c-2.78,4.02-3.74,8.3-3.12,13
	c1.96,14.8,1.63,29.68,1.52,44.56c-0.01,1.71-0.14,3.43,1.06,4.9c7.53,9.19,11.26,20.18,14.37,31.36
	c9.72,35.01,11.12,70.43,4.81,106.19c-0.42,2.39-0.87,4.79-1.06,7.21c-0.42,5.43-0.54,10.57,3.71,15.19
	c3.98,4.33,5.42,9.83,4.11,15.99c-2.04,9.64-0.51,19.4-0.07,29.08c0.8,17.6,0.44,35.15,0.02,52.74
	c-0.6,25.33-6.03,49.76-14.35,73.35c-4.39,12.45-4.89,24.71-4.97,37.34c-0.07,10.73,0.15,21.46-0.7,32.16
	c-0.47,5.9-2.73,11.35-4.98,16.78c-7.1,17.16-11.06,35.07-13.1,53.5c-0.56,5.07-2.34,9.99-3.51,14.99
	c-1.27,5.43-2.49,10.86-3.7,16.3c-0.59,2.68-0.43,5.21,0.44,7.96c1.96,6.22,0.9,12.65-2.91,17.58c-9,11.63-10.66,25.3-12.55,39.06
	c-1.31,9.48-1.4,19.1-3.31,28.51c-0.75,3.69-2.02,7.17-4.15,10.27c-3.23,4.69-7.56,5.79-12.71,3.31
	c-11.79-5.68-22.32-28.82-18.8-41.32c0.59-2.11,1.86-3.85,3.08-5.62c4.86-7.07,4.6-14.18,0.16-21.29c-0.98-1.57-1.99-3.16-3.22-4.55
	c-6.2-7.02-6.29-15.02-3.82-23.4c1.6-5.41,5.87-7.92,10.9-9.29c4.41-1.2,8.86-2.3,13.35-3.12c3.21-0.59,4.73-2.32,5.01-5.4
	c0.62-6.69,1.95-13.41,1.63-20.05c-0.36-7.62,3.29-14.39,3.26-21.89c-0.01-3.86,0.32-7.71-0.56-11.49
	c-4.14-17.73-1.51-34.94,3.96-51.9c2.98-9.24,6.51-18.24,6.98-28.18c0.35-7.34-0.48-14.57-0.79-21.83
	c-0.18-4.29-4.31-6.53-6.56-9.75c-1.05-1.51-2.24-0.11-3.12,0.85c-7.73,8.5-14.12,17.87-18.4,28.59c-1.71,4.27-3.66,8.44-6.32,12.15
	c-6.11,8.55-9.6,18.15-11.96,28.25C84.02,881.89,80.1,894,75.5,905.87c-5.02,12.95-8.34,26.38-12.03,39.74
	c-2.92,10.57-5.11,21.2-3.2,31.64c2.71,14.74-0.34,28.99-0.88,43.45c-0.51,13.71,4.47,25.74,11.32,37.19
	c1.39,2.33,3.1,4.47,4.46,6.82c2.28,3.96,1.3,6.63-3.2,7.67c-8.6,1.98-17.01,1.19-25.1-2.59c-6.79-3.18-13.01-7.2-18.46-12.34
	c-4.63-4.37-7.8-9.39-7.41-16.19c0.21-3.53-1.16-6.88-3.77-9.29c-4.97-4.59-9.44-9.55-13.07-15.27c-0.35-0.55-1.11-0.84-1.68-1.26
	C2.49,1012.88,2.49,1010.31,2.49,1007.73z"/>
<path class="st0" d="M1781.1,297.34c3.34,18.02,4.02,35.67,5.33,53.25c0.33,4.46,1.9,8.01,5.64,10.75
	c5.69,4.18,9.09,9.85,9.42,17.05c0.09,2,0.96,3.27,2.64,4c1.92,0.84,3.88,1.65,5.9,2.21c13.62,3.79,25.38,10.58,35.43,20.62
	c13.52,13.5,26.33,27.71,40.62,40.43c3.35,2.98,6.7,5.95,10.11,8.85c2.6,2.2,5.07,4.59,8.98,4.32c1.57-0.11,2.92,1.12,4.08,2.21
	c1.73,1.62,3.42,3.28,5.12,4.94c7.08,6.88,7.55,13.58,0.96,20.89c-3.04,3.37-4.79,7.01-5.84,11.37
	c-3.53,14.63-17.98,24.22-32.88,22.11c-3.38-0.48-6.83-0.77-9.99-2.21c-3.82-1.74-4.74-4.17-2.99-8c0.6-1.31,1.25-2.71,2.24-3.7
	c5.89-5.92,6.72-13.48,7.06-21.19c0.22-5.03,0.03-5.11-4.64-3.48c-6.46,2.24-8.92,1.5-12.78-3.85c-2.24-3.1-1.53-4.94,2.22-6.02
	c3.43-0.99,6.83-0.29,10.19,0.18c3,0.41,3.17-1.06,2.47-3.17c-0.92-2.79-2.65-5.12-4.54-7.35c-8.24-9.73-18.51-16.73-29.85-22.33
	c-11.46-5.66-22.8-11.53-33.82-18.03c-5.27-3.11-11.13-4.85-16.98-6.34c-12.92-3.31-22.99-10.81-31.58-20.65
	c-2.28-2.61-3.89-5.59-5.08-8.86c-7.06-19.3-14.22-38.56-20.4-58.17c-2.94-9.34-7.45-18.01-12.21-26.53
	c-2.58-4.62-2.75-4.63-7.2-1.97c-15.06,8.98-29.67,18.64-44.15,28.52c-6.42,4.38-12.71,8.97-19.72,12.39
	c-1.13,0.55-1.97,1.29-2.52,2.39c-2.12,4.24-4.02,8.61-8.27,11.33c-1.37,0.88-0.76,2.36-0.44,3.63c1.65,6.51,3.56,12.97,4.89,19.54
	c1.92,9.49,2.05,19.03,0.3,28.66c-2.21,12.21-0.59,24.43,0.97,36.58c0.72,5.61,1.9,11.16,2.81,16.74c0.45,2.73,1.49,4.64,4.23,6.08
	c6.78,3.55,12.84,18.81,10.01,25.82c-3.11,7.72-9.59,12.06-17.7,12.71c-22.28,1.81-44.47,5.31-66.93,3.9
	c-2.66-0.17-6.08,1.56-7.8-1.86c-1.41-2.8,0.78-10.23,3.32-12.41c2.54-2.17,5.53-3.6,8.61-4.77c8.44-3.21,16.09-7.81,23.55-12.81
	c2.34-1.57,4.27-3.33,5.39-6.07c1-2.43,2.69-4.73,5.01-5.97c2.95-1.58,3.54-3.8,3.35-6.81c-0.7-11.14-3.35-21.89-6.85-32.38
	c-6.37-19.07-10.84-38.51-13.09-58.49c-0.38-3.39-1.17-6.77-3.06-9.73c-7.15-11.21-4.79-22.22,1.2-32.81
	c3.1-5.48,7.09-10.46,10.81-15.58c15.26-21.03,30.82-41.81,49.75-59.77c5.9-5.6,12.04-10.96,18.07-16.43
	c1.02-0.92,2.16-0.83,3.34-0.44c2.23,0.73,3.14,0,3.08-2.39c-0.2-8.17,1.57-15.91,4.91-23.38c1.87-4.19,1.28-4.79-3.3-4.33
	c-8.02,0.81-16.03,1.02-24.04-0.09c-1.33-0.19-2.84-0.28-3.53-1.47c-3.16-5.44-9.21-7.43-13.87-10.8
	c-3.35-2.42-8.74-4.86-13.93-2.15c-2.18,1.14-3.25,0.15-3.09-2.22c0.1-1.43,0.65-3.27-1.67-3.08c-1.57,0.13-4.19-1.82-4.52,1.81
	c-0.16,1.76-1.29,1.76-2.52,0.9c-0.43-0.3-0.79-0.7-1.14-1.09c-3.24-3.58-4.4-13.23-1.75-17.3c2.93-4.5,5.68-7.48,12.33-4.5
	c6.92,3.1,13.61,6.3,19,11.77c3.46,3.51,7.86,3.82,12.15,2.57c5.88-1.7,11.83-2.36,17.9-2.76c10.44-0.7,12.05-2.84,10.31-13.03
	c-0.29-1.69-0.46-3.43-1.03-5.02c-3.96-11.08-4.88-22.58-5.08-34.22c-0.07-4.04-0.68-4.46-4.42-3.01c-5.06,1.95-9.75,4.63-14.15,7.8
	c-3.88,2.8-8.01,4.57-12.93,3.24c-1.35-0.36-2.69-0.12-3.78,0.68c-3.36,2.45-6.73,1.9-10.45,0.75c-13.97-4.3-28.08-8.14-41.99-12.59
	c-9.12-2.92-18.1-3.87-27.54-1.76c-9.88,2.21-19.88,3.91-29.85,5.72c-3.14,0.57-4.77,2-5.17,5.36c-0.58,4.9-2.86,9.04-7.2,11.71
	c-3.36,2.07-4.68,1.32-4.88-2.64c-0.06-1.15-0.15-2.3-0.29-4.35c-1.78,2.15-3.07,3.7-4.35,5.25c-2.05,2.48-4.4,3.56-7.65,2.19
	c-3.66-1.54-7.4-1.31-11.2-0.14c-12.72,3.89-25.92,5.08-38.96,7.24c-6.78,1.12-13.52,1.1-20.24,2.04
	c-33.78,4.69-67.8,4.15-101.76,3.85c-9.8-0.09-16.24,2.14-20.91,11.56c-5.78,11.65-14.26,21.78-22.09,32.23
	c-9.15,12.22-16.91,25.46-26.92,37.07c-4.99,5.79-9.71,11.82-15.17,17.18c-1.87,1.83-1.97,3.34-0.58,5.48
	c3.9,5.98,9.26,10.45,14.94,14.52c13.49,9.67,27.55,18.51,40.66,28.74c11.01,8.59,20.18,19.33,31.94,27.05
	c3.95,2.59,7.51,5.77,11.2,8.76c1.44,1.17,3.1,2.64,3.05,4.46c-0.18,6.75,5.22,11.69,5.6,18.3c0.12,1.98,2.01,3.93,3.3,5.75
	c11.9,16.83,22.3,34.41,30.03,53.66c6.46,16.1,15.67,30.75,28.26,42.98c1.16,1.12,2.37,3.26,4.07,2.48c1.41-0.65,0.47-2.88,0.58-4.4
	c0.12-1.84,0.03-3.69,0.08-5.53c0.03-0.92,0.12-2.17,1.22-2.19c3.91-0.08,3.65-3.17,4.12-5.6c0.58-3.02,1.6-5.83,3.25-8.42
	c1.42-2.24,3.43-3.27,6.05-2.71c2.48,0.53,4.38,1.89,4.91,4.55c1.43,7.21,1.25,14.18-3.38,20.38c-1.49,1.99-3.05,3.93-5.13,6.61
	c5.57-0.35,10.46-0.59,15.35-0.98c6.22-0.5,12.23-1.65,17.44-5.53c1.33-0.99,3.07-1.52,4.69-2.04c5.12-1.65,9.1-0.83,11.16,2.17
	c2.35,3.42,1.85,7.15-2.2,11.36c-6.77,7.04-13.98,13.65-22.67,18.3c-8.48,4.54-16.73,9.11-23.94,15.8
	c-5.14,4.77-12.03,7.62-19.72,5.84c-9.71-2.24-13.5-6.06-14.69-16c-0.63-5.31-2.54-9.88-5.53-14.16
	c-9.13-13.07-18.23-26.16-27.38-39.21c-2.05-2.92-4.52-5.49-7.15-7.9c-16.02-14.68-26.09-32.91-31.48-53.77
	c-1.43-5.54-6.28-7.33-10.04-8.46c-15.79-4.73-29.85-13.19-44.87-19.54c-26.92-11.39-54.14-22.11-80.18-35.54
	c-5.73-2.95-11.46-2.75-17.24,1.71c-26.12,20.12-50.83,41.88-75.36,63.88c-3.14,2.82-6.26,5.64-10.96,5.6
	c-1.98-0.01-2.85,1.91-3.35,3.51c-1.56,4.99-5.12,7.22-10.03,7.25c-3.65,0.02-6.24,1.83-8.66,4.11c-1.53,1.44-3.03,2.96-4.3,4.62
	c-12.26,16.07-27.96,28.19-44.86,38.88c-9.93,6.28-19.38,13.2-28.38,20.73c-1.52,1.27-2.79,2.71-3.69,4.56
	c-1.79,3.71-4.21,6.99-7.4,9.65c-0.81,0.67-1.91,1.33-1.83,2.45c0.29,3.96-2.39,5.92-5.08,7.86c-2.41,1.74-3.31,4.32-4.25,6.94
	c-2.1,5.86-4.76,7.23-10.55,5.36c-7.41-2.4-14.48-5.64-21.31-9.37c-2.28-1.25-4-2.91-4.6-5.61c-0.45-2.04-0.15-3.78,1.75-4.77
	c6.32-3.31,11.91-7.75,17.93-11.48c3.82-2.36,8.69-2.91,10.36-8.16c0.39-1.24,2.29-2.12,3.63-2.92c9.74-5.82,16.69-14.3,23.12-23.45
	c15.15-21.56,32.21-41.4,53.42-57.29c6.32-4.74,12.97-9.04,19.56-13.41c2.18-1.44,3.46-2.81,2.78-5.74
	c-0.84-3.6,0.88-6.11,4.43-7.26c1.38-0.45,3.12-0.68,3.75-2c2.24-4.72,6.5-6.89,10.68-9.39c3.1-1.85,4.99-5.01,6.53-8.28
	c7.6-16.09,15.3-32.09,25.57-46.76c3.09-4.42,5.03-9.68,8.73-13.82c0.96-1.07,1.73-2.28,2.94-3.13c2.63-1.86,3.74-4.67,3.17-7.6
	c-0.86-4.41,0.41-8.06,2.78-11.54c1.29-1.89,1.97-3.61,0.12-5.65c-1.28-1.41-1.01-3.24-0.26-4.87c2.09-4.54,4.51-8.4,9.11-11.38
	c6.67-4.32,12.86-9.53,12.46-19.17c-0.24-5.96,3.36-10.98,6.69-15.77c5.48-7.87,9.65-16.31,11.6-25.76
	c1.67-8.09,0.99-16.25,0.58-24.39c-0.1-2.06-1.24-2-2.69-1.43c-9.78,3.84-20.06,5.28-30.41,6.53c-11.55,1.39-23.13,1.58-34.71,1.18
	c-4.9-0.17-9.29-2.82-13.67-4.92c-14.26-6.83-26.66-16.42-38.74-26.46c-1.62-1.35-3.15-2.84-4.88-4.02
	c-3.29-2.24-5.23-4.97-4.74-9.2c0.14-1.19-0.36-2.72-1.09-3.7c-2.81-3.78-2.78-8.02-2.8-12.43c-0.02-6.98-0.35-13.95-0.7-20.92
	c-0.31-6.03,2.11-10.13,7.86-12.2c0.98-0.35,1.98-0.8,2.78-1.44c3.16-2.57,4.61-2.32,5.93,1.55c0.87,2.54,1.52,4.73,4.54,5.81
	c2.2,0.78,2.04,2.87,0.07,4.32c-1.44,1.06-2.36,2.54-1.41,4.05c1.11,1.76,2.55-0.05,3.84-0.31c1.03-0.2,2.01-0.64,3.05-0.81
	c1.42-0.24,2.63,0.19,3.27,1.6c0.6,1.32-0.02,2.39-1.02,3.1c-1.65,1.16-2.83,2.01-2.08,4.62c0.5,1.75-2.06,2.76-3.57,3.78
	c-3.55,2.38-3.81,3.7-0.95,6.84c2.77,3.04,6.24,5.24,9.67,7.47c11.28,7.33,23.7,12.57,36.54,15.66c13.67,3.28,27.73,2.55,40.4-5.33
	c6.42-3.99,13.76-5.94,20.6-9c12.24-5.47,24.88-10.09,37.42-14.87c6.13-2.33,12.38-4.88,18.84-0.98c0.26-0.63,0.47-1.02,0.42-1.05
	c-3.96-2.8-3.26-6.32-2.24-10.4c1.3-5.21,1.78-10.63,2.55-15.97c0.57-3.93,1.62-7.28,6.58-7.29c2.03,0,2.83-1.73,3.59-3.27
	c2.24-4.51,5.08-8.62,8.24-12.52c1.94-2.4,4.47-3.69,7.51-3.83c10.53-0.52,20.89-2.55,31.36-3.64c10.07-1.05,19.35,3.35,24.06,12.36
	c6.48,12.37,8.96,25.21,4.03,38.86c-1.88,5.2-3.33,10.58-6.17,15.37c-1.23,2.08-0.38,2.56,1.44,3.29
	c11.29,4.51,22.53,9.15,33.78,13.76c0.48,0.2,1.01,0.43,1.36,0.8c3.61,3.91,7.47,3.2,12.44,2.34c8.9-1.54,18.06-0.28,26.9,2.09
	c0.76,0.2,1.72,1,2.17,0.75c3.9-2.1,7.86-0.05,11.63-0.36c13.04-1.09,25.97-2.5,38.72,1.8c0.85,0.29,1.82,0.29,2.74,0.3
	c16.6,0.11,33.2,0.15,49.8,0.32c2.82,0.03,5.02-0.78,7.14-2.65c3.87-3.4,8.07-6.37,12.89-8.32c1.72-0.69,3.47-1.35,5.36-1.16
	c1.82,0.18,4.08,1.61,3.97-2.14c-0.03-1.11,1.64-1.07,2.65-1.26c6.41-1.2,11.4,1.26,13.65,7.81c1.45,4.22,3.69,5.24,7.79,5.12
	c9.21-0.28,18.44,0.18,27.63-0.86c1.55-0.17,3.1-0.23,4.61-0.98c-1.14-1.15-2.48-0.82-3.75-0.69c-11.77,1.25-20.07-6.67-19.13-18.28
	c0.71-8.77,0.69-8.73-7.17-12.82c-50.49-26.26-101.3-51.9-151.38-78.94c-4.59-2.48-9.24-4.89-14.1-8.7c2.6-0.03,3.87,0.96,5.19,1.65
	c54.22,28.82,109.69,55.16,164.55,82.71c3.59,1.8,5.88,2.33,9.05-1.18c5.72-6.35,18.82-6,24.93-0.04c1.26,1.23,2.66,2.68,2.56,4.32
	c-0.36,5.81,5.12,7.52,7.57,11.32c0.78,1.21,2.33,1,3.66,1.04c5.02,0.16,10.04,0.03,14.87-1.48c4.61-1.44,9.17-0.53,13.7,0.1
	c5.92,0.83,11.81,0.35,17.73,0.34c5.46-0.01,9.32-4.24,14.51-4.69c5.18-0.44,8.9-3.55,12.57-6.85c1.94-1.74,2.05-3.12,0.64-5.37
	c-6.86-10.93-11.67-22.7-13.72-35.5c-2.43-15.15,5.34-26.92,20.13-30.88c7.49-2.01,14.78-4.31,21.32-8.95
	c6.46-4.59,14.57-4,22.07-5.08c1.83-0.26,3.32,1.46,4.68,2.7c5.84,5.33,11.58,10.76,17.47,16.04c3.36,3.01,2.25,7.15,2.8,10.75
	c1.12,7.43,1.42,14.96-0.07,22.42c-0.25,1.26-0.34,2.44,0.93,3.12c8.41,4.54,13.35,12.61,19.48,19.41
	c8.13,9.01,14.93,19.08,21.59,29.22c3.29,5,4.94,10.28,4.78,16.36c-0.53,19.23-1.47,38.46-0.58,57.69
	c0.32,6.93,1.64,13.64,4.49,20.26c3.63,8.43,5.59,18.39,2.13,26.59c-3.34,7.91-1.96,15.61-3.43,23.28
	c-1.32,6.84-2.11,13.79-3.42,20.63c-0.44,2.27-0.16,4.03,1.01,5.95c3.87,6.3,3.65,8.03-1.77,12.71c-1.37,1.19-1.22,2.1-0.41,3.35
	c1.29,2.01,2.66,3.92,4.57,5.4c1.56,1.21,3.18,2.37,4.61,3.73c1.6,1.51,4.74,2.66,3.08,5.53c-1.55,2.68-4.21,1.05-6.44,0.48
	C1783.16,297.77,1782.4,297.63,1781.1,297.34z"/>
<path class="st0" d="M572.61,681.33c0.5,4.14,1,8.3,1.5,12.47c0.04,0.31,0.18,0.63,0.15,0.93c-1.67,12.51,3.47,24,5.14,35.99
	c1.13,8.09,4.79,14.04,9.99,19.66c6.18,6.69,12.95,12.85,18.23,20.37c5.96,8.48,9.84,17.56,8.7,28.18
	c-0.87,8.15,0.09,15.88,4.78,22.85c0.43,0.64,0.71,1.44,1.26,1.94c10.07,8.97,17.14,20.49,25.88,30.59
	c4.41,5.09,7.46,11.26,9.97,17.58c5.7,14.37,15.77,23.83,30.8,28.06c17.1,4.81,32.76,12.16,46.58,23.88
	c13.17,11.17,27.86,20.48,42.26,30.06c1.68,1.11,3.35,3.5,5.82,0.39c0.99-1.25,2.99,0.5,4.07,1.47c4.74,4.27,9.44,4.27,15.39,1.98
	c8.37-3.21,17.37-4.39,26.4-2.87c6.52,1.1,7.92,3.31,7.68,10.01c-0.49,13.2-1.09,26.33,4.39,38.99c2.46,5.69,1.36,12.13,0.75,18.22
	c-0.78,7.86-2.86,15.46-5.54,22.86c-1.15,3.16-1.75,7.72-5.69,7.91c-4.35,0.21-5.09-4.59-6.4-7.76c-3.25-7.83-5.87-15.92-9.67-23.54
	c-4.56-9.16-10.86-16.5-20.21-20.99c-2.27-1.09-4.54-2.1-7.03-2.65c-4.79-1.06-5.52-2.59-3.51-6.9c2.73-5.87,2.7-5.83-2.8-9.54
	c-16.8-11.36-34.46-20.51-54.66-24.53c-10.48-2.08-20.38-6.71-29.6-12.09c-12.43-7.26-25.55-10.89-39.85-11.13
	c-6.75-0.11-12.14-3.01-16.52-8.55c-7.92-10.03-17.66-18.31-27.32-26.62c-5.52-4.75-12.56-5.58-19.25-7.09
	c-3.63-0.82-6.79-2.18-9.77-4.36c-12.44-9.09-24.92-18.14-37.45-27.09c-5.15-3.68-5.38-3.17-9.51,1.36
	c-7.1,7.78-14.29,15.51-26.43,14.99c-4.99-0.22-9.81,1.88-14.38,4.12c-9.76,4.78-18.98,10.49-28.3,16.05
	c-3.63,2.16-4.87,4.29-3.63,9.1c3.07,11.91,3.06,24.28,2.69,36.54c-0.52,17.15-5.27,33.78-6.63,50.87
	c-1.11,13.93-1.34,27.6,3.51,40.94c0.93,2.55,1.77,5.02,4.67,6.1c2.39,0.89,2.99,3.16,3.34,5.34c1.31,8.06,2.73,16.11,3.69,24.21
	c0.83,7.04-1.57,10.01-8.36,10.13c-22.32,0.39-44.66,0.57-66.89-1.65c-11.59-1.16-21.33-7.2-30.44-14.07
	c-2.9-2.19-4.72-5.36-3.54-9.1c1.1-3.47,4.55-3.33,7.46-3.84c9.03-1.59,18.34,0.24,27.24-1.81c10.18-2.34,19.96-5.85,24.33-16.86
	c0.17-0.44,0.33-0.92,0.63-1.26c10.17-11.47,12.52-25.67,14.22-40.17c0.86-7.33,0.56-14.63-1.86-21.44
	c-5.95-16.78-8.23-34.21-9.68-51.75c-0.72-8.74-2.41-17.11-5.6-25.18c-2.79-7.05-2.5-12.75,3.28-18.8
	c6.91-7.23,12.47-15.77,18.55-23.78c1.79-2.36,3.59-4.72,3.29-8.08c-0.1-1.08,0.69-2.42,1.42-3.38
	c6.46-8.54,13.13-16.79,22.49-22.56c8.31-5.13,15.37-11.98,22.58-18.52c3.69-3.34,3.64-8.57,5.22-12.95
	c4.63-12.83-1.18-23.31-8.01-33.43c-1.86-2.76-3.82-2.75-4.77,0.76c-1.17,4.31-4.32,6.3-8.17,7.73
	c-16.33,6.06-33.04,10.11-50.59,9.91c-1.87-0.02-3.94-0.18-5.58,0.51c-8.43,3.57-17.04,2.05-25.6,1.13c-5.78-0.62-7.9-4-10.04-11.18
	c-1.74-5.84,1.55-10.69,1.65-16.09c0.03-1.39,1.81-2.06,3.1-2.64c13.31-5.95,21.36-4.65,31.79,5.19c1.28,1.21,2.38,2.21,4.47,1.89
	c10.42-1.57,18.39-7.76,26.47-13.77c1.43-1.06,0.99-2.54,0.31-3.85c-8.7-16.84-11.94-35.73-19.98-52.85
	c-4.02-8.56-6.19-17.82-4.74-27.5c0.4-2.68-0.51-4.84-2.13-6.96c-3.11-4.08-7.09-7.58-8.73-12.69c-0.17-0.54-0.74-1.21-1.25-1.34
	c-6.1-1.58-4.6-5.73-3.17-9.64c1.57-4.3,1.36-7.54-2.11-11.37c-5.74-6.35-5-21.13,0.73-29.42c6.81-9.85,16.51-16.04,27.7-19.39
	c11.87-3.56,26.82,5.92,31.88,19.39c2.51,6.67,3.72,13.63,3.94,20.76c0.07,2.2-0.05,4.42,0.23,6.6c0.56,4.33,2.22,5.08,6.04,2.87
	c1.36-0.79,2.74-1.6,3.9-2.64c4.2-3.76,7.75-5.06,13.94-2.24c6.76,3.07,15.01,2.77,22.56,4.19c5.24,0.98,10.4,2.43,15.61,3.58
	c7.13,1.57,13.22,5.09,18.29,10.21c7.22,7.31,16.05,12.04,25.12,16.44c7.49,3.64,15.2,6.9,22.43,11.01
	c7.7,4.37,11.25,12.38,14.88,19.96c1.49,3.11-0.87,5.96-3.51,7.51c-12.64,7.43-25.78,11.64-40.26,5.2
	C575.6,681.8,574.48,680.72,572.61,681.33z"/>
<path class="st0" d="M822.92,124.89c4.59-0.76,9.18-1.53,13.77-2.28c1.19-0.19,2.39-0.39,3.59-0.44c1.06-0.04,2.29,0.05,2.71,1.22
	c0.53,1.48-0.64,2.23-1.73,2.75c-1.5,0.7-3.05,1.33-4.64,1.81c-4.48,1.36-9.01,2.57-13.48,3.99c-1.33,0.42-3.62,0.48-3.44,2.32
	c0.21,2.1,2.43,1.17,3.77,1.24c3.62,0.19,7.27-0.01,10.88,0.3c2.65,0.23,7.15-0.79,7.12,2.71c-0.04,3.82-4.62,2.78-7.42,2.96
	c-4.07,0.26-8.16,0.08-12.25,0.13c-1.49,0.02-3.2-0.16-3.72,1.78c-0.46,1.71,0.52,2.98,1.78,3.87c2.46,1.75,5.07,3.28,7.54,5.02
	c0.95,0.67,2.13,1.62,1.27,2.98c-0.65,1.02-1.89,0.72-2.93,0.46c-3.86-0.96-7.49-2.58-10.69-4.86c-3.87-2.76-8.02-2.54-12.47-2.77
	c-18.32-0.94-34.88,6.63-52.3,9.98c-11.6,2.24-21.64,6-29.64,15.25c-4.7,5.43-11.28,9.09-17.49,12.87
	c-2.84,1.73-3.43,3.45-1.21,6.12c3.19,3.83,6.18,7.83,9.35,11.69c0.74,0.9,1.73,1.76,2.79,2.23c20.53,9.17,35.59,24.53,48.6,42.37
	c3.37,4.62,7.79,8.44,11.4,12.9c9.49,11.74,9.6,17.64,1.26,30.18c-15.31,23.02-33.93,42.83-56.11,59.42
	c-8.21,6.15-15.58,13.42-22.28,21.28c-4.6,5.39-7.44,11.71-9.93,18.23c-0.43,1.12-0.81,2.26-0.45,3.53
	c3.97,13.94,9.64,26.52,24.59,32.12c3.51,1.31,6.64,3.58,5.67,8.12c-0.98,4.55-4.74,5.79-8.67,5.82c-13.05,0.11-23.89-5.78-34-13.29
	c-2.9-2.16-5.64-4.62-8.08-7.28c-5.1-5.55-10.95-9.92-17.86-12.95c-3.05-1.34-5.88-3.11-8.29-5.48c-2.52-2.49-3.05-5.17-0.71-8.05
	c4.01-4.93,8.11-9.78,11.18-15.4c0.6-1.09,1.67-1.8,2.9-2.02c2.21-0.39,3.89-1.68,5.42-3.14c14.37-13.71,27.71-28.32,38.77-44.9
	c2.44-3.66,4.46-7.56,6.08-11.65c4.48-11.32,11.61-20.84,20.12-29.36c2.14-2.14,1.88-3.34-0.13-5.08c-4.73-4.07-5.62-4.07-9.59,0.44
	c-5.2,5.9-7.09,6.03-13.16,1.11c-7.22-5.84-15.14-10.58-23.65-14.22c-9.2-3.94-18.15-8.3-26.46-13.9c-1.31-0.88-2.47-2.24-3.99,0.17
	c-4.52,7.16-9.34,14.12-13.96,21.22c-3.07,4.72-5.09,9.96-7,15.22c-1.75,4.82-4.81,7.16-10.18,8.22c-7.75,1.53-15.33,4-20.9,10.69
	c-6.38,7.66-13.52,14.69-20.21,22.09c-1.91,2.12-3.77,4.41-5.07,6.92c-2.56,4.91-6.18,8.8-11.13,10.93
	c-15.4,6.62-28.84,16.52-42.91,25.34c-22.62,14.17-44.03,29.99-62.94,48.9c-15.64,15.64-26.91,34.53-37.8,53.59
	c-2.05,3.59-2.53,7.73-3.35,11.73c-0.4,1.92-0.56,3.92-1.16,5.78c-1.07,3.32-0.79,8.03-5.26,8.69c-4.94,0.72-8.7-2.28-11.16-6.39
	c-7.01-11.69-8.84-24.4-4.24-37.09c4.33-11.93,6.27-24.24,8.57-36.55c0.89-4.77,2.15-9.45,4.63-13.69c2.14-3.66,5.13-5.4,9.49-4.24
	c2.63,0.7,5.49,0.77,7.93,1.83c5.85,2.54,10.36,0.83,14.74-3.27c16.91-15.83,33.17-32.29,48.64-49.53c1.09-1.21,2.02-2.72,2.55-4.25
	c2.89-8.29,8.99-13.38,16.54-17.18c7.43-3.74,14.63-7.98,22.22-11.34c14.61-6.47,21.47-18.59,24.65-33.24
	c2.86-13.16,7.75-25.43,14.29-37.11c7.14-12.74,12.82-26.1,16.24-40.28c5.38-22.31,17.75-39.47,36.84-51.96
	c23.01-15.07,43.66-33,62.85-52.6c7.18-7.34,13.62-15.41,20.35-23.19c3.86-4.45,7.37-9.28,13.22-11.42c1.76-0.64,1.8-1.61,0.81-3.11
	c-4.81-7.33-9.54-14.72-14.29-22.09c-1.68-2.61-4.49-2.95-7.15-3.32c-9.27-1.29-18.56-2.47-27.86-3.64
	c-3.15-0.39-6.3-0.48-8.79-2.99c-0.62-0.62-1.96-0.64-2.99-0.71c-9.35-0.61-18.7-1.14-28.05-1.76c-1.94-0.13-3.55,0.46-5.08,1.53
	c-7.47,5.25-15.17,9.94-24.53,11.04c-2.82,0.33-4.97,2.04-6.62,4.38c-0.69,0.98-1.05,2.95-2.94,1.8c-1.47-0.9-2.47-2.27-2-4.19
	c0.53-2.13,1.73-3.85,3.34-5.3c2.26-2.04,4.84-3.6,7.5-5.07c1.26-0.7,3.38-1.12,3.16-2.8c-0.25-1.92-2.53-1.92-4.06-2.21
	c-4.15-0.81-8.38-1.21-12.51-2.07c-2.47-0.52-6.66,0.04-6.51-3.34c0.17-3.89,4.4-3.23,7.31-3.48c1.8-0.15,3.63,0.02,5.44-0.08
	c1.43-0.07,3.67,0.44,3.83-1.39c0.2-2.22-2.33-2.15-3.77-2.26c-3.76-0.31-7.55-0.15-11.33-0.3c-1.8-0.07-3.6-0.31-5.37-0.66
	c-1.43-0.28-2.6-1.2-2.5-2.78c0.1-1.55,1.31-2.25,2.78-2.54c4.82-0.97,9.63-0.37,14.46-0.18c2.33,0.09,6.45,1.69,6.77-1.15
	c0.37-3.3-4.15-2.28-6.48-3.21c-1.72-0.68-3.55-0.36-5.2,0.73c-1.34,0.88-2.94,2.33-4.16,0.02c-1.1-2.07-0.19-3.88,1.67-5.05
	c2.38-1.49,5.17-1.61,7.86-1.92c1.98-0.23,3.47-0.57,4.9-2.48c3.14-4.19,10.18-2.75,11.33,2.37c0.78,3.43,2.85,4.16,5.56,5.51
	c13.54,6.69,28.21,6.04,42.59,6.97c6.7,0.43,13.4-1.39,20.23-0.8c10.99,0.96,22.01,1.43,33.02,2.12c8.99,0.56,16.58,4.34,23.2,10.26
	c11.5,10.28,23.09,20.49,32.83,32.55c1.68,2.07,3.81,3.39,6.34,4.18c3.18,1,6.34,2.12,8.98,4.23c2.33,1.87,3.82,1.1,4.96-1.29
	c2.41-5.07,6.43-8.73,10.72-12.13c11-8.71,19.54-9.31,31.76-2.28c8.72,5.02,14.18,17.17,12.39,28.26
	c-1.14,7.07-3.6,13.72-7.37,19.87c-3.09,5.04-7.65,7.78-13.35,8.28c-3.08,0.27-4.74,1.34-5.33,4.35c-0.56,2.84-1.63,4.85-5.23,3.26
	c-1.36-0.6-3.33-0.26-3.43,1.79c-0.1,2.03,1.48,3.01,3.36,2.77c4.9-0.63,9.92-0.46,14.52-2.97c4.37-2.38,8.68-4.97,13.55-6.29
	c1.65-0.45,3.49-0.96,4.33,1.06c0.83,1.98-0.76,3.13-2.23,3.91c-3.58,1.9-7.25,3.65-10.88,5.46
	C822.77,124.22,822.85,124.55,822.92,124.89z M778.81,123.45c-8.85-0.98-16.38,1.72-22.59,8.06c-0.82,0.83-1.96,1.78-1.41,3.09
	c0.58,1.39,2.08,1.04,3.21,0.95c7.35-0.57,14.7-1.23,22.05-1.84c1.31-0.11,2.37-0.6,2.9-1.82c1.21-2.75,5.18-5.39,4.18-7.5
	C785.96,121.85,781.67,123.93,778.81,123.45z"/>
<g class="st0">
	<path d="M1146.36,663.97c-2.15-1.67-4.8-1.97-7.26-2.71c-5.49-1.65-6.7-3.09-6.97-8.79c-0.13-2.8-2.6-5.89,0.94-8.29
		c0.17-0.11,0.27-0.68,0.18-0.75c-3.54-2.73-1.04-5.94-1-9.06c0.04-2.83,0.8-4.87,2.78-6.57c2.45-2.11,4.09-4.79,4.22-7.9
		c0.72-18.33,13.08-25.13,28.43-28.84c17.3-4.18,36.86,4.13,44.41,18.87c4.32,8.44,4.02,17.03-1.07,25.02
		c-5.53,8.67-12.95,15.63-21.54,21.25c-5.06,3.3-7.65,7.87-8.42,13.72c-0.36,2.72,0.14,4.87,2.64,6.45c1.99,1.26,3.73,2.9,5.64,4.3
		c12.05,8.89,17.83,20.99,18.34,35.79c0.08,2.32,0.97,4.34,2.12,6.25c5.79,9.67,11.66,19.29,17.42,28.98
		c1.12,1.89,2.5,2.69,4.72,2.66c7.65-0.1,15.3-0.09,22.95,0c2.18,0.03,3.62-0.8,4.93-2.48c3.36-4.29,7.04-8.26,11.83-11.04
		c2.57-1.49,5.28-2.52,8.26-2.62c1.22-0.04,2.77-0.2,3.28,1.18c0.55,1.49-0.9,2.18-1.91,2.84c-2.38,1.56-5.22,2.61-6.38,5.96
		c2.43,0.56,3.92-0.95,5.46-1.85c4.2-2.46,8.69-3.68,13.52-3.64c2.54,0.02,4.24,0.96,2.97,3.84c-0.65,1.48-0.56,2.57,0.43,3.81
		c1.39,1.73,1.73,3.49-0.37,5.03c-0.56,0.41-1.33,0.96-0.82,1.68c3.94,5.46-1.33,5.67-4.11,7.3c2.6,4.54,2.19,5.45-3.07,6.51
		c-6.2,1.25-12.49,0.66-18.73,0.58c-5.64-0.07-10.95,0.7-16.26,2.86c-7.46,3.04-15.17,5.48-23.23,6.54
		c-9.09,1.2-15.15-2.35-18.74-10.96c-6.43-15.44-15.61-29.5-22.4-44.76c-1.21-2.72-2.44-3.28-4.56-0.32
		c-10.7,14.9-18.71,31.17-25.1,48.3c-0.63,1.69-1.15,3.44-1.88,5.09c-2.94,6.66-1.98,12.32,2.94,17.99
		c6,6.92,11.72,14.14,16.59,21.96c3.26,5.24,5.86,10.73,7,16.85c0.95,5.11,0.55,9.97-2.25,14.47c-0.99,1.59-1.55,3.13-0.76,5.09
		c8.7,21.38,15.18,43.6,24.33,64.82c4.42,10.24,10.16,19.56,19,26.53c16.79,13.24,28.7,30.5,40.32,48.06
		c5.76,8.7,11.76,17.24,17.61,25.88c6.49,9.58,13.41,18.8,22.21,26.45c2.73,2.38,5.11,5.13,7.07,8.2
		c4.51,7.07,2.09,13.68-6.05,15.69c-7.96,1.96-16.02,3.5-24.05,5.12c-6.84,1.38-13.49,3.38-19.88,6.15
		c-10.72,4.65-20.69,1.2-30.61-2.77c-0.98-0.39-2.28-1.04-1.97-2.34c0.3-1.29,1.78-0.97,2.79-1.33c8.68-3.09,17.83-5.29,24.55-12.3
		c3.08-3.21,6.1-6.49,9.26-9.62c5.22-5.17,5.79-9.06,1.5-15.09c-4.85-6.81-10.64-12.85-16.27-19.02
		c-20.56-22.51-42.45-43.73-63.36-65.89c-4.44-4.71-8.48-9.61-10.71-15.75c-3.88-10.72-9.54-20.3-17.19-28.83
		c-6.04-6.73-10.94-14.38-15.66-22.12c-1.55-2.54-2.68-5.51-6-6.63c-1.49-0.5-1.56-2.26-1.41-3.65c0.46-4.2-1.42-3.94-4.27-2.47
		c-4.58,2.35-9.29,4.43-13.83,6.86c-21.23,11.36-44.02,18.59-66.95,25.47c-4.46,1.34-8.53,3.37-12.18,6.22
		c-5.59,4.36-5.59,10.96-5.47,16.85c0.4,18.82-6.44,35.66-12.92,52.7c-3.9,10.26-8.13,20.44-9.51,31.47
		c-1.08,8.61-0.37,16.86,3.92,24.68c4.51,8.21,2.43,13.01-6.86,14.54c-11.74,1.94-22.38,7.64-34.13,9.38
		c-6.74,1-13.45,2.11-20.31,1.29c-2.11-0.25-4.23-0.33-4.88-2.99c-0.33-1.35-1.69-1.34-2.67-1.71c-4.14-1.55-6.23-5.43-9.28-8.19
		c-1.57-1.42-0.13-2.96,1.45-3.42c2.52-0.74,5.14-1.17,7.74-1.62c20.38-3.53,38.98-20.8,44.12-40.8
		c2.79-10.83,3.51-21.94,4.82-32.97c1.66-14.08,2.93-28.2,4.63-42.28c1.01-8.33,0.51-16.68,0.87-25.01
		c0.36-8.37,4.63-13.73,11.7-17.34c5.94-3.04,12.09-5.69,17.86-9.02c23.02-13.27,45.91-26.76,68.89-40.09
		c2.4-1.39,3.82-2.76,3.24-5.87c-0.58-3.12,0.47-6.17,2.6-8.53c2.23-2.48,2.66-5.15,1.6-8.11c-5.81-16.32-4.22-33.17-3.88-49.99
		c0.5-24.86,9.86-46.84,21.16-68.27c2.63-4.99,2.11-5.94-3.41-6.36c-21.61-1.65-43.22-3.35-64.83-5.05
		c-4.94-0.39-9.4-2.01-13.64-4.69c-13.31-8.4-25.08-18.97-38.64-27c-6.63-3.93-13.11-7.71-21.23-7.71c-3.81,0-7.27-2.53-11.32-2.5
		c-5.43,0.04-10.55,0.65-14.85,4.35c-2.58,2.22-4.41,1.29-5.27-1.6c-1.02-3.43-2.36-6.86-1.67-10.57c0.25-1.31,0.45-2.56-1.31-2.93
		c-3.79-0.81-1.99-2.82-0.93-4.55c4.76-7.76,17.63-12.21,26.57-8.08c11.5,5.31,22.87,10.86,34.08,16.74
		c16.88,8.85,33.95,17.31,51.18,25.46c4.42,2.09,9.04,2.65,13.75,2.99c13.57,0.98,27.16,3.35,40.74,2.03
		c9.95-0.97,19.87-2.19,29.88-2.4C1144.48,664.98,1145.59,665.3,1146.36,663.97z"/>
	<path d="M793.1,560.55c0.18-21.75,19.26-40.13,41.44-39.92c23,0.22,39.37,17.54,39.09,41.37c-0.26,22.2-19.62,41.75-40.92,41.32
		C810.79,602.89,792.91,583.59,793.1,560.55z"/>
</g>
</svg>
