<?xml version="1.0" encoding="utf-8"?>
<!-- Generator: Adobe Illustrator 27.8.1, SVG Export Plug-In . SVG Version: 6.00 Build 0)  -->
<svg version="1.1" id="Layer_1" xmlns="http://www.w3.org/2000/svg" xmlns:xlink="http://www.w3.org/1999/xlink" x="0px" y="0px"
	 viewBox="0 0 1920 1080" style="enable-background:new 0 0 1920 1080;" xml:space="preserve">
<style type="text/css">
	.st0{opacity:0.5;}
</style>
<g class="st0">
	<path d="M1613.12,91.44c-21.15,13.01-37.38-1.25-46.8-13.62c-7.64-10.03-12.13-25.83-15.61-39.76
		c-2.26-9.06,5.33-15.89,10.45-22.27c12.07-15.04,45.76-21.19,62.18-10.18c13.11,8.79,24.46,8.67,37.72,1.66
		c8.94-4.73,18.75-8.17,29.37-6.1c6.35,1.24,13.9,2.85,16.25,8.66c4.4,10.9-8.16,16.37-10.97,25.54c-1.77,5.78-9.12,4.28-14.54,1.63
		c-7.21-3.53-14.48-6.97-21.87-10.1c-3.71-1.57-7.91-1.25-10.57,1.91c-2.41,2.87,1.3,5.3,1.98,8c1.1,4.33,5.25,7.81,3,13.14
		c-1.57,3.71,1.51,6.16,4.4,6.14c8.88-0.09,16.46,5.06,25.89,4.26c19.17-1.61,27.13,14.14,36.64,27.04
		c19.16,25.99,36.11,53.71,45.12,84.46c5.52,18.83,11.54,35.81,26.47,50.14c-10.52,4.11-10.77,9.8-5.08,18.34
		c4.31,6.46,3.02,14.19,2.46,22.47c-2.91,43.07-5.57,86.42,27.47,122.11c21.16,22.86,41.57,46.42,57.17,73.98
		c6.62,11.7,18.22,20.77,28.29,30.24c4.03,3.79,7.84,7.62,11.27,11.91c9.03,11.29,8.39,19.58-3.3,27.59
		c-11.33,7.76-24.5,9.67-37.75,7.46c-10.65-1.77-13.29-9.18-6.24-16.46c7.77-8.02,2.27-14.12-2.1-20.03
		c-13.16-17.8-31.3-30.64-46.74-46.14c-28.25-28.36-56.48-56.87-78.72-90.49c-2.03-3.07-3.4-6.85-4.1-10.49
		c-3.4-17.67-11.98-20.03-30.15-20.57c-40.18-1.2-60.58,31.6-90.42,47.91c-3.74,2.05-4.24,6.12-4.22,10.07
		c0.1,20.49-1.52,40.49-13.25,58.4c-9.69,14.81-7.52,31.8-7.07,48.15c0.35,12.36-3.65,17.76-16.71,17.39
		c-20.76-0.58-41.57,0.12-62.35,0.48c-6.9,0.12-13.52-0.9-19.95-3.25c-5.32-1.94-11.03-4.34-10.83-10.88
		c0.22-7.12,5.82-9.55,12.25-10.54c16.55-2.54,31.52-9.45,46.46-16.65c6.46-3.12,10.27-7.86,10.9-14.48
		c1.69-17.6,8.7-34.67,5.9-52.67c-5.93-38.19,15.08-66.56,35.43-94.52c11.85-16.28,23.97-32.51,37.76-47.56
		c7.86-8.57,9.47-22.99,13.43-34.93c1.08-3.26-0.86-6.44-3.35-9.13c-6.59-7.13-12.5-14.97-19.58-21.56
		c-4.02-3.74-9.02-7.67-15.86-3.56c-5.67,3.41-11.55,0.91-16.92-1.93c-5.26-2.79-10.49-3.69-15.5,0.25
		c-26.54,20.84-56.68,16.17-86.63,12.11c-9.21-1.25-18.23-3.86-27.41-5.4c-7.98-1.34-17.04-5.41-20.99,6.75
		c-0.81,2.49-3.88,3.64-6.46,3.07c-10.31-2.31-21.72-2.92-30.47-8.02c-8.2-4.78-16.36-6.14-24.97-7.77
		c-17.12-3.24-31.86-10.12-43.05-24.47c-6.26-8.02-3.91-12.6,2.61-17.89c15.32-12.42,44.18-11.64,60.82,5.55
		c13.43,13.88,28.6,16.75,45.72,16.75c27.97,0,55.99,1.49,83.85-2.33c2.92-0.4,6.25-0.17,8.63-1.55
		c6.42-3.72,16.82-7.36,15.03-14.84c-1.42-5.92-11.04,0.03-17.03,0.18c-7.97,0.19-15.76,3.67-23.92,1.04
		c-8.59-2.77-11.18-10.07-4.84-16.28c8.17-8,19.88-10.89,27.52-20.8c3.76-4.88,14.18-2.01,21.49,1.68
		c15.46,7.82,23.66,6.51,34.65-6.53C1593.13,104.97,1604.96,101.37,1613.12,91.44z"/>
	<path d="M1555.53,1081.04c-8.49,0-16.98-0.12-25.46,0.03c-10.45,0.18-11.69-4.68-7.12-12.71c1.67-2.93,3.67-5.69,5.7-8.39
		c11.69-15.49,22.54-31.62,31.41-48.83c18.93-36.71,36.54-74.11,55.97-110.55c5.33-9.99,8.89-20.77,15.61-30.29
		c17.95-25.44,40.06-46.51,64.02-65.98c5.65-4.59,8.65-9.66,0.41-15.09c-8.02-5.29-7.76-11.99-3.42-19.86
		c2.4-4.35,3.48-9.48,4.84-14.34c1.29-4.61-0.41-7.69-5.52-7.55c-23.01,0.65-43.86-8.81-65.65-13.86c-4.6-1.07-9.25-2.63-13.64-0.28
		c-27.69,14.84-51.99,1.44-75.45-10.56c-9.33-4.78-18.24-10.21-28.29-13.58c-49.51-16.63-100.89-25.89-151.37-38.7
		c-25.43-6.45-51.15-12.12-75.6-22.03c-5.85-2.37-11.34-5.63-8.69-13.05c2.58-7.22,7.24-12.65,16.34-10.09
		c2.44,0.69,4.94,1.16,7.37,1.9c69.35,21.08,136.92,47.36,205.65,70.24c18.05,6.01,35.98,15.82,56.11,5.49
		c4.09-2.09,10.03-0.73,15.11-0.72c4.75,0.01,9.03-0.98,13.4-3.12c43.55-21.36,90.56-32.31,137.02-44.79
		c13.39-3.59,26.9-7.65,41.1-7.44c3.64,0.06,6.81-1.62,7.34-5.67c0.47-3.62-2.03-5.1-5.19-6.06c-5.09-1.55-6.83-3.46-1.05-7.16
		c11.05-7.07,21.49-15.14,32.76-21.81c18.66-11.05,48.83-5.16,61.58,11.32c7.5,9.69,5.47,49.72-4.45,60.91
		c-5.29,5.96-5.11,10.63-0.77,15.42c5.77,6.36,5.41,13.21,3.04,20.21c-8.05,23.75-14.77,47.91-28.02,69.78
		c-4.79,7.9-4.11,19.09-11.43,26.31c-5.14,5.07-5.89,10.82-4.83,17.48c2.1,13.14,2.51,26.38-2.43,38.95
		c-9.5,24.19-24.15,46-30.21,71.98c-3.17,13.6-3.51,21.42,10.32,26.88c12.47,4.92,22.68,12.9,33.58,20.17
		c11.59,7.73,23.31,16.87,36.34,20.47c25.37,7.03,38.9,26.26,53.86,44.72c6.57,8.11,4.86,15.2-1.41,22.75
		c-6.33,7.62-13.42,7.85-21.62,4.3c-7.09-3.08-12.79-8.09-18.74-12.87c-13.14-10.55-25.16-23.45-42.21-27.38
		c-31.24-7.2-60.17-20.27-88.98-33.62c-16.08-7.45-28.94-18.13-35.56-35.94c-3.74-10.04-6.78-19.88-7.79-30.45
		c-0.25-2.56-0.3-5.63-3.02-6.52c-3.46-1.14-5.34,1.69-6.92,4.28c-3.08,5.04-6.32,10-9.12,15.2c-13.13,24.33-34.9,42.41-48.24,66.46
		c-6.37,11.48-14.57,21.12-25.27,27.84c-9.09,5.71-12.41,12.16-9.33,22.04c2.64,8.46-1.45,12.1-9.09,12.74
		c-10.97,0.92-21.98,1.33-32.98,1.95C1555.53,1081.39,1555.52,1081.21,1555.53,1081.04z M1721.66,714.48
		c-22.11-27.94-48.24-8.02-73.04-5.41C1673.07,710.89,1697.53,712.71,1721.66,714.48z"/>
	<path d="M112.17,649.11c-1.16-7.87-1.5-15.91-12.79-9.26c-4.46,2.63-6.18-2.37-6.31-6.63c-0.33-10.87,8.77-22.27,20.03-24.53
		c13.43-2.7,27.07-1.44,40.62-1.74c9.75-0.22,19.54,0.06,29.24-0.74c10.46-0.86,19.64-2.13,25.29-14.66
		c6.18-13.69,25.99-18.37,42.83-13.85c18.92,5.08,26.43,12.6,27.35,31.39c0.48,9.78,4.59,13.07,12.87,16.9
		c52.46,24.29,101.3,54.53,145.02,92.57c13.05,11.35,21.5,25.96,25.8,42.74c2.92,11.39-11.86,38.18-26.22,43.23
		c-27.21,9.57-51.63,25.49-79.4,33.56c-2.27,0.66-4.39,1.85-9.3,3.96c33.11,10.3,59.12,28.63,86.77,43.94
		c8.98,4.97,20.03,1.1,30.11,0.2c12.66-1.13,25.29-2.54,37.96-3.47c3.73-0.27,8.24,0.02,10.02,4.03c1.81,4.07-1.32,6.85-3.98,9.82
		c-18.87,21.07-42.72,35.84-65.69,51.58c-57.4,39.33-117.77,74.08-181.08,102.4c-60.96,27.27-126.83,32.65-193.23,27.69
		c-11.44-0.85-23.92,0.94-34.4-8.22c19.2-17.85,42.45-28.45,65.01-39.73c53.08-26.53,107.28-50.62,163.56-69.75
		c15.3-5.2,16.17-5.76,11.02-24.7c-3.55-13.04-6.8-26.11-9.67-39.3c-0.53-2.45-0.53-5.54-3.64-5.95c-3.11-0.42-3.96,2.64-5.17,4.79
		c-1.03,1.85-1.84,3.82-2.87,5.68c-1.83,3.32-3.65,8.15-7.95,6.93c-5.65-1.61,0.99-6.58-1.91-9.94c-2.63,4.26-5.03,8.86-8.13,12.95
		c-2.72,3.6-6.65,5.73-11.09,2.83c-4.63-3.03-3.37-7.57-1.35-11.31c1.79-3.31,4.65-6.04,4.89-11.05
		c-9.06,0.93-8.36,12.2-16.11,14.93c-3.75-6.32,2.49-10.23,3.17-15.12c1.09-7.8,7.51-14.24,5.9-23.02
		c-0.99-5.41,4.08-5.59,7.45-6.81c12.5-4.56,22.58-11.26,25.4-25.62c1.22-6.22,7.5-8.93,11.22-13.44
		c21.55-26.2,31.24-55.53,23.52-89.53c-1-4.41-2.6-8.05-5.97-10.82c-17.63-14.51-27.64-34.53-39.47-53.37
		c-10.35-16.48-21.54-31.86-44.66-32.62c-15.08-0.5-30.13-4.43-44.99-7.74c-11.67-2.6-20.8-1.3-26.81,10.33
		c-2.28,4.42-5.84,8.18-8.82,12.24C114.88,650.29,113.52,649.7,112.17,649.11z M402.12,905.91c-30.53-14.65-58.24-25.01-86.13-34.94
		c-4.28-1.52-7.67-1.58-7.65,4.37c0.08,20.37,0.16,40.73,0.26,61.1c0.02,4.7,2.34,5.98,6.6,4.28
		C343,929.58,370.79,918.46,402.12,905.91z M370.17,762.81c-4.38-6.46-9.86-8.26-14.75-10.49c-26.2-11.98-25.6-11.87-27.77,13.16
		c-0.18,2.1-0.78,4.16-1.08,6.26c-1.01,7.04,0.45,11.09,8.66,7.24C346.67,773.61,358.15,768.37,370.17,762.81z"/>
	<path d="M1097.44,914.65c-16.89,5.93-25.55,20.83-38.32,30.85c-20.07,15.74-25.42,40.14-37.62,60.47
		c-6.07,10.11-9.94,21.21-12.48,32.97c-3.25,15.01-12.59,19.65-26.31,14.94c-16.52-5.68-23-16.53-17.49-30.03
		c8.06-19.74,22.54-35.52,34.15-53c7.77-11.71,14.92-23.53,19.74-36.46c5.28-14.17,11.31-27.29,24.02-36.36
		c2.36-1.68,5.26-3.92,4.06-7.22c-1.27-3.48-5.01-2.51-7.85-2.55c-9.76-0.12-19.52-0.08-29.27-0.05c-8.07,0.03-9.18-3-5.81-10.21
		c9.08-19.47,20.17-38.5,17.11-61.41c-1.23-9.24-1.99-18.56-3.46-27.76c-1.58-9.82-1.77-19.42,1.86-28.84
		c1.57-4.07,2.29-8.28,0.7-12.42c-1.32-3.45-1.88-8.31-6.33-8.74c-5.02-0.49-5.39,4.61-6.56,7.99
		c-7.13,20.58-20.51,31.59-43.21,32.38c-18.63,0.65-18.58,1.9-15.88,20.92c2.92,20.56-3.81,32.91-22.86,41.88
		c-23.63,11.14-54.33,6.55-70.39-8.48c-16.42-15.37-12.86-33.6-7.96-50.85c3.95-13.87,18.4-17.42,31.34-20.74
		c17-4.36,34.58-2.05,51.8-4.97c27.32-4.63,46.6-16.79,55.18-45.07c3.78-12.47,7.71-24.86,11-37.52
		c6.3-24.27,26.48-35.39,47.06-44.37c9.81-4.28,17.25-5.48,13.13-19.32c-2.38-8,0.01-17.64,1.18-26.41
		c1.35-10.1,8.41-16.67,16.97-20.78c5.98-2.87,12.9-4.52,19.55-5.17c29.7-2.91,46.78,15.45,42.3,44.9
		c-2.68,17.61-2.61,17.4,14.17,23.1c12.31,4.18,24.52,7.78,34.91,17.09c15.57,13.95,12.63,33.15,17.24,50.17
		c1.4,5.18-0.09,11.08,0.79,16.47c2.9,17.7-2.34,32.1-15.44,44.33c-6.5,6.08-7.92,14.72-7.86,23.5c0.22,31.82,0.45,63.64,0.49,95.47
		c0.03,17.91-2.39,20.54-19.86,22.05c-6.52,0.56-11.52,2.85-13.6,9.43c-9.42,29.76-26.18,54.41-49.65,75.12
		c-9.75,8.6-15.43,19.61-7.05,33.87c3.97,6.75,6.43,14.51,10.99,21.26c8.33,12.33,4.39,20.19-10.21,20.69
		c-7.16,0.25-14.45,0.09-21.51-1c-7.86-1.21-13.3-5.83-12.97-14.63c0.25-6.83-3.65-10.45-8.49-14.47
		c-13.06-10.86-14.98-16.61-4.37-29.67c18.22-22.41,30.3-48.65,47.48-71.6C1094.09,921.45,1095.6,917.92,1097.44,914.65z"/>
	<path d="M628.86,228.22c-6.36,0-12.73-0.01-19.09,0c-17.55,0.02-17.62,0.01-20.25,17.79c-1.37,9.23-2.25,18.62-7.29,26.77
		c-10,16.15-25.96,17.64-42.54,16.27c-14.99-1.24-22.74-11.61-28.03-24.45c-2.73-6.63-5.85-13.11-8.28-19.84
		c-1.75-4.87-5.53-5.73-9.76-6.85c-15.06-3.98-30.47-0.73-45.59-2.51c-7.13-0.84-19.62,1.55-19.59-6.21
		c0.04-9.86,12.52-6.41,19.72-7.02c12.66-1.07,25.43-0.78,38.16-0.88c10.22-0.08,16.1-5.18,16.74-15.2
		c0.42-6.59,3.96-12.05,5.23-18.02c5.18-24.3,22.95-28.44,49.74-24.13c17.64,2.84,23.56,19.8,28.24,34.55
		c6.6,20.83,5.67,21.4,27.46,20.82c24.53-0.65,49.23,0.92,73.42-5.27c5.7-1.46,11.57-1.3,17.35,1.54
		c6.16,3.02,13.08,3.23,19.93,3.22c41.58-0.05,83.16,0.02,124.74-0.06c9.33-0.02,18.64-0.28,26.74-6.19
		c5.1-3.73,10.94-1.71,15.99-0.19c27.37,8.28,55.44,6.06,83.38,6.56c8.55,0.15,12.34-2.37,12.18-11.49
		c-0.26-15.02,8.11-27.42,14.56-40.1c3.61-7.1,11.41-9.6,19.69-9.17c27.66,1.44,38.56,11.12,43.12,38.49
		c2.41,14.5,7.44,18.96,22.3,19.52c5.08,0.19,10.18,0.05,15.27,0.07c11.45,0.06,22.92-0.17,34.36,0.31
		c5.98,0.25,15.06-1.15,15.07,7.44c0.01,8.1-8.89,6.09-14.28,6.29c-15.26,0.56-30.54,0.27-45.81,0.55
		c-20.14,0.37-25.2,4.57-28.78,23.91c-6.26,33.81-31.79,36.37-57.05,29.07c-10.53-3.04-10.6-16.43-15.91-24.8
		c-0.64-1-0.52-2.47-0.82-3.71c-6.44-26.97-6.44-26.96-34.16-27.11c-11.03-0.06-22.08,0.2-33.09-0.32
		c-12.51-0.6-19.24,5.96-21.38,17.2c-4.67,24.55-10.79,48.59-20.87,71.54c-1.34,3.05-2.24,6.59-2.22,9.9
		c0.23,36.89-17.06,68.53-30.87,101.01c-9.13,21.46-9.84,43.11-4,64.47c9.03,33.09,29.38,61.54,41.15,93.61
		c2.03,5.53,3.94,5.23,9.14,3.98c16.86-4.05,53.96,12.42,62.68,27.02c6.39,10.7,7.32,22.72,5.48,34.42
		c-1.9,12.09-12.77,11.88-22.07,12.3c-8.92,0.4-13.95-3.54-15.21-13.14c-3.11-23.63-5.44-26.97-28.84-24.44
		c-32.63,3.53-52.68-13.73-70.2-36.94c-8.25-10.93-19.36-18.85-28.65-28.67c-5.49-5.8-12.12-6.25-19.63-2.18
		c-17.04,9.22-33.28,20.32-53.3,22.94c-6.32,0.83-9.26,6.41-8.39,12.43c2.02,14.06-0.25,27.96-0.61,41.92
		c-0.34,13.19,0.31,25.72,7.83,37.8c4.54,7.29,9.65,18.2,0.81,25.72c-11.79,10.02-25.84,17.39-42.09,11.88
		c-8.59-2.91-6.42-11.26-2.58-16.02c18.44-22.83,10.88-44.87,2.05-69.04c-10.33-28.28-10.35-80.79,26.01-104.45
		c9.1-5.92,16.34-14.7,24.49-22.1c5.99-5.45,6.65-13.18,6.34-20.01c-1.45-31.88-10.29-62.32-19.92-92.51
		c-5.25-16.46-13.11-32.18-15.49-49.46c-2.29-16.6-7.5-32.08-15.74-46.52c-7.07-12.39-9.75-26.06-12.95-39.65
		c-5.27-22.33-5.85-22.7-28.74-22.71C639.04,228.22,633.95,228.22,628.86,228.22z M751.96,347.4c-1.06-10.23-1.85-18.58-2.81-26.91
		c-2.32-20.07,12.56-39.3,31.12-40.15c21.03-0.96,40.85,18.41,40.41,38.73c-0.19,9.07-5.06,15.96-8.49,23.6
		c-1.66,3.71-1.94,7.41,0.66,10.8c2.08,2.72,5.22,3.55,7.89,1.68c4.78-3.35,10.94-5.58,13.48-11.15
		c14.69-32.13,29.82-64.12,40.46-97.88c4.62-14.67,1.4-18.03-14.32-18.03c-47.03-0.02-94.06,0.14-141.09,0.06
		c-6.1-0.01-11.61,1.61-17.25,3.53c-7.17,2.44-8.85,6.25-5.4,13.2c15.5,31.21,30.65,62.6,46.23,93.77
		C744.39,341.73,748.05,343.74,751.96,347.4z"/>
	<path d="M316.26,331.17c-4.13,3.83-7.55,8.49-12.51,10.68c-10.04,4.45-7.21,4.62-3.39,20.99c1.25,5.37-4.79,8.38-9.46,8.65
		c-9.12,0.52-15.7,4.4-22.05,10.78c-4.27,4.28-11.12,6.68-16.84,1.9c-5.42-4.54-3.36-9.65,0.19-15.04c4.97-7.54-1.93-7.53-6.13-7.3
		c-16.98,0.91-33.97,1.99-50.89,3.74c-21.62,2.23-43.15,5.4-64.76,7.65c-6.77,0.7-12.21,1.63-12.79,9.85
		c-0.25,3.6-2.6,6.62-5.49,7.88c-10.92,4.78-22.05,8.83-31.74,16.29c-3.34,2.57-9.55,1.56-12.62-3.11
		c-3.29-5.01-0.67-8.89,3.48-12.07c2.43-1.86,7.11-2.92,4.74-7.13c-2.14-3.82-6.75-3.03-10.4-2.41
		c-19.54,3.39-38.68,2.97-56.98-5.55c-3.6-1.67-9.19-2.33-8.59-7.97c0.57-5.43,5.94-5.26,9.89-6.32
		c13.49-3.63,27.27-2.35,40.97-2.25c20.78,0.17,39.65-14.71,39.14-35.76c-0.77-31.45,1.31-63.26-6.29-94.38
		c-1.55-6.34-1.04-13.17-1.56-19.76c-0.21-2.71,0.75-6.26-2.59-7.44c-3.15-1.12-5.07,2.04-7.05,3.79
		c-8.29,7.27-14.06,16.4-18.55,26.4c-2.9,6.46-5.44,13.18-11.34,17.74c-3.5,2.71-5.85,9.32-11.26,6.35
		c-3.45-1.9-2.31-3.72-0.78-5.73c1.84-2.43-1.7-5.4-3.68-3.08c-3.03,3.56-3.2,8.46-3.26,13.5c-0.03,3.01,1.84,7.2-2.82,8.33
		c-4.57,1.13-7.1-2.25-8.55-5.84c-4.17-10.3-5.62-21.51,4.18-28.63c36.72-26.62,56.61-67.65,86.55-100.08
		c9.56-10.35,7.73-26.71,6.96-40.93c-0.08-1.51-1.96-4.03-3.24-4.18c-14.95-1.81-27.24-12.28-42.29-13.23
		c-12.6-0.79-25.8-16.5-23.55-29.01C44.9,26.36,68.31,5.59,95.2,0.37c15.06-2.92,43.01,11.86,51.47,29.15
		c3.88,7.93,9.36,6.98,15.11,6.67c28.85-1.57,57.56-2.5,85.88,5.33c36.65,10.13,72.19,23.75,104.12,43.94
		c25.1,15.87,38.37,41.08,36.22,72.32c-0.33,4.86-1.19,9.86-5.61,12.45c-15.78,9.25-28.88,23.12-47.49,27.55
		c-4.31,1.03-8.73,3.37-8.75,8.16c-0.11,20.79-6.44,42.68,12.18,60.11c4.78,4.47-2.02,21.63-12.18,38.57 M152.39,312.78
		c-0.01,0.18-0.04,0.35-0.1,0.51c-3.36,11,7.83,19.83,9.52,31.34c0.6,4.12,4.9,3.54,8.27,3.1c26.68-3.43,53.33-7.04,80.05-10.15
		c10.12-1.18,13.9-6.88,13.86-16.18c-0.08-13.47-3.1-25.09-12.5-36.28c-18.04-21.51-31.41-46.86-53.4-65.25
		c-2.03-1.7-4.36-4.71-4.26-7.03c0.77-19.55-12.55-16.14-24.12-14.9c-7.01,0.76-13.85,3.46-20.85,3.91
		c-8.65,0.55-11.37,4.65-11.16,12.71c0.4,14.65,0.48,29.32,0.36,43.97c-0.11,12.85-0.49,25.34,10.6,35.11
		C153.38,297.82,152.88,304.76,152.39,312.78z M292.99,256.94c1.24,1.6,3.76,1.03,4.24-0.94c1.93-7.91,1.04-14.25,1.03-20.47
		c-0.07-30.91-0.17-30.96-30.47-27.22c-0.52,0.07-1.06,0.09-1.6,0.1c-7.35,0.1-8.06,3.54-4.07,8.74
		C272,230.01,281.99,242.79,292.99,256.94z M209.88,130.58c2.4-0.6,2.44-3.99,0.06-4.65c-7.85-2.16-15.48-4.38-22.47-8.64
		c-1.85-1.13-5.59-2.24-6.47-1.36c-8.95,8.9-20.27,14.91-30.04,22.9c-1.97,1.62-0.36,4.79,2.11,4.17
		C172.01,138.28,191.12,135.31,209.88,130.58z"/>
</g>
</svg>
